<mxfile host="app.diagrams.net" agent="Mozilla/5.0 (X11; Linux x86_64) AppleWebKit/537.36 (KHTML, like Gecko) Chrome/125.0.0.0 Safari/537.36" version="24.7.6">
  <diagram name="PÃ¡gina-1" id="j3aUwY7uzXV033YVmDT2">
    <mxGraphModel dx="1378" dy="759" grid="1" gridSize="10" guides="1" tooltips="1" connect="1" arrows="1" fold="1" page="1" pageScale="1" pageWidth="827" pageHeight="1169" math="0" shadow="0">
      <root>
        <mxCell id="0" />
        <mxCell id="1" parent="0" />
        <mxCell id="fqFbejuKPqkzXvjR6cZn-1" value="" style="rounded=1;whiteSpace=wrap;html=1;" parent="1" vertex="1">
          <mxGeometry x="50" y="150" width="760" height="620" as="geometry" />
        </mxCell>
        <mxCell id="fqFbejuKPqkzXvjR6cZn-2" value="" style="shape=image;verticalLabelPosition=bottom;labelBackgroundColor=default;verticalAlign=top;aspect=fixed;imageAspect=0;image=data:image/jpeg,/9j/4AAQSkZJRgABAQAAAQABAAD/2wCEAA0NDQ0ODQ4QEA4UFhMWFB4bGRkbHi0gIiAiIC1EKjIqKjIqRDxJOzc7STxsVUtLVWx9aWNpfZeHh5e+tb75+f8BDQ0NDQ4NDhAQDhQWExYUHhsZGRseLSAiICIgLUQqMioqMipEPEk7NztJPGxVS0tVbH1pY2l9l4eHl761vvn5///CABEIApcDIAMBIgACEQEDEQH/xAAbAAEAAQUBAAAAAAAAAAAAAAAABAEDBQYHAv/aAAgBAQAAAADpwAAAAAAAHLsWAZTqIAAAAAAAAAAAAAAcugXwI+Q6iAAAAAAAAAAAAAAHLoU7x78e/HuDN6iAAAAAAAAAAAAAAHLoU6BPgT4E+DN6iAAAAAAAAAAAAAAHLoU6BPgT4E+DN6iAAAAAAAAAAAAAAHLoU6BPgT4E+DN6iAAAAAAAAAAAAAAHLoU6BPgT4E+DN6iAAAAAAAAAAAAAAHLYkwCFN6iAAAAAAAAAAALOkgAA161eAtZHqAAAAAAAAAAAAscg91A8eqgeK+gPOT6iAAAAAAAAAAALHIJ98DFyZYGOuTQIM3qIACmmZHYqgAAAAAAACxyCf78XLMiLLxcmTHlRJcSXjvc6JLiS4kuDN6iAAwvNabJvtwAAAAAAAAscgn1t340uFOxcmRFmwJ8Cfjvc6BPgT4E+DN6iAB55ZDkQ8z0a8AAAAAAAAscgn1t340uFOxcmRFmwJ8Cfjvc6BPgT4E+DN6iABrnPchdswM50b2AAAAAAABY5BPrbvxpcKdi5MiLNgT4E/He50CfAnwJ8Gb1EAFOcYbIlmBuW5VAAAAAAABY5BOu+ffi5avYuTKtXrF+xfx3udYv2L9i/Bm9RAB45DflCHZ6pOAAAAAAUtxAFjmE28BjpEkCD7lgQ5fRACfVjOWZC8KYzbN4AAAAAAUxPMACoAAAAUAX+u+mA5zkvYQvfWgAAAAADE8wmewUgS7oEG/fAiepIEbxMAsU67VrnPMp6CxA36xaXpeUngAAAAMTzDIehXz7xU6959+Pdu7i5Um3dtXbV3He51m9au2rsK3kbV21dtXIvjrtWv86yXsLWPKqKZDbdoqAAAAGJ5hkLfqvi7Hl4qfW3fjS4U7FyZEWbAnwJ+O9zoE+BPgT4VvIwJ8CfClx7fXasZyzIXg8WLnoefFi1mehyQAAABieYZC36r4u2JWKn1t340uFOxcmRFmwJ8Cfjvc6BPgT4E+FbyMCfAnwpce312rxyP3MDxQAhXur3AAAABieYZDxV5u2JWKn1t340uFOxcmRFmwJ8Cfjvc6BPgT4E+FbyMCfAnwpce312qmg63kqlPAB4g7xtoAAAAYnmGQ81eblmTip3u3ejyoc3FyZMWZCmwpuO9zoU2FNhTYVvIwpsKbDlR7fXamM5dImHigBBmdSuAAAABieYZG4CmKn3wMXKlAY73OAhW8iBE8ddWcLreA95A8AKQ3S8sAAAA1vWC1irnoCzc9AWffsC1W4BbpdA8UykWG9yZFXigFmN76HnQAAADRNWuVrQAAAAAAAK+vd24KePPhTz4tUzW95AAAAAc8wM316AAAAAAAAAeKQ7J6yGZ2PL1AAAADnOEm19gAAAAAAAAefPmBumye7/ALAAAAAOd4KbX2AAAAAAAACnhFp1m7UAAAAANB1ucuAAAAAAAAA8U8wNv3YAAAAADS9PyD3UAAAAAAAAefKLTq0kAAAAADWNByFfdQAAAAAAACnh4g7luYAAAAADE8wm3PXoAAAAAAABTwQr/VblQAAAAAPHIL0ivsAAFL1ugAAAAeKLEXo2fAAAAAAHM8XMe6gAD3uuT86fhgAAADxR5gbH0GoAAAAAA1DSchX16AAGz3ed9QyfN/AAAAHnypCkdRkVAAAAAAEHlEq/X2AAN01nWcp0rRYYAAAPPkiW+l5gAAAAAADmmInPdQADObBo+U2vngAAAPPkjR982ioAAAAAAKYDnUy7X2AANgzkbVooAAAeKFiLt+7AAAAAAADluPnPXoAPPoAAAAPFCPG2jfKgAAAAAADCc1lX3uoFLMZPqAAAAp5oRo+17zUAAAAAAAKaBrU25X1U8W7VmmU3DFYMAAADz5KRLW5blUAAAAAAAFLHL4NK+vbypNzux5ZZ5/GAAAFPNC3E9b7sgAAAAAAAAxfM/GwF+bOyc4GO0PwAABTzQRo+S6DkgAAAAAAAAYTnM7fb67I9AUxOj0AAFPNBZjNt3K4AAAAAAAAAw3OvW85QvX/QGK0m0AClKUFqN4zO85MAAAAAAAAAIHPcXsm2Xj37u+6lIelQQKPKgpZj+cpueeAAAAAAAAAAW9Q1Cuy7JJCvv0r51zXPNCgKWrVlndszgAAAAAAAAAAIWoaz5y2cy8wAs69g/I8+LdrxTJbFss0AAAAAAAAAAARtb13E0kZCdKv3fR4tRsFG8+KUkZfNZ3IAAAAAAAAAAAAUI2GxWOgRPAHuRLmT8lk59VKgAAAAAAAAAAAAFLNrw9ert2oAAAAAAAAAAAAAAAAAAAAAAAAAAAAAAAAAAAAAAAAAAAAAAAAAAAAAAAAAAAAAAAAAAAAAAAAAAAAAAAAAAAAAAAAAAAAABEx+X91AAAAAFLOLy10AAAAAAAAAi8qs57o1QAAAABb5XCyvUAAAAAAAAADC80XuvVAAAAAEHk9adhugAAAAAAAAMLzRe69UAAAAAQOUVp2G6AAAAAAAAAwvNF7r1QAAAABA5RWnYboAAAAAAAADC80XuvVAAAAAEDlFadhugAAAAAAAAMLzRe69UAAAAAQOUVp2G6AAAAAAAAp491MLzRe69UB4r6AAHnzcBA5RWnYboDzWoBTxcAHmtQt+6gQtWwMDxcyOe2nH80XuvVHjXdbxUesvMbPmqgKY3VsJC83cnsG0XkDlFadhug8appt7pWQFIGrYOD4u5LP7RIDWNEmdLu6zr2Ms+pWb3GcpqWl+AL2w6wvdeqYzn+NAZ7fZNQt6VqlAJO/5yDyitOw3Qxug4o3Lczzpmo+QL+97FU5hiWy4SKBM6zTQ9XClQL3XqsRzeyAJ/S5Yt85wgA9dNv8AKK07DdLeoaf5LvSMw88+10KVDeNtOXYsClS/17UdILu1Z2TEwGr+Be68i8tjma2jI0xGq44yvTfZoWrknbM1eg63rtHQctyetOw3WJ0HHDOb3ONJ1AkbTnJELX9Z8nRs+5dixXZNjm2cPitnn8q8Mh0iaGM5xEL3XnP9bV3ragt6LrBvG2MPzMzXQ79Rg9Nm75G5PWnYWmanQv7vs1VMdy2jLdElhiecR0rq9zl2LL/RcyBpWnrvUZ4GL5h5XuvReTUbfutQeeb4RN6vXnWvp3UbwAg8nrTo+jwRsO8yxTQ9XSupSQUxHMjf9m5dizo2fActxjbN5AOfa2vde1rQF3rV4CmL5dWnVZ/IbTftnACByioJO97CCnJojbNoANDw7Yuh8uxbL9NqA474dJzgBrfPl7r2lagzvSAFHJYroeW5LWnXJNQBA5RUF7peUBa4+FAFTJ9R5fi257jUBxo6lkwDCc1XuvaLqrZt/AHK8c3/ACvKzsXsAIHKKkyJRL6bNCNyKoABkOqcvxbfdoAOP2nRs+AaxoKb1jS9OZvpQBTkVh0TLckrTrE4AIHKKtr3TXNDMh0ySLfHgAC5u+1cuxbfdoAOY4hs2/gKc5wLPdG13nr31iUBTC81U6xN5HHbvtwAQOUVp2G7TTNOMx0m4U5VAbhudQBU5di2+7QAafpT103K1Bgubm+7PZ5J4bL0AC3zHGMj1NoOspHUZgAgcorTsN00HWDYOhezSNRXeozwAOXYtvu0AEflNhJ6HmVK0wXPrKX1W60bUzbN1uCNz7CG/wCy1xvLvLI9FnhquoZDokXlFadhunjnWCNr3ohcrtpvRclUa7pszoN85di2+7QANc56Vz2ekRcBgyvR86pZ5hAJ2y5LxitZsGe6ONN0w97Hmr0LW8UdFyPKK07DdKW+aYo3XcDVdEPWw5u/EwGEV3/ZTl2Lb7tAAajpAA9b3tAQeawgBmejXhTQ9XAF7qLk9adhuhF5nAOkZ1TS9PAHvp+TOXYtvu0AA1/Q4wE7fM2CkbQ8AB62vdPdQarpVkDK77konJa17D7BA5lGbruA1rR44GQ37LVOY4hv+zAAWtcwWHjysxnti9gFMVreGx3rK5rZZwAja3g8TZnZjYc7VTSNV3TbgGK53I6LMCzrWDxFiZmM/n/Ypg+f5Lot2oD/xAAaAQEAAwEBAQAAAAAAAAAAAAAAAgQFAwEG/9oACAECEAAAAAAAALuoIYIAAAAAAC7q+HPCAAAAAAAXdQc8IAAAAAABd1BzwgAAAAAu3QE+npzwQAAAAA0dAe+AOeEBdlQAAAAaOgPfAHPCBLdlSywAAANHQHvgDnhAu6hlUwAAPdId+/rw9B55SFSvqXTlhgAAT3gAAAzaGrcFWUeFKAACe8Ae+AHrxm0NHQIeee++YQACe8Ae+AAZtDttvOYlTzQASte6gB74ABU42bCESXLH8ABZ1/QAAAB5GXkKdDwAC3py9AAAAOcsSHgAAsa3sgAAAEPK2WAADpt+TAAAA85yxIAAAbroA8o9LYAHkPaFAAABq2J+gVcuO7MAHNyxwAACxr+TA55PTWABzeY0AAABsdZ+gAAeQMbmAAAHXZ8l75yqV9n0AIwlzyIAAAAW7+b5zgW9YAjFKnm+AAAAFq7m8fRa1ZDyMfZcc3gAAAACej7Trxez0bJ775Wo8AAAAAB0t9/UXvSXLjXr+AAAAAABJ54AAAAAAAAAAAAAAAAAAAAAA0qXIAAO9nPAAAAE9/MoAABpX/n/AAAAAAnv5lAAANK/8/4AAAAT38ygAAGlf+f8AAAE9K1LjS1Myh7oXZ86NAXb/WNPO0L/AM/476nDLXb/AFjUzY2dbNu9/Kmbtzqws9WZQ2LVbjY708lpaHGv0s0o3/n2lejlVdHR4152uWLb1XOr7KNzGrvde1mR1cygaWhjw26WUWIXb+Rp9aeXHtt1Mkta9Dlq18bw36+QO+3mWO+CPd+nDRwIBpaBn5pf06cBchQ1ceqPoaWWOm9l25Ygb9bnf+f8DS0KPfrj12jo+A4UtXC5Dblh+F/Txbd7D5FjazIa2RUDSv8Az8tv3F5W9fKpAu6uFyFrYrZ0LejXxum5DN499PzD83J5tbppVJX/AJ/zrtRxYbfXNrdNGrn3dXC5Be0pFbJgsa3Q5ZHF01+5DJs3/n/FjYq5M9juRyatzWwuQJ6FvKrB7e0cumHlvWoUI9b+WL0KhZ16OfFLUyQ//8QAGgEBAAIDAQAAAAAAAAAAAAAAAAQFAQIDBv/aAAgBAxAAAAAAAACBSjv6IAAAAAABAosEr0YAAAAAACBQ5JPowAAAAAAEChwS/RgAAAABAgANOGDt6MAAAAAKumwdeRs1JfowK/WxyAAABV02TfQYySfRg085ytLbIAAAKumHTmZYJXowQKLTpezgAANasRog21MsHWdkmSqiownehAAA5+a5m+up15sb41OvI2urKmqTtO12kT+gADn5nUzrk30GMm+gurKrptXXYdvQ5AA5+Z1M65N9AG+jC7suHneOewWdqADSJrT8zfXB05mzU6czNl3iQuXXYS7vYAEOk54AAABjVt1zntOsNgAIVJy1AAAAO2/oOmwAAi0PPQAAAB03sLgAAHHz2nIAAADbrv6DqAADHneXABm04wAAM9ltZAAAKev5agTr3PltAAz1zLvMgAAItFpyA63/ABoQAz1z3vegAAAo4fPQbYwABnrntedgAAA4UOvPGZE+T5zAAdN0m66gAAAQq6zz26FdQgG++c2NpsAAAAQ4Fr3wIFDqZztuzKtJIAAAAOVYnSdjhUww6TJ8kAAAAAcocbGdmOWnbvKkbAAAAAADGrOwAAAAAAAAAAAAAAAAAAAAAGKud3AACPEswAAABy87a2QAAVNf6TYAAAA5edtbIAAKmv8ASbAAAAYzy87a2QxkBjJU1/pNgDGQxlhlzq4evedU2tlrWwefSwscsQK/jvNs6yv9JsjVEm3QK7jtNtN4lNawI+ZtpQ85m8XitbGkiSu0ePOuM1Nd3k8ok/av9Iq6/a4mVdZ2lc4fe9h07rL113g3kprSxLXaotbJirrbvehn2+Ubevr7qq4zrXpwoJtxlDpbHtTybvc83JuxGobWNw9Dk185N6Vno+gVNcWNsVtVN3yQd7Knu5g8zOuBx89bQ9PQB5yT1rvSbBU11hG5XklV1mQSZ1P6DuKDT0GxW1V7Dr7/ALkWitd6e6mhU1/pNKLW97wqW4nBmBT+g7iHSSrPeHWSbzlQb2vePU5v9qDnayuVXM0r/SbcKLa+3oeNpL51km0gU/oO4V9VqSrnoi03M7XMhxpo5vcxa/0eyLSTLnlSxza5mQKf0HcHOsh3EsNa+stp2RiFU2FjvwgWwr95rESnn2W7SpuMj//EAEkQAAECAgMLBwoFAwQDAAMAAAECAwAEBRARBhITITEyM0FRUnEUICIwNXKxNEJQVGFzgZGSshUWI0CCYGKhRFOiwUNj0SSDkP/aAAgBAQABPwD0jTXas53h4DqqE7Wk+8fA/wBNU12rOd4eAhpAWogmOTI3jHJkbyo5MjeVHJkbyo5MjeVHJkbyo5MjeMOoDarAYoTtaT7x+0/01TXas53h4CJbSHhUHEE2BQJqv0W3t8LbaitANhUAapnSDhFCdrSfeP2n+mqa7VnO8PARLaQ8KmNKPjV/5/51PaY1TOkHCKE7Wk+8ftP9NU12rOd4eAiWzzwqY0w+NX+o/nU9pjVM6QcIoTtaT7x+0/01TXas53h4CJbPPCpjTD41f6j+dT2mNUzpBwihO1pPvH7T/TVNdqzneHgIls88KmdMOJq/1H86ntMeIqmdIOEUJ2tJ94/af6aprtWc748BEtnnh1EzpBwihO1pPvH7T/Q7yy204sDNST8hAurm/VWvmY/Nc36q18zH5rm/VWvmY/Nc36q18zH5rm/VWvmY/Nc36q18zH5rm/VWvmY/Nc36q18zH5rm/VWvmY/Nc36q18zH5rm/VWvmY/Nc36q18zH5rm/VWvmY/Nc36q18zH5rm/VWvmY/Nc36q18zH5rm/VWvmY/Nc36q18zE3MKm5l19SQkrNpAhtZbNoEcpVuiOUncEcpO4I5SdwRyk7gjlJ3BHKVbohxwrVaRFCdrSfeV4H+h5ryd/3avCE5BwgIWRaEkiME5uGME5uGME5uGME5uGME5uGME5uGME5uGpKVKtsSTGCc3DGCc3DGCc3DGCc3DGCc3DGCc3DGCc3DBBBsIsMJSVYgCYwTm4YwTm4YwTm4YwTm4YwTm4YwTm4YwTm4YKSk2ERQna0n3lfaf6HmvJ3/dq8ITkHCJfR/HqFZyuJiW8/wCHUPaVfGJbPPDqJnPHCKE7Wk+8ftP7Cm6cfamksyjlhaNrh2ndijKfl5whp6xp7/CuHpaa8nf92rwhOQcIl9H8TDpKW1EQwtSwoqMKJCFEZQIYWpZVfHII1GGXFqXYpRIsqVnK4mJbIv4Qo2JUfYYYcWtRClaqmnVqcAKrRjqS6vDXt9ivqntKvjEtnnhU06tTgBOKrCrw17fYr7JU664lwgKxVTOkHCKE7Wk+8ftPX0zSQkJXo6VfRbEEkkkkknGSddVFU+7LENTRLjWpeVSYbdQ6hK0KCkqFoIxgj0pNeTv+7V4QnIOES+j+Jh/RKiWzVcRDmYvgYlcq+EHIYl9J8KlZyuJiWyL+ELzFd0xLZyu7UxpRUnT/AM6ntKvjEtnnhUxph8av9R/Op7TGqZ0g4RQna0n3j9p65SgkEnEBFJzxn5xx7zB0Ud0Q0i/VZq1w4wDjRiOyCCDZFE0u7Ry71VqpcnpJ3faIaebfbQ62sKQoWgj0nNeTv+7V4QnIOES+j+Jh/RKiWzVcRDmYvgYlcq+EHIYl9J8KlZyuJiWyL+ELzFd0xLZyu7UxpRUnT/zqe0q+MS2eeFTGmHxq/wBR/Op7TGqZ0g4RQna0n3j9p666Sc5PI4JOe8b2ppF4gbTjNTrQcFuRUEEEgjGIoWllSDobcNsus4xuHehJCgCDaCPSU15O/wC7V4QnIOES+j+Jh/RKiVzV8RDmYvgYlcq+EHIYltJ8KlZyuJiWyL+ELzFcDEtnK7tTGlHxqTp/51PaVfGJbSHhUxph8ah5R/Op7TGqZ0g4RQna0n3j9p666KZw9JLQM1lITDSb5YGrmPNX4tGd41XN0n/oXVe1rhu+kpryd/3avCE5BwiX0fxMLTfpKdsNtBu3HChfAjaIbaDZJvrbam2Q2q2+qVnK4mJbIv4QRaCNohtkIJN9bUhgIVfXxNQYAXfXxy21PaVfGJbSHhUhkIVfXxNWBF/f3xy22VKZCllV8RVM6QcIoTtaT7x+09atQSlSjkAJh10vOuunKtalfM2xLJzlfDmzDdhvxk1w24tpxDjarFoIKTEhNonZRp9PnDGNh9EOutsoU44oJSMZJj8Wo311n6xH4rRnrzP1iPxWjPXmfrEfitGevM/WI/FaM9eZ+sR+K0Z68z9Yj8Voz15n6xH4rRnrzP1iH6To5TDqROMklCvOEDIIYWgIsKgMcYRvfEYRvfEYRvfEYRvfEYRvfEYRvfEYRG+IVnK4mJdSU31pAyRhG99MYRvfEYRvfEYRvfEYRvfEYRvfEYRvfTDxBcURktiXISsknzYwje+Iwje+Iwje+Iwje+Iwje+Iwje+Iwje+mJghSwQdUUS4hqkpVxawlKSbSeEfitG+us/UI/FaM9eZ+sR+K0Z68z9Yj8Voz15n6xH4rRnrzP1iPxWjPXmfrEfitGevM/WI/FaM9eZ+sQmlKOUQBOMknIL4cyl3cFRs4v/ANRqYFjSfbzSAoEHIYUCkkHKIuVm7152UUcSumn0RTnZU53PR8r5VLe+R4wMld0i72inhvKSKm9GjgOdMp6QVtESD5lp2We1JcFvA4jA9D052VOdyptltSEkjGRGAa3YwDW7GAa3YwDW7GAa3YwDW7BZbsPRqZaQtFpGO2MA1uxgGt2MA1uxgGt2MA1uxgGt2MA1uwcphhtC76+EYBrdjANbsYBrdjANbsYBrdjANbsYBrdh1IStQGQQyhK1kKGqMA1uxgGt2MA1uxgGt2MA1uxgGt2MA1uw8hKFgJyWQ0ApxIOQxgGt2MA1uxgGt2MA1uxgGt2MA1uxgGt2H0IRe3o2xK+VS3vkfdArun7M/wD2oqTmp4DnTAtb4GDCLpZBthoKwql3gtCUwbrWfNk3DxUBH5uOqR+a4F1p9R/5wLrGdco58wYbunoxedhUd5MMUlITGimm1HZbFvoCnOypzuVM6JMLWEAEwhYWm0ZIUoITackIWlYJGqFEJBJyCEOJXbZbihWargapfR/EwpQSkk5IQtK7bNUEgAk6oQ4lZNltSHULNgtqVnK4mJbIv4QTYCdkIdQskC2pDyFmwW21B1BVe47bantIvjEtnnhUl1ClXottqwyL69x221KeQlV6bbapnSDhDOlTVhkX17jtqU6hCr0221LdSg2G2AbQDtiZ8z4xK+VS3vkfdArulTbRbh3VoNSD0EcBzndEvmWK2GLFbD8uZLUnPymimFXu6rpCKPukYfKW5pIaXveYYBt/fU52VOdypnRJiZzE96JfRjiYf0R4iJbMXxh3Rr4RLZV8BCs1XA1S+j+Jh/RKiWyL4iHNGvgYlcq+Ag5DwiX0nwqVnK4mJbIv4QvMV3TEtnK7tTGlFSdP/Kp7Sr4xLZ54VMaYfGr/AM/86ntMeIqmdIOEM6VNR8o/nU/pT8KpnOHCEZieAiZ8z4xK+VS3vkfdArpdrDUbNoGXBk/LHUwbWx7OcoWpUNogMI12mAhIyJHNKUnKkQplByWiFsqTjGMVUbTUzIWINrrO4co7sSsy3NMNvt23ixaLRYf3tOdlTncqZ0SYmcxPGJfRjiYf0R4iJbMXxh3Rr4RLZV8BCs1XA1S+j+Jh/RKiWzVcRDmYvgYlcq+EHIYl9J8KlZyuJiWyL+ELzFd0xLZyu7UxpRUnT/zqe0q+MS2eeFTGmHxq/wBR/Op7TGqZ0g4QzpU1Hyj+dT+lPwqmc8cIRmJ4CJnzPjEr5VLe+R90CtSQpKknIREwyZeYeZPmLKYllY1J+POV1TpBWbBElKqnJpphPnnpHYnXDbaW0IQkWJSAAPYP3tOdlTncqZ0SYmcxPGJfRjiYf0R4iJbMXxh3Rr4RLZV8BCs1XA1S+j+Jh/RKiWzVcRDmYvgYlcq+EHIYl9J8KlZyuJiWyL+ELzFd0xLZyu7UxpRUnT/zqe0q+MS2kPCpjTD41f6j+dT2mNUzpBwhnSpqPlH86n9KapnPHCEZieAiZ8z4xK+VS3vkfdA5l08pgpxEwB0XhYe8mEqKFBUAggEZD1zi7xNus1XMSGDZXNrHSdxI7v76nOypzuVM6JMTAJQLBrhgEN2EazDwJbIG0RLghKrQRjhzRrA2RLpIKrQRiEKzVcDVL6P4mHQS0oCJcEBVoIxiF5i+ESyVAqtBGKDkMMJUHMaSMRqVnK4mJbIv4QvGhXAxLpUFG1JGKplKg6LUkZakpVhgb02X1T2lXxiW0h4VMpUHQSk2Y6r1WHtvTZf1OpUXSQk5RVM6QcIZ0qailWHtvTZf1PJUXSQkkYqphKisWJJxQnNTwETPmfGJXyqW98j7oHMpWRE9Jus+flQdihCkqQpSFJIUk2EHUYl3PMPw5h6kkAWnJC1larflFGyKp+aQyMzOcOxMNoS2hKEixKQAB++pzsmc7lTOjRz1ZquBql9H8T1Cs5XExLZF/DqHtKvjEtnnh1EzpBwhnSp6iZ8z4xK+Vy3vkfdAyCp2YZZFrjqEDapQHjExdJRzOYsunYiJy6OeftSzYyj5rgkqJJJJOMk4yYbbU4cWTbAyAVHqSQkWk4occKz7NkNNOPOIbbSVLUbEiKKo1FHy4RlcVjWraf3d0FIzEi1L4BYSta4/MVL+sJ+gR+YqX9YT9Aj8w0t6wn6BD9NUlMMrZdeBQoWEXgqDziQADijDu70Yd3ejDu70Yd3ejDu70Yd3ejDu71SXVoFgOKMO7tjDu70Yd3ejDu70Yd3ejDu70Yd3ejLCHFotvTGHd3ow7u9GHd3ow7u9GHd3ow7u9GHd3oUoqJJOOErUg2g44w7u2MO7vRh3d6MO7vRh3d6MO7vRh3d6FLUs2qywlRSQRljDu70Yd3ejDu70Yd3ejDu70Yd3ejDu70LcUuy+OSEKKFoWnKlQI4iDTtKn/VkcEiHKRn3c+ceI70ElRtUSTtOOpLa15o+MIlxlWbfYI9gyVnqFvJGTGYUtSzaTDDDsw6lplBWs6hFEUO3R6L9din1DpK2ewfvLq1f/AJUqjY2TCQSQBlMYFz2QJdz2fOOTueyOTubBHJ3Ngjk7mwRydzYI5O5sEcnc2COTubBHJ3Ngjk7mwRydzYI5O5sEcnc2COTubBHJ3Ngjk7mwRydzYI5O5sEcnc2COTubBHJ3Ngjk7mwRydzYI5O5sEcnc2COTubBHJ3Ngjk7mwRydzYI5O5sEcnc2COTubBHJ3Ngjk7mwRydzYI5O5sEcnc2COTubBHJ3Ngjk7mwRydzYI5O5sEcnc2COTubBHJ3Ngjk7mwRydzYI5O5sEcmc9nzgSytahAlka1EwltCciRzTUtYRZbGGb2mMM3tMYdHtgzA1JMF9eoAQVFWUk1SFBzk4QpQLTW8oYzwESNHS0g3esoxnOUcp4/vbpzbSSfYyIa0iah6ZOOp5V8v2Cq0RaNsJSpZsQgq4C2GaJpJ/MlHOKuiP8xLXKzK8cw+lA2J6USdCyEmQpDN8vfX0j+/um7UPukwzpE1D0wo1LVeJJ+VVzlGtLlnH32krwh6N8NQj8PkfVGfoEJk5ROSXaHBAhKUpyJA9BXT9pj3IhrSJqGX0ua31WqCdmXjEuwuZfaYRnOKCeEMNIYabaQLEoSEjgPQt1SbJ2XO1mG89PH0ycdSlXiSYOM2mLl5LG5OL7jfoa61HkTnfEJPSB9ME6q312qvRqhhhyZeaZbz1qCRErLtyrDTKM1CQB6GupbvpBte46Kkm1INQyelCa1rvEk69VVzEhYFTqxjVib9D021hqMm07EX3046mja2n2VJ9Lurv1ewRISa52abYTkONR2JhptDTaG0CxKQAB7B6HcQFoUk5CCIcbLTjjZyoUU/I2QwcSh8ahl/aJl5hYtSw4RtCDCkqQbFJKTsIs/fE21vLsF6Mpy1UDRvIpa/cH6zuNXsGoeiafYwFKPbHAFiGTY4P2jTTjziG202rUcUSNES8qApQDju8R4QpbaM5SU8TDrLL6LxxCVpOoxSlFGU/VZtLOsbn7wmtawhNvygkkknKYueozlL/KXB+k0ej7Veirqpa1piY3FXh4KqBvgDtqT+xuelxY7MHuCLoaWXIMoaY07uvdG2HFLdUpbi1LWdajaT84oNhtijJUIVfBaAsn2qh1tDra0KFqVAgiHmyy660TmLKf3RNZIAJOSHF36rflEjJOz0yhhvitW6nbEtLtSzLbLSbEIFg9FUhLCbkn2N9Bs4xYRaCLCMRhhVqSNlQ/Y0ARyDg4qLq0qFIMq1FiqRpufo5soZWkt6kr1RJuPrk5dT+kLYKrBZjMUkQZ+aI3/3JPMdcvsQyD/MIQtxaUISVLUbEgazFEUamj5cJNhdVjcV6Mp6U5LSLhA6D3TENqvFg6tdY/YUFOBl5TCzYlzN70UnRrNJS+CWbFA2oWPNMPXOUs0spDKHBvJVFGXMuh1D09e2JNoaETs2iUYW6r4DaYUSpSlKNqiSTx/cE8x53KkfGqgKI5MkTL6f1lDENwejboZLlUipaR02emmppV8j2ioYv2MjTq2gETKSsb4ywml6OULeUpHGH6dkmwQ2S6r2RNzr045fuHupGRP7gnmOu2dFOXWaqBoa0onJlPtaQfuPo444peR5DOuNjRq6bfAw2u8UDq11pPWBSVW2H98TzHXbLUp+JqoOhcPezUyn9PKhG97T6QpyjuXSZvAMM30kVMrtF6coyVg9RxhT6BkxmFurXlyQ2u8UDq1/vMnNce1JybaqFoIvFMzNp6GVDe97TGT0jdFRvJ3+VNj9J09P2KgEggjLCXUKAxgHZVk5pWgZVCC+2MlpgzCzkAEFSlZyiapOhp6cIKWrxG+vFEjQEnKWLWMK7vK1cBFNyGAew6B0HD0vYr90TzCQBacQhx0rxDEPGNkUPQBBTMTiceVDR8Vek5hhuYZcZdTfIWLCIn5F2QmVMryZUK3k1YxF+vePzgOujzzGFcPnmL9e8Yy5TVbEvR89M6KWcI2kWD5mJa5aYXjmH0oG6jHEpQ0hKEFDIUveX0jW8y2+0ttwWpULDE5KuSb6ml8Uq3h+3yRbbzFuJR7TshS1LNpMMsuvuJaabK1nIBFE0E3J3rz1i3/8I4elaUo1qkJctqxLGNCthh9h2XdWy6i9Wk2EQkIKk31oTbjIxmyEXOF5tLrE+2tCshvTH5Ym/WWYFzE36yzCLmHjlnG/gkwi5NoZ84s8EgQ3c1RqM5Li+8uGKPkmNFLNp9tnPpCRROslBxLGNCthh1pxhxTbibFpOMftb7mEgC0nFC39SfnVR9FzVILsbF62M5w5Io+jZaj271pPSOcs5T6XpeiEUg1anovIHQV/0YdacZcW04kpWk40mKOpN6QcxdNo57f/AGIlpliaaDrK75B+YOw1pdKcuMQlQVkPU0nRqJ1u1OJ1I6J/6MLQttakLTeqScY/Y2iLeat5KcQxmFLUs4zCUqWpKUJKlE4gBaTFG3NE2Oz3waB+4w22htAQhISkCwACwD0zStEM0i3uPJzVxMyz8q8pl5BSsfIjaIlJt+TdwjK7DrByKGwxR9Ky08AnRva2yftr9oMJfUMuOErQqyw4/b1FI0Y1OotzXQOiuH2HZdxTTqL1Q/z7R11sEnmqeQnJjMLcWvLk2VSFBzk7YspLTW+rKeAiQouUkE/pI6ZyrOcfTk9R8vPtYN5PdUMqeEUjRUzR6yVi/a1ODwMC0EEYiIkboXWrG5sFxG+M8QxMMTLeEYdStO0auI5gWtORUB860/KA6g67IBByEc2ckmZxu8dTwIyiJ2jn5JRvhfN6lj/vqbRF9BJ5pUE5TZCn0+aLeMKcUvKapKh56eIKG7xvfXEhQEnJkLUMK7vK9PrQlxJSpIKTlBFoikbmcrkkbP8A1GHWnGVltxCkLGpQhp51hYcacUhe0GJS6RQsTNtX396IlpyVm02sPJX7Mih8DzgpQyKMB1zegTDllmKMOrdjD/2wpxC0lKkWg6jE5QqTauUxHW2o+ELStpZQ4gpWMoMX0WxaYJPPJAykCFPoGS0wXln2cIJtgAqUEgEqOQDGYlLnp+YsK0hlG1WdElQMjKWKKMK5vLgD+gpuRlpxF4+0FD/IieuYfaJVKLwqdxWdDjbjKyh1tSF7qhYYBIIIJB1ERL05SLFgLocTschi6WWVp2VtnanpCGaQkZjRTTZOwmw/IxYcvUvyzEyi8ebCxq2jgYmaCcTaqWcvxuKxKhxtxpV64hSFbFDmlSRlUILzY2mDMbE/OC6s+d8q5aiaQmtHLKCd5XREStyqcsy+Vf2oiVkJSUFjDCE+P9DzErLzKbx5lK0/3CJq5ZhfSlnS2d09JMTNB0nLZWL9O830oNoNhBB2HEampmZZ0T7iOCjCKdpNGV8L76QYRdNMjPlmlcCRCbp2vPk1jurhN0kgcrT4+AMC6GjN936I/H6L/wB1f0GPx+i/95f0GPx+jP8Acc+iDdFRv/uP8IN0slqZePyh66OVdSUKkCtOxZEPzbDhtZlcF7L8qgvr9kF1w+dBJOUmq0QzKzL+hYcX3Uwxc5STuelDXeMMXKS6cb7618OiIlqNkZXQyyEneyn5n+jX5SWmBY8whfeAMP3M0a5mBbXdMO3JvDQzST30w7c7SreRpC+4uF0bSDefJvfTbCkOIzm1jikiLRti0ba8W2LRti0QlDis1C1cATCJCeXmybx/gYRQdKrySihxIEN3MUkvOLSOJhu5I5XZz6UQ1cxRqM/COcVQzRdHsaOUaB4WmAAMn9KkA6oVLsKzmUHikQZCSOWUZ+gR+F0d6kx9Aj8Ko71Jn6BAo2jxkk2foECSkxklmfoEBllOa0gcBAA1D/8AhxMzstKJCn3koHtMJugolSrOU/NJAhC0uJCkqCkkYiPQr8wzLoLjziUI2qMC6Gib6zlPxvTDTrbyAttaVpOQg2j01OTKZWWefVkQkqiYmHpp5bzyr5av8ewVUBSLkrNoYKiWXTe2bFH0I4tKEKUo2BIJJifn3Z+YU84Te+YndFVEUiuQmkY/0VqAcT6ap/smb4DxrlvKZb3yPugeg6T7PnPcr8IGQVHIYZ0TfdHpgxdB2TNcE+Nct5TLe+R90D0HSfZ857lfhWckMaFvuD0wYug7JmuCfGuW8plvfI+6BkHoOk+z5z3K/Cs5IY0LfcHpgxdB2TNcE+Nct5TLe+R90DIPQdJ9nznuV+FZyQxoW+4PTBi6Dsma4J8a5bymW98j7oGQeg6T7PnPcr8KzkhjQt9wekyQMpEYVvfT84tBrMXQdkzXBPjXLeUy3vkfdAyDqS4gZVJ+cBaTkUD+xKkjKQIDre+n5xbzqT7PnPcr8KzkhjQt9wdSVJTlUAIBBxg9UVAZSIwre+n5xaOqK0jKoDjAPNtguNjz0/OApJyEHqJyflZNF8+6lOwazwETV1S8kqwAN5yHqXpJ/Pm18EdHwhS1rzlrVxJMWQlx1GNDi08FEQzTNJs5s2pQ2L6USt1WqbY/miJabl5tu/YdStPsi6Dsmb4J8a5bymW98j7oGQc1SgkEqNgGuJy6WTYtSyC8v2YkxMXRUm9muJaGxAhyamndJMOq4qNQJGQkcDDU9Os6KbdT7L6Ja6afbxPJQ8PpMSNOyE5YgLLbm4vq52lZKR0zvS3BjVEzdTMrxS7KWxvK6Rh6k6Rf0k47wBvR/iFKUrOUo8TbUh55vG284ngoiGKdpRj/AFF+NixbEndSyshM00WzvJxphl5p9AW04laDkINorpPs+c9yvwrOSGNC33BzyoJBJIAikrpUN2tSVi17/miHn3phZW86tav7jErOzUmsKYeUNqcqTxEUbPNz8qh5OI5FJ3TzpykZORFr7oB1JyqMTV1LysUswEjeXD1K0i/nzjnBJvR/iFLUvOWpXEkxZCHXW8aHXE8FEQxTdKMZJkrGxfSiUupbOKbZKP70YxDEwxMthbLiVpOtJ51O0uuTAYY0yxaTuiHHHHVFTrilqOtRtiSpObkVgtOEo1tk9ExJzTc3Ltvt5qxDrrTKCtxaUIGVRNgicuoYbtTKtl07xxJh+nqUfOnwY2NiyFvPuG1x5xR9qiagSnIpQ4GGp+eZ0c28P5EiJS6ecaIEwhLydo6Kokp+Wnm8Iwu3eByjiOZSl0YaKmZOxS9bmoQ4446suOLUtZyqUeoYfel3A4y4ptY1iH6dE7Rkyw+Al8gWHUquW8plvfI+6BkHMpGkpaj27509I5qBlMT9KzdIKOEVet6m05Pj1NG09MyZDbxLrP8AyTEtMsTTKXWVhSDz1rQ2kqUQABaSYpS6NayWpIlKNbu3uwSVKKiSScZJxk9RKzkzJuX7DpTtGo8RFFU2xPgIV0H9yqk+z5z3K/Cs5IY0LfcHOn6UlZBFrq+kc1AzjFI0xNT5KVEoZ1Ng+PMuTJvZ3dvkcwqABJNgilLpMrMieLv/AMha1OLUtaipRyqJtJ6iXmn5RwOsOFCv8HiIoqnmZ29ZeAbf/wAK4c2nFFVLTduogf4roymW6Po1SLL90uqvURNzszOuX77hVsT5o4DqJCbck5tp5JsFtixtTUYpumy+VysquxvIte9A62W8plvfI+6BqrpWk2qOZtznFZiIffemXlvPLKlq6uj6Rfo97CNm1Jz0alRJzbM6wh5k2pP+DsPNWtDaFLWQEpFpJ1CKYphyfWW2yUy4P19WlSkKSpKiFJNoIygxQ86Z6RadVn5q+8IpPs+c9yvwrOSGNC33BzFrShJUpQSkZSYpK6XK1I/F0/8AQha1uLUtaypSsqibTzGWXZhwNstlazqEUPR34fKhCiC4o3yzWVBIJJsEU1TSpwqYYVYwMp3+r2RQdOYYplZpX6vmL3+ZTfas53h4DrJZhczMMsoyrUBVdFShaHI2VdNQtcOxPMZYemHA2y2VrOoRKXLLICpt7+DcNUDRTQ8lSrv44/C6N9SZ+gQ9QFFujycI7hIicuXeQCqVdvxuLhxtxpam3EKQsZUkc2W8plvfI+6BkFU5NNScu4+4eikRNzTs2+t909JWQbo2DmSNBTs4AsjBN7ysvyhi5mjmtIFun+4wmiaNRkk2fphdD0YvLJNfAWRM3LSiwSw4tpX1CJ6i5yQJwzfQ30408yiaSVR8yCSSys2OD/uELC0hSTaCLRzLoaULzhk2lfpo0h3js5krJzM4u8YaKyMp1DiYlblWwAZp8qO6iG6EopvJJtnvdLxg0VRpGOSZ+gQ/c7RjoxMls7UGJ25ubYBWwcMj5LgggkEEEYiDqruYbKKOtPnuKUIpPs+c9yvwrOSGNC33BXSNLysgOmq+c1NpyxP0pNz6v1VXrepsZObRtBzU7YtYLTO8cp4CJKQlpJu8Ybs2nWePMujpUkmRZPvSPt5ktKzE25g2GitX+BxMSty2RU09/BuGqCotsYpVJ72ODRVG+pM/QIeueot3IwUdwkROXMTLQKpVzCjdViVCkLQpSFpKVg40kWEV7CCQRFBUpy5godIw7ed7RvV032rOd4eA5qUqWpKUpJUTYABaTElc1NPALmF4FO7lVDNztFtDGyXO+SYFFUaBikmfoEOUJRbmWTbHd6PhEzcqwq0yzykHYrpCBcxSRVYVMgbbTFF0KzRwKySt4jGsxPTaJOVdfVkQn5nUIccW84txw2rWoqJro6jnqQfvEYkDPXsiSkZaRaDbKLBrOsnaedSFGy1IN3ribFDNWMoidkn5F8sujuqGRQ28yW8plvfI+6Bqqukny/NCWQegzne1dYBJAAJJNgA1xQ9AoYCH5oBT2UJ1I5y0JWkpUkEEWEGKZoLk4VMyqf0vPb3faOZcxP4Rlcos9JrGju101P8AIZJa0n9RfQRxPMoih3KQXhF2plwcZ3oYl2pZpLTTYSgahzqUoRifBWn9N/fh2gqUaVZya/8AagxI3Nzby0maGCa1gHpGGm0NIShCQlCQAANQik+z5z3K/Cs5IZ0TfdEOuttIK3FhKRlJNgikrpVLtaksQ1ukfaIUpSlFSlEqJtJOMnmS8s/NOhphsrV4cTFG3Osy967M2Ou7PNHNpSdEjJuvedkQNqjClKUpSlG+USSSdZroqiXaRc3GE5y/+hEtKMSjQaYbCUjnUlRUtSCLFi9cGa4MoialXpR9TLwsUMh1KG0VyU2uSmWn0+aekNqdYhtxDraFoNqVAEGqm+1ZzvDwHMl5d6aeQyykqWqKLodij0A57xHSc6i6qaxsSo76q2WXH3W2WxatarBEhJNSMshlvVlO09RStHopCVLeIOJxoVsVCkqQtSFJIUkkEHUa5bymW98j7oGQROTIlZV985EIJhS1LUpSiSpRJJ9prubowE8udT7oH7uoItinKN5DM3zY/RdzfYd2ujpoyk9LvagqxXdOIwKrpJrDT+CGaymz+Rro+SXPzSGBiTlWdiYZZbYaQ22kJQkWADq6T7PnPcr8KzkMTlNSsgyhB6b14LGxE7SM1PrteX0RkQM0c2jbn5mbscftaa/5qiVlJeTbDbDYSnnXUTV/NNSwyNpvjxVXJSjk7MtMI87Kd1OsxLyzUsyhlpNiEiwDqKXo1M/LEAAOptLaoIKSQQQoGwg6jXcxNF2SUyrKyqz+JqpvtWc7w8BzKCo0SUuFrH6zgBX7PZ1NMvF6k5pW6q8+mu5aUv3XppQzegjqrppQMziH0jovDH3hXLeUy3vkfdAyCLqHryQS1rccA+ArYZVMPtMpyuLCfnDLSGWm2kCxKEgDgOppeT5ZIvN+eE3yO8OZRT2Ho+VcOUti2FEAEmH3S8+86fPWVfM13MSgak1PkdN4/wDEdZSfZ857lfh1ErKPzjuCYRarKdgG0xRlAS8nY67Y69tORPDnmKQew89NO7XT8hirucckpZDz78y0hxZsAKgCEiPxajPXWfqEfi1Geus/UI/FqM9dZ+oR+LUZ66z9Qj8Woz11n6hH4tRnrrP1CPxajPXWfqEfi1Geus/UI/FqM9dZ+oRTgljPF2XdQtLgtN6ciq7mHrykVN6nGvCqm+1ZzvDwFdBygmqRaChahrpq6p1ZW66s+ctR+ZrufaDVFS/99q/mequnaC6Ov9xxJrlvKZb3yPugaoutX05JHfNdzbQcpRB3G1K6udaDM7NNjIl1QFdzK76i0DdcWIn14OSml7GVn/EDIKjkMSbQZlZdsZEtpHyHWUn2fOe5X4dRLvuyzqHmVlK0mKMpJqkGAtOJYxLTsPPeVeNOK2JJi20W7f2FDLvKUkz/AH2fMVU32rOd4eAruTaF5Nu7VBPW0N2XJe6T1V0PZM1/H7q5XymW98jxgZBF1nlMr7pVdynl73uerpjtSd95Xct2ev36opbs2d9yqvWOMJzRw6yk+z5z3K/DmychNzqiGGr4DKo4hCkqQpSVJIUk2EHKDXJzj0k+l5o95OpQ2GJGdZnpdLzRxHKNYOw86b8lmPdq8IGQfsKKSVUnJAf7oqpvtWc7w8BXcp5C9789U+jBvvI3XFD/ADXc49haMaTrbKkdVdS6ESCG9bjo/wAV0ajCUhJJ/wDck/Kq61HkTnfFdzz2CpRob6SjqiQAYmncPNTDupbqjXcyi9otB3lrMTqMJJzKN5pQ/wAQMgqMUe8H5KWd3m0nrKT7PnPcr8OZRtza3b12c6KdTQhpptlCW20BKALAkCKdoblIMywn9cZyd8cyjaRdo9/CIxoOkRtES0w1MsoeaXfIUMXNdSFtrTtSRF6Ukg6jZX8DFh2GLDsMWHYYsOwxYdhiw7DFh2GLDsMWHYYsOwxYdhhtp11QS20tSjqCSYoKhlyp5TMaUixKd0VU32rOd4eAruU8ge9+eqpxnA0pMDUshY/lXcxOBmacl1Hou4094dVdDOCZnsGk9BkXv8tddzbGFpNK9TSCr54qrpmMJRxWMrSwqttxbTjbqDYpCgocREpMNzUu0+jNWkHqaeneSSDlhscc6CK8kUaxyeQlWtaWxbxgxNsmXmphnccIHCu5ecCmXJRRxtm+T3T1lJ9nznuV+FZyQxoW+4K6foY9Kclk+11A8eZRFKro96xRJYXnp3faIbcQ6hK0KCkqFoI5tKMlikZtvVhCocFY67l5zTSau+iL1O6IvU7BF6nYIvU7BF6nYIvU7BF6nYIvU7BF6nYIvU7BF6nYIAGyum+1ZzvDwFdynkD3vz1V1UoVNsTSRmG8VwNaVqQtKkKIUkggjUYoqkkUhLhWRxOJxOw9RTdKCRYvEEYdwWI/+8y5iULcot8jG8rF3RVMMpfYdaXmrSUn4w62tlxbS85Cik8RXc9SglnOSuqsacPQO6rqHFoaQpa1BKUi0k6hFK0gqkJouDRJxNiuiZUzk+w3Z0Qb9fBMCq6iULc23MjNdFh4prlJl2UmGn285BybRsiTm2ZyXQ80eir/AAdh6uk+z5z3K/Cs5IY0LfcHMp6huTqVNS6f0jnp3eZQlMGSWGHj+go5dwwCCAQeZdVKELZmh3FVsPOS7zbzZsWhVoiQnmp+XS82e8nWlXXU32rOd4eAruU8ge9+eqmWG5lh1lwWpWkpMTMu5KPusOZyD8xqNcrNvybyXmVWKGUaiNhijaYlqQSADeO62zzqUpxiRCkIIcf3Nneh996ZdW88sqWrKa5KUXOzTbCdecdidZhptDTaG0ABKQABXdNIXjiZxA6Kui5zKIugwQSxOKJTkS7s70IWlaQpCgUkYiObMTLEq2XHnAhA1mKXplykFYNAKGBq1q48y5yQMvLF9Ysce/wiulJET0m4z52VB2KEKQpClJWClSSQoHUa6OpJ+j3b9HSQc9GoxI0jKzzd+yvvJOcnjzqVuhbYtZlClbutXmph2kJ91V8ubdJ7xA+QiRp6dlVjCuF5rWlWdDLrbzSHWyChYBBik+z5z3K/Cs5IY0LfcHMUkKSQoWgjHFNUQqQcwrSTydZ+g8ygKYwJTKTCuhkaWft5k9KInJZ1heRSfkdsOtOMuLacFi0KKVVyM+/IPYVo95ByKEUfSkrPotaVYsZyDnDnUrTrEna01Y4/s1J70O0rSTyipU25wSb0f4iSp+elljCrLzesKyww82+0h1tQKFi0HmU32rOd4eAruU8ge9+erp6iuWNB5kfrtj6hs5gJBBBIIyEYiIlLo55gBLtjyfbiVDV1MirSNuoPzj8y0V/ur+gw7dVJp0TLq/kmJu6CkJm1KVBlGxGX58wAqUEpBKibABlJihaLEgwSvTuWFf8A85j7Lb7TjTiQUKBBEUjIO0fMqaVjScaF7w5kpSM5JH9B0hO4caYYurTkmJY8UGBdNRZ89wcUGF3T0YnIXVcExM3VPKBEtLhP9y4mJl+aXhH3VLV7dXAcyg6KM68HnE/oNn6zAxDmXRUSVWzrCfepHjzG3FtLC21qQsZFJNhiVunm2rA+2l0bc1UN3U0crPS6jimDdLRX+4v6DD91cuNBLuL73RidpqenQUqcvG9xHMuaUVUW2DqWsCKT7PnPcr8KzkhjQt9wc11pt5tTbiQpChYQchilaLXR72ssrzFf9HmUBTOEvZSZX0//ABr3uZdDRJmEcqYTa6gdIbyeYla0KStKilQyEGwiJS6WdZsS8lLyfkqGrqZBWkbdRH5lor/dX9Bh66qUTomXV/4icp+fmgUpUGUbEZfnzLl1k0aUnzXVAcym+1ZzvDwFdynkD3vz1lN0GXiqalUjC5Vo34yEjX1SUqWpKUpKlE2ADGSYoWg+SgTEwAX9Q3OdPSDE+wWnR7Uq1pO0RPSMxIPYJ4d1YyKHV0TRDtILvlWpYBxq3vYIZZbYbS22gJQkWADnU1QSmSuZlU2t5Vo3faOrYYdmXUMsovnFZBEhKJk5VlhJzE4ztMUl2fOe4X4VnJDGib7g501LMzbC2XUWpUIpCQdo+YLS8aTjQveFYJBBGIjIYoKkFT0p+ppWzer5lN0EbVTUojvtjxHVtoW4tLbaSpajYkCKLkuQyTTJNq8q+8eZTfas53h4Cu5TyB33562lKCYnbXW7G397UrjE1JzMmu8fbKdh808D1ElR03PLsYb6OtZzRFGUNLyAv897Ws+A6ialWJtotPthSDFI3PzUoStgF5r/AJjqEJUtQQhJUo5EgWkxRlzSlkOz2Iamv/sIbQ2kIQkJSBiAFgHUUpc62+S9KWId1o81UPsPyzhbfaUhew9RIUROT5BSkoa31DwiQo2Wo9u9aT0jnLOU1TyFOSc0hOcppQHygZKkoK1JQkWqUoAcTDab1CRsSBz5+RZn2FMujuq1pO0RNyr0m+tl0YxkOpQ2iu5NtQbm3NRWkDm0pc+1NlTzBDbx+lUTMrMSjmDmGihX+DwPUSNGTk+oYJFiNbis2KNomWo9PQF84c5w5TzaeQpFKzNvnXpFdy6Cmj1KPnOqI651pt1BQ4hKknKCLREzcxJu2qYWpk/NMPXNUi1mYNwew2Q9KTDBsdavfiD4VMyM2/omir4pEM3M0gvSKaaH1GJW5qRZ6Ttryv7sSYQhKEhKUgJGQAWDq5yhpGdJK2QHN9GIw/cq+m0sTCVexcP0TSEvpGB8FCFJUnOFkIbW5mJthigqSfFoaSkbVLES9ymuZmf4txKUfKSabGGUp2nWeJ6t+WYmUFDzSVp2KETVyrC8cs8ps7qukIeudpNrIhtwf2q/+w7LvMkhxF78QfCpijZ2YIDTNvFQhi5edXpnW2x9RiUuekJaxRRhV7VwBZzKYoFzCOTEoAUnGtuEtrUvBgdPZFC0CphaZqasvxmI3eppSjGaRYKSb1xOYvZE3IzMm5ePIHEEEGJCiZqfIvLEt61mJOVak2G2Gh0E855hl9BQ62laTlChbE1cvKrxy7qmju5yYfucpJrNDbg2hUOyz7BIcbvfiD4VMUfOTGiZt/kmGbmJ9elW22PqMSlzcgx0nAXlf35ICQhIAAAHOpiiU0i2lSFBL6M0/wDRiYlX5VwtvIvVD2gxRtCTM8oLVYhnWq0Ewyy2w0hptNiEpAA6r//EADURAAIBAwEECQQBBAIDAAAAAAECAwAEETEQIVFxEhQgMjNAQVJhEyIwgVAjQmKRQ3JTcKH/2gAIAQIBAT8A8xY+I3LszeFJyP8AG2PiNy7MvhScj/G2PiNy7MvhScj/ABtj4jcuzL4UnI/wlpEknT6S5xXVYPYK6rB7BXVYPYK6rB7BXVYPYK6rB7BXVYPYK6rB7BSQxocquD2ZvCk5H+EsNJPzS+FJyP4LSDpkuwyvpU9njLR/683YaSfml8KTke2iF3VeNIoRQoG4bLq2Dgug3+o81YaSfml8KTke3Yply3Adi8h6D9MDcdfKIvSZRxIFdQT3muoJ7zXUE95rqCe81DAIelgk5/MyhlYcRiuoJ7zXUE95rqCe811BPeauIRCVAJOdliP6bHiexOgeJh6+Ui8ROY8xf95Nlj4R59nqcPqCa6rb+2jZQHiKewP9j/o08bxnDLj88XiJzHlPTsX/AHk2WLd9f32CewCalVGQ9MbqOpxp+aLxE5jzF/3k2QSfTlU+mhoYIyNhOOyBmr2UACMa+v5UQuwUamuozcVpLOVXUkjAIPmLm3eZlwQMcaWwP9z/AOhSWkKenSPztJ7AWp50hXGregpmLEknJP5bMZnHwDROKHp5wnFAZroisLTTQpq4qW+J3Rrj5NEliSTkn81n436NNS6ecJzWQqljUkrO7NkgE0SePkbQ4nWmpfXzZNAZq8l6KBBqfJwnoyofkU1Lr5onGwkIpY6CpZDI7MfKI3TjU8R+IkAEk7hT3wBIRMjiahu1kIVh0SfzE42KKvJsn6YOmvlbJ+lGV9QaNKfwXhIhPyQKFbwajOUQnUgfkJxRJNAZq4mESYHeOla+VtpPpyjgdxph60D+CWMSIVNPBNGcdAn5AqG2kdgXGF+aAAGPxk4onNAZqWRYUyf1UjtIxZjvPl7aUSR4PeG40d1A9nIoH8xIGwDNSSJCmSallaVsn9DzEMpicN6etAh1DKcg7A1ZrNPPGmripLz2L+zUdw6yByc8aVgyhgcg/kLbAM1LOkI4n0FSSPI2WPmra4MZ6LH7TUyuy9KNv1RuZwSCcEUbqb300kjauT2La4+meix+00CCMj8PSrOaxmgAN5qa8Ayse88aJLEknJPnILlovtbetPFFcL0lO/0IqSGSI/cN3EdqC5aL7W3rSOrgFTkHsZ+a6VdI7AKC1JcxR5GcngKluJJdTgcB5+OV4zlTUd3HIOi+4/Ohp7OJ96HB+Ke0mTQZHxRVhqCOfYjleM5VsVHeK3e3Gg2RkGt+zB4V0fmiUTeSAPmnvY17gyakuZZNTgcB/BpLJH3WIpL5tHTPyKF1A/e3cxXRtH9tdUtzoD+jXUoeLV1KHi1Cyg+T+6WOGPQ4/dGaBdXFG8gHqTyFNf8Atj/2ae7mb+7HKiSd5OT/ABOSPWum3uNdN/cay3H/ANDAZIHqaSxXo/cxz8VNCYn6JOeB8lBAZmO/AGtS2QCkoxyPQ+di8SP/ALDZf96Pl5Kw0fnR0o6nzkXiR/8AYbL/AL0fI+SsO6/OjpR1PmsHZF4kf/YbL/vR8j2cH8OD2LDuvzo6UdT+LB/CM9iON5GwozUVnGvf3mgirooHIVgU9vE43oOYo2jRyIy71yNl/wB6PkdgUsQAMk1FZDcZD+hSxRp3UArAp4Y37yCpbLGTGc/BojB039iGzZgC5wOFJBEmiCsCmjjbVQf1UtkpGUODwpkZCQwwasO6/OjpR1O2G3kl+F4mooI4huG/jV5EvQLgYI2w2bPgucDhSQRJogrApo0bVQf1UtkhGUODToyHDDB2WsYklwwyAM0yIy9EgEcKFmzO2/Cg60ltCn9uTxNBQKKqdQDU1ojAlBhvio4zI4UVHEsShVFEgDJ3CnvIV0yeVC+j9UIqOaOTuttv+9HyNAEkAamre3ES8WOp2SXUSbulk8BXXk9hqO5ik0bB4HZdW4cFlH3Dba24AEjDedBsknij1bfwrryew0l3E+7un52Xqr9NT6g1Yd1+dHSjqaVWYgKMmoLMDfJvPCgABgU8iRjLHFXFyZftAwuy0t9JGHIbJJ4o+82/hRv09hpLyJvg/NAgjIqaFZVwdfQ06FGKkbxVj4jctskqRjLNijfR+ik0t7ETg5FS3Uaoei2W9MVZRhU6Z1NEgAk6Cri4aViAcKNBtBKkEHBFW0/1V394a7L/AL0fI1ZRBnLn002XVySTGhwBqexaXBb7HPI7LuMJLkaNvq3j+pKB6DeaFXVx9P7V1P8A8FHedsdzLGMA5HzUszykFj+hVh3X50dKjtnlOdF41HCkQwo/eya7VMhN7U7tIcscnZBH9SVR6amgABgVdXH0x0V7xokk5JydttcNGQrHKmgQRV7HlQ/qNxqx8RuWy4m+kn+R0pmZiSTknsIvRRRwAq8crDzOOzbOUmXgd2y/70fI1ZjEI+cmpW6MbtwHZUlWBGopT0lB41fL/TU8DVgviNRqVy8jMfU9qw7r8+xeGYAYP2HXHYsV+5zw2SWayOWLnJrqKe811FPea6invNdRT3mkToIFznFTjMTj4NWPiNy2XblpiPQbuyCCMir4f01PA9mEZljHyNl8fvTlVp4CVcDML8u1GMRoPUAVe+EOdWB+1x80dKYYYjtWHdfnsmvFXcm88ahmEq5G4+oplDAgjINXEBib/E6HbYf8mzNZFZFZFZFZFXEqJGwJ3kYAqx8RuWyfxpOfZtn6cKfG6pYxIjLTKVYgjBHYsojkyEfA2XT9OZuA3VYvlWT1BzRAIwamiMUhB09OxbRGSQbvtG87L58lE4bzVk/RkK8Rsu4ij9MD7W7Vh3X50dKOpqORo2DCopFlQMKdFkUqRkGpoWifB09Dss3Cy4OhGy8iKv0xodayayayayaydlj4jctk/jPz7NpN9N8E/adk9ukvw3GntZl/tyPihBMdIzUVkcgyH9CgAoAG4CriYRJ/kdNkUhikDf7pGDqGByDUsSSjDCpLOVe79wr6E3/jNR2cjEdP7RSRrGoVRgCpJBGhYmpHMjsx1NKSpBGoqGVZUDDX1FMiupDDINS2TjJTeOBr6E3sNJaTNqMD5qK3jjGmTxNXkKBQ6jBzg4qw7r86OlHU7IZmifOoOopHV1DKcg1LEsqFTUkbRsVNAkEEaioJVlQH19aZQylWGQalsmBJjORwNfQm9hpLWZtVwPmoraOMadI8TV5CiqHUYOd+Nlj4jctk/jPz7VvddDCPp6GgwYAqcg9ia5SLI1bhTu0jFmOTtguGhONVPpSSJIMqc9iSZIxlj+qmnaVuAGg2xStE2R+xUU6Sjcd/DsO6oCWOBVzcfVIAGFFWGj8xR0NHU7becxNv7p1oMGAIOQavVUxZOoxjZHI0bZU1FcJKNcNw7DOqAljgVc3H1cKvdGyx8U8tk/ivz7aSOh+1iKt7iR+9ipGKqSAKe5mbd0scu0rMpyrEVBcyswUkEUTuqW6myQCAKJLHJPZyQd1R3MwwOlmlORU9zKrYXApndzlmJ2QSOjjonWryR1VQDuOvZspH6XQzuq8kcyFSdw2g431HdTDA6WR80pyBVxcSI2FwKZ3c/cxO1WZGBU4NSzOIA41Nans//8QANhEAAQMCAggDCQEAAgMBAAAAAQACAwQRMTIFEBITIUFRcSAzgRQVIjBAQlJTYVAjQ2JwkaH/2gAIAQMBAT8A+o0h5Te6LgFtt6rbb1W23qoPNj7j/N0h5Te6fmTgAnNAt/U5oAH9VN5kXcf5ukPKb3T8yfiE/wC3sn4NVN5kXcf5ukPKb3T8ycbpzr24YIm4H8VN5kXcf4lbNJHsbDrXXtk/7F7ZP+xe2T/sXtk/7F7XP+a9sn/YvbJ/2L2yf9ifPLILOfcIhvNWYrMVmKDzY+4/xNI/YjxcQiDeyIIKIsU7KUG3BKAuD/EBe/8AEzEp+ZEEIgiyIIt/VTeZF3HyKyoLLMabHmoK29myY9UPqtI/Yvv9Uc6fmT8ydlKbkcm4OTPuTMSn5k/EJ/29k7BqpvMi7jxyP2GOd0UshcXOJ4lNf1VJVFpDHngcD9VpH7Ec/qifivyTiC5OIJTspQI2SmkWcmkC6ZiU/MnEEhOINk4ghqpvMi7jx177Ma3qU88dTHclRTbbNgniPpHu2WOPQXXvB/4Be8JP1he8JP1he8JP1hT1Bn2btAsiwE4rYHVbA6rYCIuFsDqtgLYCDQEWgrYC2B1WwOqjcWOacbL3hJ+AXvCT9YXvCT9YXvGT8AqaczBxLQLatIH/AJGjoE7E66aTYkY7/wC/SS+W/sU8kK7sbmyu7qbK7upsmEkFOLtogFXd1V3A4q7gcSnZVd39V3dSru6lMJJxTyQeBV3DmUS4cyru6lDL6K7jzKBceZQLicU0naFytH5ZO+qv84dkcTrjJsvbZrAAgL22o/NCunHMFM0gPvZ6hRyMkF2uv8+Xy39ipMF/1r7ChkKjwK+/1Rzp+ZPzJ2UpuRybg5M+5MxKfmT8Qn/b2TsGoZPRM+7so8x7JmZNzLR+WTvq0gzI70ThZx1s4Dwwuka9uwbEoXsL4/Ol8t/YqTBfYvsKGQqPAo5/VHOnZk/MnZSm5HJuDkz7kzEp+ZPxCfy7J2DUMnomc+yZiUzMm5lo/K/vqqI95E4c8QpGn1GpoufFQw3JkI4DD5sjxG0uOAXt8PRyfXQuY4WdcghOF1uyt2VuymttdFhJK3ZW7K2CiLhbBW7K2CmtIunNJK2Ct2VuyrcLLdlbsrdlNYQVS1DIWuDgTdO0gPtYpKyZ/OwTpPU6miw8NPTumPRoxKa0MaGgWA+bWm0B/pGovIK3hW8K3hW8K3hW8K3hW8K3hW8K3hW8K3hW8K3hW8K3hW8K3hW8K3hW8K3hW25bbuqudTRfVZBp6JlPM/BhUVABYyG/8Ca0NAAFh86u8j11Px+sAsmtJIHMqKFjGNBaCQEGgYD6GsF4H6n8vq2N56qGLaftnAfRzt2onj+HU/D6povqYwucAMSoYxHG1o9foyLhSt2ZHt6FH5IBJAAuSotGOLQZH2J5BVFA+EFzXbTRj84AlDhqooLDeOHb6Wuj2ZA7kRqcOPyNHta6oF+QJCOK4EWIUoDZHgYAkfMAugLaqWAyvuR8IxQAAAGH0tVFvIj1HEanC4+RDKYpGvHJR1UErQdsA9CbKorYo2EMddx6Ikk3PywLoC2qGF0rg0epUcbY2hrR9PVw7uQ8OB4jU4eENJTm27fODSeyAA1QxOlcGtHqoYWxN2R6n6ieISsLefIp7CxxaRYhbKMf9Wx/UGBR00r8sZt1UWj8DI70CmpY3wljWgEYJ7HMcWuFiPmNZ11wU75j0bzKiiZE3ZaPqqqmEg2mj4goTG1+zKz1Qo6cgEC4KFHTj7E2KJuDAPBW0glbtsHxhEEEgjj8kM6oADUASbBQURdZ0nAdE1oaAALAfWVNK2UbTeDlHNNTO2XDh0KinjlHB3HofFVUTZgXN4PT2PjcWvbYjwWPRBh7IMHgipJZLcLDqVDTRxYC56n6+SGOUWcFJRyxnajNwFHWyxmzxcf1MrIX87H+oOa7Agj+eCanimFnt9VNo97Llg2mosANi3ivTwNY5xs1pJUdDI7MdkKKlhj+256n/DfDHJmYCn6Pacjrfwo0lQzL/wDhW3WR/kvbKkY29Qvb5+gXt8/4tRrp/wCBPkmmzNv6IU8xwjKbQznkB3TdH/k9Mo4W/bfug1reAAHb/JsDyWwz8At2z8Ag1vQf+hibAnkE/SDtr4WiygmEzNoCx5j6KoqBC0cycAoq8l4D2gA8x9bN5T+x1aPyv7/RaQzM7JuITco+sm8p/Y6tHZX9x9FpDMzsm4hNyj6q41TeU/sdWjsr+48Nx8m48GkMzOybiE3KPlXHivruFfXJKyIXcVLXSOycAnSPdi4lBzhzTKqZmDyR0KFYySN7XCzrHVo7K/uNTnBoJJsApq84Rj1KdNK/M8q56pk8rMryoa69hIPUIEEXBuPBNWtZcRi56p9RM/F5Vz1TZZG5XkKKvcLCQXHVMe17Q5puFpDMzsm4hNyjXNUxxc7u6BS1Ekp4nh0CopniQMJuDrnrWsuGC56p9RM/F59Fc9U2WRuV5Cir3tsJBcdUyRsjQ5puNVXI6OK7TYk2QkeHbQcb9Ua1jY283EYKSrmf91h0CLnHEoPcMHEeqgrHtIDzdqlkEbC4qWV0ri5xQBJsBcplDM7GwR0fJ+YKkgkjzN9dejsr+4RIAJOAVTUGV1hwaMNUdJNIL2sP6vd7/wAwpKWaPiW3HUaqSpMbgxx+E66ypJJjYeAxOqOnllyt4dSvd7/zCkopmcbXH8RFiqBzt4RyIWkMzOybiE3KE5zWAlxsFPWk3bHwHVEkm5xUcb5DZrblU1KIfiJu7VWVOMbD3OqOnllyt4dUNHyfmE+imZxsCEQQbFQTOhdcYcwmPD2hwPArSHlN7644ZJD8LUNHyc3gJ1BK3AgqGjkc8bTbDndV0pc/YB4BAEkAYlU1O2JoJF3HE63Na4EEXBVVAYXXGU4atHZX9wq6XZYGDE46qSmAAkeLk4DwVlMG/wDIwdxqo5duKxxCqZN3E48zwCvdUlNvDtuHAIADXLSxSm5Fj/FDBHCPhHqVpDMzshiFLVRxNAHF1sFLO+U3cfTVBRvfYv4NUcbIxZotqqJd3E488AiSTdUlNvDtOyhAAAACw11VM2Rpc0WcEQQVQS8TGe4WkPKb31U0BmfbkMU1jWABosB4JHF73HqVQsDpr9Bfw1TNuF3UcdWjsr+4Va685HRQt25GN6lAADwPaHNIOBCe3ZcR0Wjyd44ciFpB2RqGKiaGRsb0Hi0hmZ28FCISTcfGML+DSDrNYNUda6NgaGCwXvGT8AveMn4Be8ZPwC94SfgFI/beXWtdU52ZmH+qv8pvfVRM2YQeZ4+EixK0ebSOHUeGc2hf2OrR4+B/dVnnvVMbTs7+KU3keepKoPOPZaQHxMP8TcQmm7WnxaQzM7aoKIvF38B0U8DoXWOHIprixwINiFTVAmb/AOQxGvSAyarHorHorHorHorHorHoqaF75G2HAG5Kr/Kb31U3kR9vDVM2Jn9DxChkMcjXJrg9ocDcHwV0wsIwe+qkZsQt6niq9hD2v5EWQJBBGIUEoljB58/BVTCOMi/xHgNWj2cHPVdGXRB3Q6qKYPZsE8R4tIZmdk3EJuUKWJsrS1ylidE8tco3ujcHNNiFBM2ZgIx5jVWs2or9DqopQ9mwcRgrBWCsFYKw1aQ8pvfVTeTH28NZBvGXA4hEEKCpfDwxb0TKuF33W7o1EIHmBTVwsRGPUokuJJNyVSwGV4/EYoCwU0QljLefJPY5ji0ixChmfE67T6KOtifmOyVv4f2BS10bcnEqSR0ji5xUUZkeGhRsEbGtHJOaHNIOBU8RieWnDkmPcxwc02IUNc08JBY9V7RD+wKSshZgbn+KWpkkONh0CoZnucWONxa4WkMzOybiE3KNU8LZmW5jAqSN0bi1wsVDK6JwcFFI2Voc1OAcCDgVUQmF5HI4JrnMcCDYhRVzTYSCx6hCohP/AGBPrIWYOuf4paqSQ42HQKine5xY43FrjVpDym99VN5MfbxVNJt3fHjzCc1zTYix8EFK+UgkWb1UcbY2hrRrqKZswvg4c1JE+M2c3wRQSSmzR6qCBsLeHFxxOuaFkrbO9CpqeSI8RcdfAyN7zZrblUtNuQSTdxWkczOybmCbgNdTTiZvRwwTmlpIIsQqF7hLsjAjjqliZK0tcFNTSRHC7eo8DGOeQGi5VLTboFzsx1V/lDvqpvJZ28b4o5MzQVUU8bMt1G0OdYqKlhbY7F+6w8JY14Ic0FVFLE0XAKsLqCkhIBIJKDQ0WA8NgRYhTUsNiQ2ycACqemieLkFMYxgs1oGqoja+PiFQxsc8kjDw10bLbduKoo2CPaA46yAeCmpYSCdmyeACqemieLuumxsjHwtA1vY17CHC4UMLHTlpwQFuHh//2Q==;" parent="1" vertex="1">
          <mxGeometry x="630" y="87" width="124.29" height="103" as="geometry" />
        </mxCell>
        <mxCell id="fqFbejuKPqkzXvjR6cZn-3" value="" style="shape=image;verticalLabelPosition=bottom;labelBackgroundColor=default;verticalAlign=top;aspect=fixed;imageAspect=0;image=data:image/png,iVBORw0KGgoAAAANSUhEUgAAArwAAAQ4CAYAAADrSw+3AAAACXBIWXMAAAsTAAALEwEAmpwYAAAgAElEQVR4nOzde5Rc1Xn3+WdXVXe11Lp0I4FsBKiFL7JsCal9AbUdI4RtEXvesQVOcF5nDUjMJGveFSdcZuzEt1ctvGIn8cRAwozt/GFJJBN7MoBwZgyeSYyE3xlHNh7UJATfrRIgsLh169Kt7q6qs2ftkgq3mr7U5Zyz99n7+1lLCyFLVdunhPTTo2c/jwgAAAAAAAAAAAAAAAAAAAAAAAAAADFRzXznZ97Rt1HystF8XYuU5vq+hTn+99ceLM35YwEAAIBUA++zA5feHIkeFJEeSdBMIVopGREtI+d8m8iIKHXOt0VRdGTqv+eVDEdajs/22qoqI/n8mdcd75KR1QdK57weAAAALNNaZOjxHhnr2CYS9dW+TanDosqPyEB/KbbAe/Sdl+7UuhZ2gzE1HKtzv/5K0K6FaR2NTP0+kZIRdTacTw3UVLQBAACadPBnpix5s0QyKEpNL7pqEbVLBt6yq+3AG2LYTdiINqF5Skiuh+jpAXpqeK63hxCcAQBAEH74EyXlytdE9PZ5vuchGVj31pYD7+Gr+noKE+qQEjlTPoZzFehXQrNSpXpgrrdyvPJ9qjJS7pYSLRsAAMCzsHtGpHfJu9YPthR4nxro25YTta+FY8LxCvNMQXlqVdlUlOlrBgAAqTt0WGRybFAivbOJHzUsXeVLpb9/1vtYhdn+B6VlY3MzHJABPerMxcNa1V5rfeYjVmc+6Fzt6yJVEemYEHlmYHWtmnxOQI6iI1OryFSQAQCAxbBr9MhofpuI7Gk68ALG2ZaWXwdkpSQ6+z/UYnJh7nBs/p1gDAAAEgq7hhKl5mzBnavCO0KFF+2G47PfPmMwNhf2IlFH8hIdrogcqbdTcDkPAICAHGor7DZk1sBbXiB7OibkjqTeGOGqB2Nd+7qWSNQ57RSvCsVaP27aKKpaHjctFBc9Whqy/f8BAABkI+wac3bpPj3Qd6cSdXOSBwBaZBrThwjEAABk1KEYw+48kxrm7OGtFGWwY1I2i7nABrjFXL67qlYlVmqb6SuudVAUzlSIRcmQ2dCnRT1eb5nIVaREdRgAgHAqu3XzzmEw83g7JtV+Qi98UW+XqIdhWiUAAMh02NVSjW6S37hs1ikNDQ0eI/QiGEqGlJaSuUynJTpgLtJVumSIxR0AADhb2Y0n8BqEXgSu1jM8tSpMEAYAwIk2hvgCb91Tm/r25JS6se2jAZ4F4XpF+OKDpQO2DwUAgFOeeEJkVLZLJLsTePX4A69B6AUabI3Q+nEROUA1GAAQrCcSDbvJBV6D0Au0Vw1magQAwHtPJB52kw28BqEXaBshGADgpydSCbvJB16D0AskFIK1fkQrGaoW5QBTIgAAmfJEamHX0KLUtbLpLd9MLPAaT2/qG1RKpTI4GAh1dnCutllOHzATIrgYBwBwOuweL/dLruOxlN5RS0VfLe9efyDRwGsQeoHUHaj3A1MFBgA4FXZV4WFRymxF9SvwGoRewPJkCFFDORUdkKo88tqDpRKfBwDA87CbfuA1CL2AW20QuZx+oDopj1/0aGnI9pkAAJ56wlrYtRN4DUIv4GgAVuoAFWAAgEdh117gNQi9QDYCcFVH36QHGADQEq1FDg6tFl14zFLYtRt4DUIvkCHKjEJTj4iOHmAKBACg4bArHQ+LSJ/YoyUvb5XL1w1ZCbwGoRfIpBElcsD0/3IBDgDgcNitnUakfKkM9JesBV6D0AtkHNVfAICbYdedwGsQegFvjCilHjCX38Y75JtsgQOAgGjnwq5bgdd4ZqDvFhF1R5rvCSBxB/I5vYfWBwDwnHYy7LoXeI2nNvVtzymVxl5lAGlTMpTTeo/S8k0WXwCAR7SzYdfNwGsQeoEAEH4BwA/a6bBraBlYl5vrO1gJvAahFwgI4RcAskk7H3bdDrwGoRcIkJKhvNJ30vMLAI7TmQi77gde45l39G2UgtovIra2cwCwfOGNaQ8A4GDYHXq8V8YLjzkedrMReA1CLwCl1J4oivay5Q0AXAi7Q70yXqvsbhT3ZSPwGoReAIYWKeWUOpCLol1MegCAlOnMhV1jWAbWnZeJwGsQegHM1PLw2v+3tJcnAwAJ05kMu+bgh2Vg/aWZCbwGoRfAdFR9ASBhOqthN6OB13huU19fRan9yv0maQDpo+oLAHF77MdKJiqPZS/sZjjwGoReAHOh6gsAMfnhT5SUK18T0duz+UznD7xz3mizyVxWKWi9xfymZvssANxj/gZIa729qtTho++8dPfTm/qusn0mAMicH2Y97Bpq3qzobOA1CL0AGmGCr1Jq/9MDqw8/966+G3lqABBK2G2Msy0NU9HeAKAZ5m+GCjk9yDY3AJiFX2F3vwysuzqzFd46Kr0Amm13qEZqj7n8atodzB+aeYIAcNb3nlBSKX/Jk7DbkEwEXoPQC6DdPl+CL4DgHTosklc7RcstIT2LzAReg9ALoFUEXwDBO3RYZHJsUCK907Nnke1LazMh9AJoB8EXQJAOeRt2G5K5wGsQegG0i+ALIBiHwg67mQ28U0OvKBmyfRYA2UXwBeC1EMKuluPeBt566C13EnoBtI/gC8A7IYRdQ2u/A6+x+kBphNALIIHgu5OpDgAyK5Sw26DMB16D0AsgblrrQTPHl81tADInrLCrz37xP/AahF4ASS2wYGUxgMwIK+yeodSIhBJ466H3ou8d7o+03mv7LAD8C74srwDgtBDDrhFF/vfwzuSSg6XthF4ASfb3Hr6qr4cnDMAZTzwhMjm6Pbiw2yAvA69B6AWQZH9vYUIdor8XgDNhd1S2SyS7JUw62MBrEHoBJIU2BwBOIOyKaHUk6MBrEHoBpNDmcMi0OfCkAaSKsNsw7wNvPfRqrXfZPgcAb/WYNofaNIdNfX22DwMgAITdpgQReI2LD5YGCb0AEm9zOHupjScNINGwe7zcH3DPbtOUBObpTX2DSil+MwKQKC1SKmi9xaxA51EDiD3sqsLDohTTYsT8clu+VAb65/y1NpgKbx2VXgBpoNoLIHaE3ZYFV+Gto9ILIC1UewG0jbA7Gyq8c6HSCyDlai9zewG0hrA7t3naGYJsaZiK0AsgRT319cRsaQPQMK1FTpZXS67jfnp2Wxd04DUIvQDSnttb29LG+DIA8/+CIXJwaLVIx8MiwsjDNgQfeA1CLwAbF9qeGei7hScPYEaE3UaNNPKdCLxnEXoBpE/d8czApXfw5AGcg7DbBN1Q4A12SsNsntrUtz2nFIOcAaSGKQ4Afv0LAm0MzdGHZWD9pfN9Lyq801xysLQn0npHk08bANpqcagotf+Zd/Rt5DECASPstkA1tNyHwDsDQi8AG6FXCuoQa4mBQBF2E0XgnQWhF4ANWutBQi8QGMJu4gi8cyD0ArAWegdW72NeLxAAwm57tD7eyHcj8DYQeqWi+xsdewEAcdAi25jXC3iOsNs+pYYb+W4E3gZc9GhpSCp6C6EXgI3LbCypADxkwu7Q470slUgHgbdBhF4ANjDBAfA17A71yniBDWrtivRTjXw3Am8TCL0ALE5wYGwZ4FXYra0LZhRhSgi8TSL0ArCkx4wte+5dr7uRTwDIKMJu3PTZL/Mi8LYYevNa95vtSK38eABoVTWK9hB6gQwi7CZD6yONfDcCb4tee7BUKmi9hdALIG2EXiCDDv1E0caQCCq8SSP0ArCF0AtkyA9/omSi+jV6dhOgFRXeNBB6AdgMvS994LKdfAKA42G3XPmaiN5u+ygho6UhBoReALZMnBwbHN1+NaEXcBFh1xkE3pgQegHYEFWqcvwXTw1O/P4HCL2ASwi76ShUGhogQOCNEaEXgK3Q+/JPf0noBVzxvSeUVMpfoo3BHQTemBF6AdhQnZiohd7yH22j0gvYdOiwSF7tFC238EGkoEtGGvluBN4EEHoB2GBC74lfPjWoP3E9oRewFXYnxwYl0vw3mJb+fgKvTYReADacfmlYTh55ltALpI2w6zQqvAmH3kpR94uSoSTfBwCmOvHUURk79iKhF0gLYdcS3fDGWwJvwlYfKI2UO/UWQi+ANB3/5VNSPT1J6AWSRtjNBAJvCgi9AGxMbnjh334sulwl9AJJIexapqjwuobQC8DKJbannjWrNwf1Jz5yB58AECPCbqZQ4U0RoRdA2k49+ysZe/4FMSOS9Mc/sptPAIgBYdcNWh9v9LsSeC2E3ou+d7g/0npv2u8NIOB+3vEJ89XthF6gTYRddyg13Oh3JfBacsnB0nZCL4C0+nmHf3a4/q+EXqBVhF23aKHCmwWEXgBpmTh+Qkaf/VX9Xwm9QLOeeEJkcnQ7SyWcoUXrhpZOGFR4LSP0AkhzPu/Z1gZju/749Yf0Ldt6+ASABsLuqGyXSOiDd4lSBN6shV4t+i7b5wAQVGuD+d1io3R0PkzoBeZA2HWXjmhpyJqL/6V0i9Z6l+1zAPC/tWHi+Mkp36L6Cb3ALAi7bsvnubSWRRcfLA0SegEkbfinvxRdqUz5FkIv8CqEXfeVqfBmFqEXQBoLKU4+e2zatxJ6gXPC7vFyv1Q1C1s8waU1BxF6ASTNTGyYcoFtSugtPqb/5Hf6+AQgoYddVXhYlOJSp8sKFVYLZx2hF0DSF9hOPH10pv9ptVT1w4ReBImwmy1dwpQGHxB6ASRp7NiL0y6wvYLQi/AQdrOnv5/A6wtCL4AknXxqxiqvQehFOAi7WdRw2DXo4c0AQi+A9MaUnYPQC/9pLXKyvFpyHffTs5spBF4fEXoBWKjyGoRe+B12Dw6tFul4WES4rJklmsDrLUIvAAtVXoPQC/8QdrNNEXi9D72R1jtsnwNAUFVeg9ALfxB2s0/rhtcKG/TwZtAlB0t7CL0AUq7yGoReZB9h1w9KNbxW2CDwZhShF0Dcxp5/oZHvRuhFdhF2/RHpp5r57gTeDCP0Aoh7Lq+uVBoNvY/pj//2Rj4BZAZh1yf67JeGEXgzjtALIE4nnz3W6HftFck9TOhFJhB2PaSPNPO9CbyehF6p6P5mZ9IBwHSjz/6qmYdC6IX7CLt+yufp4Q3RRY+WhqSitxB6AbQjqlQbubw2FaEX7iLs+qscMaUhVIReACmNKJuO0As3w+7Q470slfBUMcemtZARegHEMaKswctr00PvY/oT19/IJwA3wu5Qr4wX2KDmq+okgTd09dCrRUq2zwLA+8trUynRajehF26E3dq6YCaJ+Gqgv6mMw6U1j0NvQRN6AbQ+oqxFhF7YQ9jFLAi8HnvtwVKJ0AugFdWJiWYvr01F6EX6CLsB0U3/DTaB13OEXgDt9PK2gdCLdD3670rGO+6njSEEisCLVyP0Aki5rWF66N3JJ4BE/fAnSqrqayJyFU8aM6HCGwhCL4CU2xqmht6dhF4kGnbLla+J6O085WCUmv0BBN6AEHoBpNzWUEfoRTIIu2HS0tTSCYPAGxhCL4BmTLZf4a0j9CJehN1QadG6qRm8BoE3QIReAAkvoZgNoRfx+N4TSirlL9HGECp9pNkfQeANFKEXQKNGn2/78tpUhF6059BhkbzaKVpu4VEGKp8fbvaHEHgDRugF0Ijy6FjcD4rQi9bD7uTYoESayR8hK0f08KL50Fsp6n5RMsSzAzCT8ZeaLqY0gtCL5hB2UVeoMKUBzVt9oDRS7tRbCL0AZhJVqlIeHU3i4RB60RjCLqbqEi6toTWEXgBziWEe72wIvZgbYRfT9fcTeNE6Qi+AFMaTzRZ6B/XHP2I2ZQG/RtjFq+im2xkMLq3hHIReAAkuoJjPDkIvXkHYxYwUgRfxhd6Lvne4P9J6L88UQL2PtzI+kcbDIPSCsIvYUeHFrC45WNpO6AWQQh/vdITekFHZxdyo8CJ+hF4AdZVkJjXMhtAbIsIu5qYlan7LmkGFF/Mi9AIwyqOn034QO/THr39M37Kth08gAE88ITI5up2lEpiTUk1PaDAIvGg49GrRd/G4gHAlNIt3HqpfOjofJvQGEHZHZbtEstv2UeC4HJfWkLCL/6V0i9Z6Fw8aCFOKF9emIfR6jbCLhNcKG1R40ZSLD5YGCb1AuCqjY5bemdDrJcIumlXM0dKAdBB6gXBNWgu8U0Lvn/xOn8VDIC4/PCpyIrqWNgY0pWOSKQ1ID6EXCFN1wkZLw1SqX6qa0OtDZXfi+X4RxXY9JL5W2KClAS0j9ALhKZ9KfVLDTFYTejMedo+X+0UVHhalmMCBxNcKGwRetIXQC4SlOjEujiD0ZhFhF21pbUKDQeBF2wi9QDjsTWqYEaE3Swi7aJeWliY0GARexILQC4RDVyviEEJvFhB2EQ8qvLCP0AuEYdKNPt6pCL0u01rkZHm15Drup2cXbdCidUsX1gwqvIgVoRfwn/1JDTMi9Loadg8OrRbpeFhEGCeH9mgurcGx0BtpvcP2OQAEFXgNQq9LCLuIm1ZHWv2hVHiRiEsOlvYQegE/6UpVHEbodQFhFw5tWTMIvEgMoRfwU2V8UhxH6LWJsAvHtqwZBF4kitAL+CeqODWlYa7Q+5j++G9vtH2QoBB2kZyRVresGQRepBl6W/6JCsAdDvfwTtcrknuY0JsSwi6SpFsfSWYQeJFa6JWK3kLoBfygs1HlNQi9aSDsImmqvaIZgRepuejR0hChF/BD1e2La9MRepNE2EU6qPAiOwi9gB+qE85fXJuO0JsEwi7SEumn2vnhVHiROkIvAIuh9zH9ietv5BOIKewOPd7LUgmktGWNCi+yG3p1m39FAcCOynhmLq5Np0Sr3YTeOMLuUK+MF9ighnRoReBFdkNvQRN6AaSO0BtL2K2tC2bsG9JRVFxaQ3a99mCpROgFskdXMzOlYTaE3lYQdmFLR5kKL7KN0AtkT5StKQ3zhN6P3GL7IJlA2EVGl04YXFqDEwi9ACxRouVL+hPX7+QTmMf3fqHkdOFrtDEga0snDAIvnEHoBWCx0ruT0DuHH/5ESW7ia6LUtvQ+FuAVR6RNBF44hdALZEOG1gs3itA7V9gtV74moren+okAv0aFF/4h9AKwhNA7HWEX9mkqvPAWoReAJYTeOsIuXJFTh9t+iXhOAsSP0AvAEkLv955QUil/iTYGOKEcHW/3JQi8cBqhF4Al4YbeQ4dF8mqnaGFcG9ywqDLU7ksQeJGJ0Fsp6n5R0vZPeABoQnih14TdybFBiXQ4/5/h/Qxeg8CLTFh9oDRS7tRbCL0AUhZO6CXswtMZvAaBF5lB6AVgif+hl7ALVylpu7prEHiRKYReABZD76D++EfMpjG/EHbhMi2Px/EyBF5kNvQqkQdsnwUIVb5YlEDt8Cr0EnYRwAxeg8CLzIbelf9y+NpI6722zwIgOH6EXsIusqCqY7mwTuBFpl1ysLSd0AvAguyHXqYxIAuKKpYeXhXHiwC2PbWpb09OqRttnwMIxeJLVsqSS1baPoYLdkt54jZ15wOx/KacYmV3p0R60PZRgHloGVgXS3GWCi+8QKUXSFfAPbzT7ZCOzof1Ldt6JAsO/kxk4tQthF1kRGx/kCTwwqvQq0XfZfscAEKj+jMRep94QkRNbBet7rB9FKBBsS2cIvDCKxf/S+kWrfUu2+cAfFfoosKbqdBrwu6obJdIdts+CtCEWJZOGAReeOfig6VBQi+A9Dkaegm7yKpIPxXXSxF44SVCL5CsXIHfPuYMvX/yO31O/Bwk7CK7tORzh+J6MX7FgrcIvUByVL7A45396fRLVdsPvT88KnIiupY2BmRWOToe10sReOE1Qi+QjHwhz6Od22qroddUdiee7xdR2Z4VjLAtqnBpDWgUoReInypQ4XU29Jqwe7zcL6rwsCjlVj8x0LgR6e9nLBnQDEIvEB9m8Docegm78MdQnC9GSwOCQegF4pGjuutm6CXswi+lOF+MwIugEHqB9in6d90LvYRd+CaKbySZQeBFcAi9QHsKXZ08QpdCr9YiJ8urJddxPz278ISOcySZQeBFsKE30nqH7XMAWUQPr0Oh14Tdg0OrRToeFhE3Zv8CccjpI7G+XJwvBmTJJQdLewi9QPNytDS4EXoJu/DZ5eu4tAbEhdALNK9QLPLYbIdewi58puOd0GBQ4UXwCL1Ac5jBG2vofUx//Lc3NvWjCLvwnZLY5u/WEXiBeqVX9LW1QdcA5pQvcmktRr0iuYcbDr2EXYRAy+NxvySBFzjrkn8pPSAVvYXQC8yt0EVLg5XQS9hFGLSIxHphzSDwAlNc9GhpiNALzI4JDZZCL2EXIalqeniBpBF6gdnlqe4mH3r/x9+56pxvJewiNIsqsQdeFfcLAr545h19G6Wg9otITys//mjPRXJ06Uo5uvSic7595fFnZPH4CVk5clSWTJyI67hAKhauWC69b7iUp50sLUrvUH/xD3sJuwjQsAysOy/uFy3E/YKAT5XeZ97Rt0UX1D7VwED3E8Ul8sDGD8s/r3mf/GjFm+Vk15J538ME37XHnpTLS9+Xy48clDf96keEYDiNloZUKNFqt/7E9aKGhv5RpON+lkogIENJvCgVXmAez23q66sotX+20PuDVVfI3Ztvlh+s2hTLszTB99rH75PLSwdl5fGjfD5wyrK1b5CuZb22jxHMzZ0/2nBN6e7XXc4GNYRDy53yznW3xv2yBF6gxdBrKrp3X3Wz3HN5chuK6+H3PT/+Jyq/cMLy9WuluHSx7WMEFXqv23S9PHDhGttHAdKgRctt8s51d8b9wgReoIXQa3pzb7jh67U+3bRc+/i98rFH7qLqC6su3PRWFk+kbLijS976nt+T0sKWrhMAWaKloq+Wd68/EPcLE3iBJkPvoZUb9/+3v7u3r5Ee3aSqvib4Xn7k+1beH+HKFfLy2k1vs32MIO1fvkquvvIG28cAkqalq3ye9PfHvgSKwAs0oftbeqNS0vLkhjitHHlGPvbdu2otD0AaOpcukfPXv4mHbam1YcfbPih7V23g+cNnw0lMaDBYPAE0qOsh3SdK9rkQdg3TTvHJD35R3vOH35XvrHmf7eMgAJ3dC2wfIVimOrXzR9+1fQwgkxMaDAIv0GDYzWuZdVKD7eD7B9d/Vf7g+q/U5v4CSWHphF19YyNy1Qsly6cAEqTl8aRemsALZDjsTvWdNVvlPX/0X+STH/wLgi8S0dHdzZO1XOW94UhieQCwTUtOxX5ZrY7AC3gQdqfat+G3ahMk9m34sO2jwDO5Ar9l2LbtuZ/aPgKQnJw+ktRLc2kN8CjsznSx7Z57/iOjzNA2JjS4c3nt0t/8Q0aUwUdaBtYl9qdq/rgOeBp26/29ps3BbIID2lGgncEZG0aO2T4CED+d3IU1g8ALeBp2p7r7yptr0xy41IZWMaHBHavHYh9RCrggsXYGg8ALeB5266j2oh1MaHCD6UPsKY/bPgaQRLfOI5IgAi8QQNidXu294Ya/p9qLpjChAUCiqpqWBiBpoYTduh+s2lSb5PDPLKxAg2hpAJCoRRUCL5Cknn26Jz+pgwm7U1scPnb9V7nQhoaqu6pQ4EkBSIguSX9/os3ptDRAQg+7lU7ZrzpUUGF3eovDtt/7P2lxwKwKXZ08HYcaHUc6umwfA4iZSnyFIIEXEnrYFSUbJXA/fs2bay0OP1qx1vZR4KDOpYttHwFTHF7Yw/OAXyL93aTfgsCLIBF2Z25xuPb3v0WLA16FC2tuOd5RtH0EIE5a8rlDkjACL4JD2J2/xeHzWz+T0qeBLODCmluGel5j+whAvPTk45IwAi+CUynKbtoY5nbPFTfR14saLqy5pbRwKT288M2IDPTTwwvEqfshvVtEtvFUG+/rZTtb2Liw5pbHqe7CP0NpvAkVXgQVdpWW7bbPkbW+Xi6zhY0La46tolq+yvYxgMxdWDMIvAgCYbf9y2z7Nnw4xk8EWcGFNbccOJ/AC6/oNC6sGQReeI+wG49PfvCLTHAIUJGRZE717w4t5cIaPKOTv7BmsDoHXlv0oL5DaGOIdYKD8bFH7orvReGszqVLbB8BUxxYHux+HHhLl9K4sGZQ4YW3Fj2kd4rILbbP4WPovXvzmeALvzGOzK3+3XtWXWb7GEC8tEqlumsQeOFv2NUyaPscPofeT37wL2wfAwkrUuF1qp3hwPlUeOHfPUxJCYEX3iHspmPfht+SP7j+K3KiyF97+4r+XXfQzgAvVXUqI8kMAi+8QthN13fWbJUbbvh7Qq+HWDjhVhns9jdfafsYQPwWVQi8QNP/3dDGYHFBBaHXNx2LFtg+As46sHyVlBb28DzgFy1D0t8/ktbbUeGFFwi7dhF6/UM7gzvV3b2rNtg+BhA/lc6GtToCLzKPsOsGQq9fikvozXblshqBFx7SkkvvwppB4EWmEXbdQuj1Q75YlHxX0fYxgmequ7vWbg7+OcBTSlIbSWYQeJFZhF03EXqzr9iz2PYRcLa6+80L1/As4KMRuXwdLQ3AfBZ+s8qcXcdD78c+8hXbx0CL6N91wz2rNshIR5ftYwBJSDXsGlR4kTndD+obcx05lko47gerNrGcIqPo37Xv8MKlsofLavCTFi3/mPabEniRubCrRPbYPgcaX07BRrbszd+lf9eN3l1GkcFb1fQWTtTl035DoFWE3ey2N4gSufzI920fBQ3oOm+pLFjWy7Oy3Lt709s/xGcAf71r/Y6035IKLzKBsJttd195s9y9+Wbbx0ADFpxH2LWJyQwIwAEbb0rghfMWP6i30cbgR+jde0Xqf6hHk7iwZtfQ0tcwdxd+0+mOI6sj8MJp3d/SG7XIbtvnQDy+sPWzsm/Dh3mcjupcukRUoWD7GEFXd68b+G3bxwCSpCWnqPAC08OuUrJfRFgi75HPb/2s/GjFWtvHwAw6uxfwXCy66/VXcFEN/itOprphrY4KL5xE2PXXya4l8rHrvypHl660fRRM07XsPJ6JxTFku9ZeyfOH37QMSX//iI23JvDCOYRd/x3tuUhuuOHrhF6H5Ap5+nctX1RjyQQC8IitNybwwimE3bBC7x9c/1U5UVxi+5T7zdIAACAASURBVCioXVbjc7BlzyUbuKiGEGhb/bsGgRfO6HpI94mSffTshjWj9wvXfMb2MVBrZ6BV3lYrw+1vppUBgSja6d81WDwBZ8JuXst+JdJn+yxIF4sp3NCzepXkmNCQeivDrZddI4+czy97CKR/9/INd9l6eyq8sI6wCzOjl3Fl9rBO2A5aGRCYR2y+OYEXVhF2Uce4MnuKSxfxE9FCK8NtG7by3BEKLVX9TZsHIPDCGsIupmJcmT2MI0u/leHqK29gKgPCsqgyZPPtCbywgrCLmTC5IX35YpFxZCm7fe2VLJhAaA7Ymr9bR+BF6gi7mO8S292b/4iHlJJiz2KedYr2vXaNDK7dzDNHWCL9XdtHIPAiVYRdNOKeK26SvVfs4GGlYMF5vTznlNC3i0BpicTa/N06Ai9SQ9hFM76w9bPyg1VX8NASVlxKhTfNvt3SQuYdIzgj8u71BF6EgbCLVnzyg19k/XCCOpcuEcXs3VTC7m2XXUPYRZi03XFkdVR4kbiefbqnEMk+lkqg1UtsSEb3imU82pQuqd35+st51giRlrw8IA4g8CLxsFvplP2iZCOPGq1eYvv8VtYPJ6G4ZEkir4tfO7R0BZfUELaoTIUXfiPsIs5LbGxii7+dId9VjPlVMf2S2nUD1/NQEDBdkoH+kjiACi8SQdhFEpvYji5dyYONyYJlXJ5K0nBHkUtqgCjrl9XqCLyIHWEXSW1iu+GGr8uJIn8NHwfGkSV7Se26TR/hkhpCp6Wi7xFHEHgRu0pRdtOzi6QusbGUon0d3d20MyQ8keHA+auSegsgO95tfxxZHYEXsep+SO8WkW08ViSFft72LWQ6Q2KYyAC8wpmwaxB4EWvYVVq280iRNPp528OyiWTsWnslExmAM7TkZK84hMCLWBB2kXY/L/N5W5MvFmstDYjXnlUbCLuAg+PI6vK2D4DsI+zChhcXnS8nuhbLu3/xXT6AJnSvWC5dvUxoiHvW7gfe9VF+HgJ1WobknRv+XBxChRdt6X6gegdtDLDZz/uDVVfwATRh4YrlPK+Yw+7VV97AMwXO5VR11yDwomWLHtI7VWfuFh4hbPrkB7/IqLIG0c6QzGKJkY6umF8ZyDQtVf1NcQyBFy2HXdEyyOODC6PKPvaRr9g+RiZQ3Y037JrKbmkh7SHAuXTJpXFkdQReNI2wC9f8YNUm2XvFDtvHcF73BbQzxIGwC2Rju9pUBF40hbALV9195c2sHp4DyybiQdgFsrNdbSoCLxpG2IXro8o++aEv2j6Gs1g20T7CLjCvERfbGQwCLxpC2EVWWhvu3nyz7WM4acF5vbaPkGmEXaAhD4ijCLyYF2EXWWtt+NGKtbaP4ZTOpUsk31W0fYzMIuwCDdGilHPTGeoIvJgTYRdZ9LHrv8qosim6Vyyz92FkHGEXaNiIbHoLgRfZQ9hFlkeV3b35j2wfwxnFJUtsHyHTSyUYPQZku53BoMKLGXV/W9/MnF1kGVvYzliwrJd2hhYQdgF/2hkMAi9epftBfaOK5E4eDbKOLWwiXctYjNCsPas21Cq7bFAD/GhnMAi8eHXYFdnDY4EPQm9tyBXysvCC820fI3Nhd8fbPkjYBTxqZzAIvHgFYRc+Crm1oWsZo8iasWvtlbWwC8CvdgaDwIsawi589vmtn5UQUd1tLuwOrt2c4KcBeGvE9XYGg8ALWfi/VbbRxgCf/fg1bw5uIUW+WJTi0sW2j+E8LVKr6hJ2AX/bGQwCb+C6v6U35hbnd9s+B5C0vZfvkKNLVwbzoBdwWW1ewx1FeevVv1fr2wXQEi0VfY9kAIE38LCrlOwXEa5xw3snu5bIJz/0RQnFogtfY/sIzi+UeOt7fl+GenhOQOt0Sd69/oBkAIE3UIRdhOgHqzbJ3it2iO9YJTw3ZuwCcVGZCLsGgTdAhF2E7O4rb/a+tYFVwvPP2GV7GtA2LXn5K8kIAm9gOnZP0sYACb214fPX+D21YcF5jCOba+wYCyWAGGgZksvXDUlGEHgD0vWQ7utc0bGPnl2E7jtrtno7m3fhiuWiCgXbx3DuchqTGIDYq7t3SYYQeAMKu3kt+5VIn+2zAC7wde0ws3dffTnt6nffwCQGIG5R+RHJkLztAyB5hF1g5taGYnVCLj/yfa9m7/ZceontYzhj//JVct3A9fLjxcttHwXwi5Zvyjs3fFUyhAqv5wi7QDgX2BatXGH7CM648/VXcDkNSIaWnNqTtYdL4PUYYReYn0+zebmsdqZf99bLrpFbL9tq++MAPKVLWVglPB2B11OEXaDx2bz/vOZ9mX9cC5b1Sr6rKCGr9+ve+frLbR8F8JjKzOzdqbjK66Eshl1d0bUvta9PRGe/LRKpnvm2qaKz/7uRK87wZ7a8ElU48+3K/AzPn/l6ros/32FmX9j6Wbm89H1ZMnEis49o4QVh96nue+0auentjBwDEqZFyrdn8SkTeD3jWtitBdmJqkTjkejJqPZPqX1b9EpwrQfctKhiTlQtFKva18X8s6Bq4VkV87WQfOafKtVzwZ6jPRfJPZt2yMceydSUnXMuq3UtC3P2rvkj8W2XXUNVF0jHARnoL2XxYRN4PWIz7JogG50oi65qiU5VJRqt1gJuvWrrEhOwGzlVLRB35s78sztfqxCbf6/9k0Ds5QW2a4fulZXHj0rWFHsWS6gtDDe97UNy4PxVto8ChEBLTvZKRlHC8kSaYTcardQCbXW0KtHxirPBNmm1qvDC/CthOLewUKsO57r5c2RWXX7koNxzz0cla17z9g3B9e+akWOmhYEVwUBa9GEZWH9pVp83vzN7oGef7qlEsk9U/GHXBFkTcCsvl0WbgDtWDTLczsQ8h+qJioj5Mk8QznXTIpGVC2xmA1uWZvN2Ll0SVNilhQGwRWXyslodFV4fwm6n7BclG+N6zerxskQnKlI9XjkT6BAL0y+cN8G3Oy/5JR2EYEetHHlG9v3Nf8jMBbbeN64OZrsaLQyA1ctql2a1f9dg01qGxRV2a5XKFyel/OyETP5iTCrHJmtBN+3LZN4z/c2nTa9zRSovTEr56LhUnp+s/bsuRyLR2b7hHH8OtSlLG9jMZbXeN2b2bxibnsLwgd/4KFvTABt09jarTcfvrIGG3VrIfXnyTOCiTcEpph3CtEDkl55phaAnOH2Lx0/Id/7qSuervIsufI0s9XyVsFkkcfvaq5jCANijpaKvlnevz3RLAxXewMKuaVeY/PmYlJ86LZUXy2equBRynaLLuvaHkOrL5Vq1fWoVWOWkNikCyZosFGWi0Cnv/sV3nX7U5615neQK/l7FOLR0RW098LdXvM72UYCA6ZK8a/2tknH+/krpsUmld+eUajjs1iYqvDwp5ecmuHCWQeYPJRXzB5OXy7V/N20P+SUFyS0tnPknUyEScc8VN8l7f/JPzrY2+L5Z7c7XX8F6YMA+LTm1SzxAS0PGdD+kdyst2xut5pafHufimefqATh/3pmLcATgMMaULV+/VopL/Zu/y8U0wCU606PIpqLC61nYNb25lefGqeYGpPaZm/aHegXYTIN4JQAXWKns4Zgyc1nNx7Brqrq71l4pIx1dto8CwINRZFNR4fUk7BJ0MZtftz901C7CofkxZd/56yudemy+jSKjqgs4SWd9FNlUXFrLeNitBd2j4zLxs1GpjlS4gIZX/xyZ+PUotNoFuNFqbUSa5M+sTcb8Y8oWT5yQjUeHnHlUPatXeXNZjXFjgLP2yMCGzK4Sno7f7Ry36CG9U7QMTv92KrqIQ631YVkHl98yNKZs4Yrl0vuGS70YN3bT2z4kD1y4xvZRAHhe3TWo8GYs7FLRRdzVX/M3A6+MP5swo88Ufb8zjClzZRnFsrVvyHx111R1zbixoZ7X2D4KgJkdkIENd4lHqPBmKOxWXpqUydJpNqAhcVMvvhWWdfLEHanydi5dIuevf1NmPw96dYFM0D4smpiOCm8Gwq7puZz46Wht9W+t9xJIYw2yWX7xUlkqz03Uvm6YpRehrj52YRnFklUXSkd3t2R1AsNHL7+O1cCA67QMyW+s/6R4JszfuTISdut9upNPj9s+FvCKwnkdtcpv/rzOIC+9feev3i0rjx+1MorsNe/YIFlDVRfIFC052SFXrPPmslpdeL9bZSTsmqUREz8fo30B7off8zuDanuwtYyi59JLpPvCbPW87lq7We58/eXM1QUyQ3uzaGK6bN988DDsmqpu+enTtcURgOvqCy8mC2OS7z1T+fU9/NpaRtF1Xq9kxf7lq+S2y7ZyKQ3IFu3LGuGZUOF1KOyaXt3xH5+iqgsvLrwVLih6u+gi7SpvVkaRmVFjt6+9qlbVBZA12tvqruHn70YZDLvmYtDE4THbxwFiGXVWW3LxwuQr4bfjwmJtzbEv0q7yLrl4pbhu9yUb5LYNW2lfALJJ+1zdNajwWg67uqwHJ358SqonKjaPAiQutzB/Jvgu6fBizm9aVV7XR5EdWrpCbrvsGjlw/irbRwHQMu11ddfwp+SSMd3f1jdHJ6uDtDAgFGa0mbmIaZxpeeistT1kVVpV3u4Vy8RFtC8A3tC+V3cNKrwWdD+ob6w+N7Fn8unTtdFjQKjMWDNz2S2r/b5JV3ldHUVG+wLgE+19ddfI3u8wHoTdytPjtbALhK42a3pKv2/nxV2ZanlIusprFk245MDyVbVRY7QvAN7QIVR3DTatpaj7fn3j5M9P7SkfY+QY8CpVLVUz5uy5CdGjVZFIZ+Ki29Gei+Tax+9LpLq75JKVkisUnGhf+NS698p/6v+AlLp7bB8HQHwOyKZ1t4XwQO3/ShqIrr+r3Dj+4xN76itaATQw3/fp8TNTHi5e4GzVN6kqb7FnseS7ik6sBN619kqmLwD+0ZKXIMKuQQ9vCvKfP7FNV6N9ZlwTgBb/O3L4otvKkWfkO399Zayv+Zq3b7AaeM3yiJve/kEpLaSiC3hqtwysu0kC4WbJxCMdd5zaqCequwm7QHvM6D4z5WHs/zsuEz8blWg8cqqtYd+GD8e6aMJW2DVjxra8+wa5+sobCLuAv7RI+XYJCBXeJH1qeKPK6f0iQokE8LzqG2eV94L+t0hHd7ekaaSjKLvYkgaEYndI1V2DHt6kEHaBVKq+5osLvb6myhtHL69ZNJFm2DVB967Xb6qtAx7p6ErtfQFYczi06q7BlIYkEHaBdFV1bbFFfcKD6shZCb5xTGwwo8jSCrx3vf4KuXbgevn2itfJeJ76BxAALVpul3du+LYEhpaGuA0O96mKPkQbA2CXrbm+99zzH1uu8qa1aMLM093BhTQgQDqIJRMz4dJa3GG3TM8u4AJzUdRccjv9WLqX3O7efLOziyZM0DUX0rZwIQ0IkQ5lycRM+DusuMOukr7YXhNALOrb3NK45DZ9Lu9P8gvkmXyXvJgryJj6dRfZ8qgsb6yMyZrq6VequwsvOD+RM7EhDYCI7JEr1u0N9UkQeONA2AUyd8ktyXaHr2z67+TYr34u3ymeJ2Nq/tcfmDwuv7si/gtjpYVL5dbLrpEHLlwT+2sDyBQd4kW1qejhbdfgcM/Zyu7GWD4RAKkqnN8Z23SHwsSorBx6QFYO7at9vVnv7e2Uj15QlBWdubaD7uDazbJ3VfL9wAAyINK75F3rByVgBN52H+BnXtonorbF83EAsKU+1iy/tLW/+Oo6cUwuu++PpevksbbOYcLu77+2SzYt6Wj6xzJLF8CrhXtRbSoCbxtynxneqUUH/ScmwNfpDs30+cYVdqf66AVd8rsrGjsDs3QBzEKL6KtlYP2B0J8QgbdFhF3A/+DbcUGn5M8vztnukETYrbv1ooXy3t7ZK70EXQDzCG6j2mwIvK345IvbVD63r6UfC8CrPt/Ld29PJOwa3Xklf/36Ra/q6SXoAmhwo9rVMtBf4mkReJvHYgkg6OBrWh3qfb6rvv+/yqrv/12i77m+uyB/dmn3K5fR7nz9FbXLaKwBBjAHLTnZEfIYsukYS9ba+LGepn4cAO/m+S5efLw2jSFp/zZakf9DL5L73n41UxcANCrombszIfA2QVWiO0QpFksAgTOzfHt+9l9aGj3Wij891SXfZ8QYgMZbGYKeuTsTVgs3cUmN8WMA6vqOPZTaw1hW+oUUxs9sZAOAeVoZdtG3+2oE3kZ88sVtjB8DULdg4gVZMPlCqg/koqEf8gEAmA+tDLMg8DbSt5vL3THv9wMQjCWnj6T/nr96NvX3BJAptDLMgcA7D1XW+0QJfbsAXrF4LP3Au+D4y3wCAOZaMHETrQyzI/DO17erZONc3wdAeDqqY6m/58IRAi+AWUT6drapzY3AO5tPD19F3y4AV0x2LbB9BABO0oflXesHbZ/CdQTe2fp2Re9O/dMAkAnl/MLU37NC4AUwndbDIpWreTDzI/DO9FDK1UH6dgHM5nTx/NQfTrlIhRfAObTk1a307TaGwDvdp17crlXuxgafH4AAvbx4bfrv2fe61N8TgON9u2xTaxiBd3org8rtbPzxAQjR6c7zpZJyW8OxN70l1fcD4LRD9O02h8A7haro3bQyAGjE4RXvT+1BHX/NhXK657zU3g+A8/N2r7N9iKwh8NYfxGeGbxaRq+x+HAAyofsleer9o1JZoFJ5u+e2XCO5fD6V9wLgNC1R+Tr6dptXaOHH+GdwuE9XNCM9AMyt+yXJrX9Q1KUHpSoiR67sktf9X6cTfWoTy5bL8FXvk6VmNNnYmIyfOiXVSoVPCgiPFi23ybv6h2wfJIsIvGenMmiV67H9YQBw1AU/PRN0V/zsnG8+cmVRLvzBhCwYjhJ763//Hz77ytc7Fy6sfalMTMjE6dO1AAwgoEtq71p/p+1jZFU6fx/nsk+9uF3lcszcBdBw0J1qwcuRDPzlCSmc1rE/wdL1/408957Ze4WjalVOnzxJ8AX8t18G1jFvtw1hB14zlaGs93NRDUCzQXeqxUer8o7/5WSsoffp//rD8sx/+HBD39cE3/Lp0zI+Olr7OgCf6MPSVXmr9PeP2D5JlgUdeHOffnEPM3cBnNOju+lvGw660yu9b/+fT7bd3lBZuLAWdOeq7M7FtDmYqi/BF/BmIsPVXFJrnwq6ulvRh20fA4Bbl9HaYUKvucR24aOTLf34429cK7/Y/t/LxLL2N7nR5wt4sDZYVd5K2I1HsIFXffrlw7QyAIHrGJPc2+5rO+hO1/XspFz6j6dkRUmkY3L+X2Zfeq2Wo9tukNGN8c/2rff5mgBM1RfIDC2ir5aB9QdsH8QXhVBn7mrRfbbPAcCSjjFRb9ovuTcdqH09bqMyKf+6WYtsFjnvOS3LnlWy5CWRwtnCb6VTZGyxyIllWo6tEqkURQoLHpXFEn/gNfN7u3t6REeRlMfHaXcA3KdFoptk4DLCbozCq/ByUQ0IV8JB19DlqlR/3trdkkVr/rN0LH6zJM1Ue80FNxOAATgm0rtYGxy/QqAzd6nuAoFRa/ZL7rIHEwu6ddELrS+iGH/2XulY858laYViURYVi7Q7AK4h7CYmrAovF9WA4KiLHq/16ZqLaUlrp7qbdpV3Ora4AZYRdhMVVIVXVTQLJoBQNDlLNw765fZbBNKq8k7HFjfAIsJu4sIJvJ96cbuIXGX7GADcnaXbruhka+PIpqqcfFLKJ5+0UuWttzuYLwsWL671+jLTF0gYYTcVwbQ0MIYMCOBC2mUPSm7NfitvH41MSPTcqVheq7D4zbLYQpV3Nsz0BRJC2E1NIZjqrhIuqgGeUuu/lejkhUZEL8b33rarvNNR9QXilyvkd0XvWDvIs01HXkK4qBap3aKkx/ZRAMTsgp9K/r13ibroX0XyZWuP11R39fGJeF9z8gUpLt8sLlG5nOQ7OqRr0SLp6OwUUUqqZXvPHcgilVPSuWDBrspb30jYTZH3Fd5cRW7UVHcBv1js051J3GHXxSrvfFXf8VOnpFqp2D4W4DSzCGbB0sV7RtdcRNhNmd8V3sHhPqnqO6nuAh716b7l/5b8lX8jatHL4gIziiw6lkwrhYtV3tmqvsXubuns6jIrompb3bQ2XwMwbevhnlNrVu7gqaTP6wovSyYAf6hLD56Zp2uxTzfuRRNZr/JOZ4KvWWNcn+s7MTYmlcn2J1cAWWfG/nUtXrTnxKUXEHYt8XdKA0smAD9YmKeb5qKJrE1saFZUrTLeDEHrWrxYFnYv2vPy6mWEXYsKnld3bR8DQEbHjKW1aMK3Ku9Mf41bX2phLriNj47WArAJwkAALQzS0dFJ2HWAnxVeqrtAprnavjBd5efDIuUo8ffJepV3JuXTp2VyYqLW+gD4ptDZKd29vSb0Hhpedd5bbZ8HnlZ4qe4CGeXY9IX5RpGlEXbrVd6JFx9x/gJbMzoWLKh9WbhkiZTHx+n3hTcWLl1au8QpIod0pK62fR74WuGlugtks33hTfutL49wsbpbl+s8X5Ze9tfis3q/L5fdkNUWhkXnnVe7vFkPuyOre5Nt8ke4FV6qu0AGl0cM/F2tupsVeqycatitjygbP/aQdK14v/hqar8v4RdZYiq6Zia1GdNH2HWTXxVeqrtAdmTgUtpsqs+eSmTZxHxUvluWXvZXtX+GxIRf0/NrKr8st4BrvbqmheFsVdegsusoryq8VHeBbFAXPX7mUlqGqrpTR5HZCLu1966O1qq8Cy78LQmJqfwWFy2qfaHyC1fWAy9YvKTeq1t3WEfqOtoY3KS8qu6W9X5hjTDgro4xyQ38XS3wZpWt6m7oVd6ZEH7hQPvC1LBrenZLfCpu8qfCW462iVJ9to8BYGZqzX7JXfZgZi6lzdm/a/P9A63yNtrzOzk+LpXJCdERq40Rf/uCCbqFYnH6/0TYzQBvAq8SdbPtMwDI9qgxl0aRzWXi2ENSXLZZcsXzbR/FyfBr1KY9nD7NkgskGXQNwm5G5MUHn3pxu8qp7baPAeDVVd38b+wWteSYF48mevaUSNWByqEu16Y2dJ73TtsncVauUJDOri7pWrSo9s98oSBaaza8obnlET09smDJktrPpxkQdjPEiwqvUrmdts8AwK9e3ZlaGfSEO+twyyM/zPTK4TSZG/Tmy9RLb+XJSaq/aKWiW0fYzZjsX1r7zIvblOT22T4GgCkTGMxc3Yz36rp2WS2UlcNpq5bLU3p/J20fB+4HXYOwm0GZr/AqydG7C7ggw3N1XR5FNt/KYaq88VV/dRTVAnAt/E5MMPM3kPFinQsWSnHhwqmzdOdC2M2obFd4WTQBuCGD29KavawWPXdKXGRWDi95y58xpiwBpv2hOjkpkyb8Tk4SgD2r5prebnPJcdp4sbkQdjMs0xVeFk0A9qm33etlVXeq6EV32zPqK4cZU5bM5IfcggXSsWDBOQG43v/L1rdsVnNN0G2gbWE6wm7GZbfCS3UXsKv7Jclf+Tcivc94/UmYy2rVIyfEZSyjsKPeAvHrAFxm/q9fIbduWEfqrSyVyLbsVngnq1dJ438NASBGviyRaHj2ruPMMorTR++VhZfcaPsoQTF/FW5CVC1ILV5c+zYTgOshmDYIe5X5DtOu0F7InRp22aDmgcwGXkaRAZYupr39PsmtPhjE43f1stpMJp5/SDp638GYMkcuwdUXYNSrwPUQHFUqtEIkUMXNFzpqAdcE3Vlm5rYTdofiekHYk82WBkaRAenrfeZMC4OnF9Nm692NXjgtWcGYsuyotUCYIGz6gs0/aYdoOuB2mOp6Z2ftDxhNXDxrFGHXM5ms8CpR/L0dkHYLw9vuDe6ZZ6GdYfqYssmRR6Wz5x22j4J5vNIKMcXUajBB+NfMljwTagvmS7HY6PiwdhB2PZS9Ci+X1YD0eLgxrVH65KRUnzkpWcOYMv+YIGwmRJh2iEqlUvun+fdaQK5UxKfeWxNm6/80ATeFcDudPntBjTYGz2SuwssoMiAlAbYwTBWdzObWLcaU+cf8dX3efOnokJni39QAXAvGWp/zbdr8e7VqvQ1BqTP/H5RStT7b2tg3pc6E3Pj6btuhdRTdNLJ6OWHXQ078DGuGltxm22cAfBfSFIasX1abycSxh6S4bLPkiufbPgpSUAuPDQZGE4RNADZB2DCtE7VvnxaIzfdrJIhP7Z01Abb2T6Vq3/7Kv7sRZhsNu3tsHwTJyFZLA5fVgGR5vB7Yl81qjeICG9Awwm4AMvHHrjouqwEJCmSRRNY3qzVzga188knGlAFzI+wGIjubGwaH+0TUNtvHALx0wU8l/4E/I+ye3awm5TN/3Zt1Y4e/XFtKAWBGWkf6NtoYwpDL1GY1AIn06+bfe1ew/bpZH0XWyAU2AK+mIn37yOpld/JswpCZwMtmNSCBft2Bvw1yvq6vl9VmMv7svRJNvGD7GIBTVKR3vbx62aDtcyA92Qi8nx6+SpT02T4G4FW/7nvvCmZFcKP0qD8zTacaLX3Z9hEAZxB2w5SJwJuT6nbbZwC8mq9rWhi4nPYqvlV3p15go7UBIOyGLBOBl9m7QDzU6oNnwm6gyyTmbWcwF9Y8ZVobuMCGkFHZDZv7gfdTL26nnQFon1r/oOQG/pbLabOIXjjt9U8zE3bHnrrH9jEAKwi7cD7wqpz6kO0zAFlXu5y2/lu2j+E0n6u7dZMvPVKbzQuEhLAL9wMvs3eB9nSMSe49d3I5LaDZu/NhNi9CQthFNgIvs3eB9iYxfODPRK34GU8xoNm7jczmPX2UUXTwH2EXmQm8Kpe70fYZgCyPHeNyWpizd+cz8fxDtDbAa4RdZCfw1toZhO1qQCtjx8yaYCYxBD17t5HWBsBHKtJ7WCqB7ARe2hmA1saOvf8LTGJoQmjV3XNaG56ltQFeht0dts8B9zgbeGlnAJr8b2bN/jNjx9Aw32fvNjKbtzpWsn0MIBaEXWQv8NLOADQ/Y/dtVOuapU+GG3brWDsMHxB2kc3ASzsD0FzYZcZuS6KX/V420Yjq2BFaG5BphF1kNvDSzgA0+N8KYbdlQIXgpAAAIABJREFUeqISzOzd+dDagAw79PLIU7faPgTc517gpZ0BaAhhtz3RS+P8TJvi1M//srZ+GMiQQzpSV0t//4jtg8B97gVe2hmAebEquH0hX1abCQspkMWwO7K6l7CLbAZe2hmAef4bGfhbVgW3KaRVws1gIQUygrCLjAde2hmAORF24xHSKuFmjR3+Cq0NcBlhFx4EXtoZgFkRduNDO8Psosnn5fRRRtzBSYd1pK6jjQGZD7wqpz5k+wyAsxfUVh+0fQwv0M7QWGvD5MijKXwaQFNh1/TssikF2Q+8Imqb7RMArmEaQ7xoZ2i8tSGaeCHmpw+0hLALjwLvZ14k7ALTEHbjRztDg8+pOsoWNriAsAu/Am9OC4EXmIKwGz/aGZpTOfmkjB97KIFPAmgIYRf+BV4tuc22zwC4Qq3Zz7rgBNDO0LzTT++V8sknE/g0gDkRduFh4B0c3ihK+mwfA3CBuuhxyb2NW/JJoJ2hNYwqQ8oIu/A08JYj2hkAo/cZyQ38Hc8iAbQztDeqbPTwl2P8NIBZEXbhb+BVStHOAHS/JPkr/0akY4xnkQDaGdpTHvkh/bxIGmEXHgdetqsBUgu7772r9k8kg3aG9o0/e69UxxiDikQQduF54GW7GnCmskvYTQztDDE9x+qonPr5l1g9jLgNs1QC3gfenJKrbJ8BsEmZC2q9z/AhJIh2hhifJf28iBdhF2EEXsaRQUKftbtmv+1jeI92hnjRz4uYw+4QTxR+B95PD1/FODIEPX5s/bdsH8N7eqJiJsHYPoZ3mM+LNhF2EVKFN9po9/0BS7pfktzb7uPxp0CfmOQ5J2Ts8JclmniB54tmEXYRVuBVSn3I5vsDVnSMMZEhRfokgTcp0eQLcuoXf5nY68NLWkfV62hjQDiBd3C4R4QLawiPuuxBJjKkRJeroieqab1dkMyYsrGn9to+BrJB6yi6aWT1+QdsHwThsRd4K1WmMyA4as1+LqmlSI9W0ny7YE08/xBLKdBg2F2+h0eFwFoaFIEXAfbt3mv7FEHRxydsHyGoS2wspcAsCLsIN/AqYZ0wAuzbRXqqmnFkKTv187/kEhumI+wi4MB7Zp0wExoQDPp208fsXVuX2P4nNrHhlf8MdaRvo40B4QbeSpWwi2CoSw/St2tBxHQGK6pjR2TsqXvsvDmcoiJ9+8jqZXfaPgdgLfDmtGzj8SOYvt31D9o+RZCo8Noz+dIjcvpZ+tVDpiK96+XVywZtnwOwGni1ym2w8b5A2mpht/slHnzK2K5m3/iz98rki4/YPgYsIOzCRekHXvp3EVArg/mC9DGOzA2jpS8zuSEwhF24Kv3AS/8uQkArg1VsV3PHyZ98jskNgSDswmWpB176dxECWhksYhyZU3R1VE7+5HZCr+cIu3Bd6oGX/l34jlYGu7is5h7GlfmNsIssSDfw0r+LADCVwS7GkbmJcWV+IuwiK9INvPTvwnOKqQz2jVdsnwBzjCsbe2ovz8cThF1kScotDeqqdN8PSPui2rd45BbpclX0RJXPwGETzz/EjF4PEHaRNakGXiVqc5rvB6SJVgb7GEeWnRm9LKbILhXpPSyVQNakF3gHh3tEhJXC8FP3S8zcdQAX1rKDxRSZDrs7bJ8DcDfwlgm78BfVXTcQeLO3mIJtbNlB2EWWpdjSENG/Cz+t+BnVXQewTji7obd88knbx8A8CLvIutQCr1L078JPuXVcVHOBPs1ltawa/flfsoLYYVqpfbQxIOvSvLRG/y787N1d8TPbp4D5TfnUJM8h09vYPkfoddMhqcpNtg8BZCPwDg6bsGsurQFeoXfXHZr5u5lG6HXSIR2pq0dW947YPgiQjcA7WaW6C/8wmcEZ9O/6gdDrFMIuvJJK4M0p4cIavEN11x307/qD0OsEwi68k0rg1Sq3IY33AdJE7647GEfmF0KvVYRdeCn5wMvCCXhIXXqw1tIANxB4/Q29kyOP2j5KSA7rSF1Hzy58lHzgZeEEPKRWPm77CDhLl6si5Yjn4WnoNSPLWE6RWtg1F9RK6bwd4F1LAwsn4OFltYv/1fYpUDfO/N0QllOMH3vI9jF8RtiF9xIPvEoJ/bvwCr27bqGdIQynn94rp5+91/YxfETYRRBSqPAqJjTAK7QzuEVT4Q3G+LP3EnrjRdhFMJINvIPDfSycgG+o8LqFCm94oXfsqb22j+GDEj27CEmygbfCwgl4xqwR7jxt+xQ4i7AbponnH5ITT/5x7VIbWq7sbuGCGkKSbODVig1r8Irqecb2ETAF7Qzhqo4dkRP//icSTbxg+yhZQxsDgpRo4FVKbU7y9YG0qQt+ykN3CBXesEWTL8jJn9wu1TEmaTWIsItgJX1pjQovvKIWvWz7CJhqkpFkoTOh98STf8LYsvkRdhG05AIvF9bgo15aGpxR1aInCLw4g7FlcxrmghpCl1zg5cIafEP/rlP0RMX2EeDgBAfT4kBf7zkIu0CigZcLa/BNkekMLuHCGmZSOfkkoffVYXeIny0IXWKBlw1r8I3qfsn2ETAFF9YwV1/v8X/7w9D7egm7wBRUeAFkExfW0EBf7+jhL4c4r5ewC6QSeAeHe0SJ2bIGAPHjwhoaNPnSI6HN69U6im6ijQFII/CWGUcGIDlcWEMrLQ6nn703kLC7/AHbBwECaWmImL8L/0wutH0CnMWFNbQ6xeH4v/6hr9XeetjdY/sgQDCBVylhwxq8o4dX2j4C6srM30VrPK32EnYBOxVeRf8u/DO6TGRyge1TgAovYuBRtZewC1ic0kBLA7ykhy+yfQTUAi9LJ9A+D6q9Wkf6NtoYABuBd3CYsAtv6effaPsIqGqRSPMcEHu1d+LFRzL1VFWkbx9ZvexO2+cAwgy8lSrtDPDX82+wfYLgMaEBSVV7x0pfzsyWNhXpXS+vXjZo+xxAuIGXlcLwmD72htoXWPwMxrmwhmRXE5s2B7OwwtXgS9gFHAi8SikmNMBr+on/yvYRwsaEBqS0sMLF4EvYBdy5tNaTwGsCzqDKa/n5U+FFoMF34rl/HH556HeZswu0QEmcBod7VEUPx/qagIu6X5L8+78g0nna9kmCU/3liOgJ2hpgR0fP26W44gPSsfjNqb7v2NP3yMSxB81XD0sud7Vc++1SqgcAMi7ewPvp4auU0vtjfU3AUWrFzyT3Hi5Ip63yo5dSf09gulzn+VJc8X7p7HmH5IrnJ/aATFV5tPTlWm/xFIRewGrg/cyL25Tk9sX6moDD1Ov/n5Hc5V+njSfFCQ3VXx5P6+2AhhQWv1k6l22uVX3jCr+6Mirjzz8kE8ceEl0dnem7EHoBe4H3pTuVqJtjfU3AXSM6UlvyH/1PG1VO7bZ9mBDosbJUj5ywfQxgVvmFqyS/oE86et9eqwIXFvY1FXLLp56UyRe/W6vozhJ0pyL0AjYCr/rMy6ad4ao4XxNwOezK53uHzL/kn/id7YTe5EUvj0t0bN4QADhD5btrIVjlF9YCsCp0vyrk6uqYVE492eqluGGp6qvl+n+q/VoEIJ3Ae4i1wgiBjlR/PezW1UKvyt0hStPikBATdk3oBXAOQi+Q2liywWHzmzxrheE9raId08OuUV33jT1KyxbRasTOyfyny5HtIwAu6pW8elj+4X38HgwkHnjLhF0EEnY/t3zWOZjldX8/ROhN0CTjyIBZEHqBVAKvqvLXuAg67NYRehP8DKjwAvOH3v/9vdylARILvFrxVymQ0MNuHaE3IZFO6pUBX/RKLvew3L/1RtsHAbwMvErJhrheC3CJ1vrWZsLu9NCrRdiIFMfnMFGJ42WAECjRspvQCyRR4RXV+LBBICO01rvkT5e1vE7NhN6q0oTeOFSp7gJNIPQCyQReLq3By7A72PYLrf1GidAbAwIv0CxCLxBr4B0cpn8XXokt7NYRetvGhTWgjdB73zW38PwQsngCb1mY0ABvxB526wi97SkzkgxokRLRX5J9W3fyBBGqmFoaIiq88EJiYbeO0NsyTUsD0A4lkewk9CJU8QReJVxYQ+YlHnbrCL2tYQYv0C5CL4IVS+BVohhJhkxLLezWEXoB2EHoRZDimtJADy8yK/WwW0fobQ49vECcoXeQ9gaEJK7ASw8vMsla2K0j9DaMHl4gZvT0IiDtB15GkiGjrIfdOkJvY1grDMSN9gYEo/3Ay0gyZJDWeq8TYXdq6J0o9ouWIdtHcRITGoCkEHoRhBhaGhhJhkyG3e3imv49I5XJ4hZC76tpqrtAkgi98F77gZeRZMgQZ8NuHaF3ZlGU8gcBBIfQC6+1HXgZSYascD7s1hF6X42WBiC96Q33ve9rPG74Jo4pDYwkg/MyE3anh17RB2wfBUBo1A5CL3wTR+BlJBncZi6CjeZukawxoffN39iiI9kroaPCC6SM0Au/tBd4/3iYlcJwm5YhPaq2yJ29I5JR1XVf3x586K3Swwukj9ALf7QXeAtC4IW7PAi7dYReAPZC79b7ZfdVtC8i4MCrqwReuMmjsFtH6AVgybWyuPNhQi/CDbxKEXjhHg/D7tTQK5HcZfscAAKjpJ/Qi2ADr1KyIb6jADHQUtIVda2PYbeusu7rt4hZiwwAaSL0ItwpDYqeHrgWdrfIn/eWxHOVt3xjMKTQq8tcWgOcQOhFmD28XFqDIwIKu6GGXgCOhd59v0lbI0Lp4SXwwgEBht06Qi8Aa6E3igi9CCDwDg6zcAL2BRx2gwq9+Th25ACI2WpCL7Ki9d9FyqwUhmWE3WBCryLvAq4i9CITWv9thBm8sImwG1zoBeAsQi88DrzM4IUthN1ZEXoBWELohdPa+YtCbmcifYTdeRF6AVhC6IV/gVcptSreowDzIOw2jNALwBJCL7yr8LJ0AmkaCX0aQyuhV0d6h/igM2/7BAAaR+iFV4GXsWRIy4iOCLutqK77xh5vQi+ALCH0woPAOzhMdRfpht3P9w7xyAMOvXll+wQAmkfoRcYDb5nqLlJB2I1J5kNvjkG8QIZD72PyD+/jb4VhVWu/i6gqFV4kjbCbROityLWi1YhkjMpR4QUyrFfy6mFCL7IXeLViJBkSpavRDtoY4le97OsPKC1bMhd6aWkAso7QC6ta/XtCKrxIjFbRDvnC8gd4xMkor/v7oSyGXtVBWwOQcYReWNPS7yBKyYb4jwKcDbufW76HZ5GsrIZeAJ6E3nu3brN9EISlxZKJosKL2BF205W50NvBLF7AE72i5H65f+uNtg+CcLTYw8taYcSLsGs39GoR9xd60NIA+ESJlt2EXjg+pYHAi/horW+ljcFu6K0q7XzoVVxcA3xD6IXDgZelE4iR1nqX/OmyO3molq39Rsn50EtLA+AjQi+crfAykgxxht1BHqcjHA+9iiENgN+h975rbrF9EPir+d9CyowkQ/sIu45yOfQuKNg+AYDkKBH9Jdm3dScPGW4EXl2lwou2EHYd52roZb0w4Dslkewk9MKNwKvYsobWEXYzwsHQW1s8wYphwHeEXrgSeGlpQGsIuxnjaugF4DtCL2LX9O8eSmRV/MeA7wi7GeVa6O2ijxcIBKEXsWqhXMKWNTSHsJtxDoVeZvECQSH0wualNcaSoYmfLowe8yr0ipYhm8dQRdYLA4Eh9MJaDy9TGtAQwq5n1n6jVJks2g29jCYDQkToRcqBly1raJDWei9LJTzUv2fEZuhVBSq8QKAIvUi1wkt1F42G3e08Kk/ZDL15xaQGIOzQOyj3bf2S7YPA98DLljXMg7AbCJuhd2FH6m8JwCm3yn3v+5rtQ8DnwKuqPYmdBJlH2A009Io8kObbKkaTARC1g9CL5AKvZssaZvmpIeoB2hgCDb1v/vq1OpK9ab2l6qKPF0DtVwNCLxLr4aXCi1czf619SnbwaMJVXff17WmFXlVk+QSAV35FIPSiIVxaQ3u0DOlRtUXu7B3hUYYttdBrLq4xjxfAOaF36/2y+yqKcogn8CqlWCuMXyPswlLoVd1cXANwjmtlcefDhF7EuFoYIOxi7tArkdyV5DNSTGoA8KpfGKSf0IuYLq0xhxeEXcyvsu7rt4hZK50QAi+AmX9xIPQilrFkBN7gaSnpirqWnl3Mp/KWbwwmFnrp4wUwG0Iv2gq8rBXGmbC7Rf68t8TDgO3QSx8vgHkrvft+kw2xaDLwnmYkWdAIu3As9KrFnXG/JADfQm8UEXrRZOAt0M4QLMIuHAy9tXm8ORXnSwLwz2pCLwymNGBuhF24GnpNHy9rhgHMj9CLJgKvrtIHExrCLhwPvbQ1AGgQoTdwjQdepQi8ISHsIgOhN7e0GMfLAAgDoTdgtDTg1Qi7yEroNW0NLKEA0DhCb6CaCbxUeENA2EWKoTeKqre2+zq0NQBoEqE3QA0HXqXUqmSPAusIu0hZtO4f7tSR3tHOa9DWAKAFhN7A0NKAuhGt1bUslUDaquu+saet0EtbA4DWEHoD0sSUBloaPDaiI7VFPt87ZPsgCFO7oZe2BgBthd5/eN9GnqDfmpjSwKY1TxF2kfnQW2trYAkFgNaslrwi9HqumZaGngTPATsIu3Av9FbkWtFqpKkfmFeS62FEGYCW9RJ6/dZY4B0cJuz6h7ALJ1Uv+/oDSsuWZkMvbQ0A2kToldAD72mqu77R1WgHPbtwVXnd3w81G3rNPF5m8gJoE6E36MBb4MKaT7SKdsgXlj9g+xxA7KF3cScPFUA8offerdt4lP5gLFmIYfdzy/fYPgeQROjl8hqAmPSKkvvl/q038kRDCry6ypY1DxB2keXQq0VKDV1eW9aVyrkAeE+Jlt2E3pACr1JcWss4wi6yHnqrSjcUenO9C9I5FIAQEHoDa2kg8GaY1vpW2hjw/7d3dz9yXOmd558TWUVKlnuYtNozWGN3VGxA8MzSMIu9uze7QKtKhr0vkMgoyjVwQ0Cz2Bd9aVG68YWNZrFn2wPfSKT/gFaxgcYY5gwritYuZrptqbRXe2E3k70rYAQBzdJi0RcebzPVMpsvWRln8WRGUsVivWSeEy8nIr8fgKZbUlVFRWVF/uKJ5zxH6u5f/sXWWKFXd17TubwAkA9C7/RUeAm8dWWtvSzfff5K1ccBlBl6o+ep8gIoIPT++//xIue10T28BN4ah93Vqo8DKDv0mqMtRpQByJsRsW/L+u9d4tQ2NPAaY14o/lCQJ8Iupj30Rr9OlRdA7oykconQWz+MJWsgwi6mwiGhd7ARBb28APJH6K0hFq01DGEXU+WQ0Bv9+q+Uf0wApgGht2bo4W0Qwi6m0gGh18xGEv0ac3kBFILQ28ApDWw8ETjCLqbaAaE3+vKviESmmuMC0HSE3pqgh7cBCLvAF6FXrHSeOB/svgagWITeRgTeP7pLdTdghF1gh3/5F1vbj44+FXoHVd5Z7u8BFIbQGzjeAWrMpvYqc3aBXU6vdfcKva3f+FVOFYAiEXprHXhn6N8NkbX2mvzp8+z4AowZehlTBqCk0Lsq//733uZsh4UKb13D7nefX6n6OIC6hd7WP3uOBWwAyvCm/Pvf/R6nuk6B1/TbpRwJxkLYBRxCr0jyeAHbP2U2L4AymAuE3joF3lQIvIEg7AKOofe//rdLNpVr+j+j488M2hsAoHiE3hpVeA2BNwBWTEIbA+Cu/1v/dmUUelv/5ZdobQBQEkJvXXp4CbxV0x7Ef5QLVR8G0JjQ2zJMbQBQcuj9vRvy7gKZKtwKL4G3UlY69p5ZlCvHu9UeCNCs0Gu+dIRthwGUaUm+dOR9Qm+ogdcSeCtD2AUKC71i7WXdkMIcneEsAyiHkdOE3kADrzFyrJxDwRMIu0Chtk/+xapEcjn6r+jnBVAiQm+oPbwsWisdYRcoLfSaGXOZXdgAlIrQWzo2ngiNlS27bZbo2QVKDL2/Ons5+vVnOeUAyg29/+TIj2X9f5rjtBePKQ3hhd1F+bPjW1UfCjBtoTd6/tnL0bGjVR8KgOlyQtL0fUJv8Vi0FgrCLhBE6GURG4CSEXpLwFiyEBB2gSBsn/7LVfPPfuWyzNLtBaBUhN6C0dJQNcIuEJT0v/t3q9F/8auXJTJVHwqA6ULoLRBljCoRdoFwQ+8/fZbQC6BshN5KAu8f3WXlYFEIu0DQ0v8hWY2eaV2u+jgATB1CbwGo8FaBsAvUQvo//++rMmverPo4AEwdQm+pgfdZthXOHWEXqJcz//GKiL1Q9WEAmDqE3tICb4/AmyvCLlBPr/1ojdALoAKE3pzQ0lCerrVmiU0lgJoi9AKoMvT+5e/O8wMoKvCaftvjc+MLXZuaRfnT4x1OClDz0BvZ0yK2W/WhAJgqJ6RlCL2FBd6UloYcEHaBJln6UUciWRQRtgAHUKbjhF53tDQUi7ALNDb0RoReAGUj9BbT0mCYw+uOsAs02dJ/2CL0AqgAodcBFd6C2H56gZ5dYBpC76PTYu1m1YcCYApD77/7vbjqA6kLAm8BrEkvyL/5clLE5wYQmKXNrvz+jxbF2qtVHwqAqXJcjNyQG793vuoDaULgpaXBJez+6y+vuf9IANTS7//ooqTCVsQAymTEyruE3sNR4c0RYReYcss/XBXbX2KCA4ASEXp9A68xcmycTwLCLoDM7/9NwmI2ACUj9PpVeA0bT4zBWnuZNgYATy9mk2ucFQClht7137vEGX8aLQ15hN3vPr/q+3kANHEx2w9X6OsFUCIjqVwi9D6NwOuBsAtgrL7ewXbE7MwGoBSE3okDr2VKw76nhsougEl3ZqPFAUA5CL27UOF1QNgF4NTXqy0Okr7J2QNQAkLvDgTeCRF2AXh57a+vSBSdoMUBQAkIvWMFXkNLw06EXQC5VXtf++EJFrQBKIFhIRsV3rERdgHkjgVtAMphpj300tIwBsIugGIXtOnMXnuVswyglNC7Hk/diTb7/pvVu22zbe/KlCPsAijN+u/OS2rWRWgnA1AYK5Fclp75jvyr/2in5TzvX+G9L1O/y5pN7VU2lQBQarWX3l4AxVd6V6WVvi03X9m/8NkwtDTsw1p7Tf70+Yvl/jgAYNTbyyQHAEUyF6X38HvTEnr3D7zPTm+FdxB2v/v8StXHAWCKjSY5iL3ACDMAxTAr0xJ69w+8vekMvIRdAEF57Udr7NIGoDhmKkIvLQ07EHYBBL1LG20OAIoMvf/b/2LErjbyHBN4M1ZMQhsDgKDR5gCgMGZFHvTel2ubx5sYegm8ykpH/lG0Tw4A6tHm8Hiag+1WfTgAmsIsyK8e+Zsmht79A6/tz8k0sNKx98yiXDnOmwaAGk5zaJ0WK9eqPhQADWHkdBND73RXeAm7AJrU30vwBZAH07zQO72Bl7ALoLHB125WfTgAGhR6P1iQ5gZeY5o7lszKFm0MAJobfH+0KGm6SPAF4B16v3Tk76T7zIm6h96DKrztxobdbXp2ATTc8l9vEnwB5OCEpOnf1D30TldLwyjs/tnxraoPBQBKQfAF4K/2oXd6Ai9hF8A0eyL4MtUBwHSF3ukIvIRdANgRfJnqAGC6Qu9BgbcZc3gJuwCw9+K25//7HePM2MACQHNDb7MrvIRdANjf4uqO4Ns6LWJ1x0nWOABoXOg1+/6bP/7/1owx56WuCLsAMLkPlkV+3l0RK+fFmHq8kwGoyh2Jot+R9oM7shj2+O9mVngJuwDgZvG6yGs/WpN/0V6UyLJtMYBGVHr3DbzGyDGpI8IuAPj7resiSz/qPO7zpd0BwGGh9y+XpXYtDeZPfv6BiIQd13cj7AJAcT5YEfmH/3dBTLQiRurb8gagCHekb18Tad+Sf3VdQtOkloautWaJTSUAoCCLa8OxZlR9ATzthLTM34h0T4dY6W1KhbdrU7Mof3q8U/WBAMBUoeoL4El3pW9/J7RKbxMqvIRdAKi66vua9vo+Oj7o9bU27OXaAIp0PMRK70EV3lsiMi9hI+wCQGg+WBXp/p9zIv2zkpqLjdnICEBtK737B94//vkdMUFfpAi7AFCvloeXCL/AVLkrRt6U7WPXqg69tQ28tp8uyb/5clL1cQAAxkT4BaaRFSMXqg69tQy81qQX5F9/ea3q4wAAOCL8AtPEVh16axd4CbsA0DCEX2Aa2CpDb60CL2EXAKYl/JpYjDlLzy/QwNBrfuWaLCXBTGmwEhDCLgBMmf97WeSTrk4Lekn6ogG4LrPhAezPSiSXRX7lcpmhtxaB11p7Wb77/GrVxwEAqHjUWdpfENHKr9W/2/w8gFqyZYfe4AMvYRcAcGDrg1aAjQl9bjyACkNv0IGXsAsAmLz6O9g0Kag1KACqDb3BBl7CLgDACb2/QJ3YMkJvkIGXsAsAKKj94RSL34DpC717B94/ujtnZu0dqQBhFwBQ3JvMqkiy2ZbtmXkCMBBg6F364eXGB17CLgCgsgAs0YIY+5IY7QFmAgTQpNAbTOAl7AIAgmqBmDGnJB3M/mURHFDz0BtE4CXsAgCCnwLR7w2rwPQBA7ULvZUHXsIuAKD2VWBr55gFDOTuHXnth2/VPvDa1F6VP33+YtFfBwCAUnuBIzlFKwSQB/uuvPajbxYTeFfvzptte0sKZK29Jt99fqXIrwEAQFAhmEowUEno3Tvw/vHdBWPsB1IQwi4AQKY9BLcG7RCnRewLzAYGig29pQdewi4AAPvsDtdP58S25qkGA/mG3lIDL2EXAACXTTJs+/GECJE2C+Qwtazcks8fvSwXNrtBBl4rsin/668t5vk5AQCQaQ/CVIQxbezkobecwGulY++ZRblyfKI0DgAAHFojtm172CMsJ4Zzg9k9DtMdeosPvIRdAADCqArL7NzjPuFBm4SGYTMnIvoHaGzonSn4QKjsAgBQNbOq/1dDQSf7kxxaGTbmheEYNQ3DRsMxEBYjp+WfzL4tIt+srsJL2AUAoHnV4Sh6YUcgbtMugYpZSdOXZfmvNyev8Nr+nJjI50tv0bMLAEAjq8NP21khtka3WZ573DIxmCpBlRiFMWLMWdHhCKW2NGjY3WaBGgAAU+NHFbD9AAAgAElEQVS3rsu+YXjkgwWNzXOyPTMMw7srxQRjOBv0ocvkgfdIqyPb1j3s/tnxrck/GAAANNbioACn+WDrwPaJjc22WGk/Dsat6AXZNsclsi+IzRbXsdAOOxl7TJx6ePVf/MnP7w7utsZF2AUAAGXZHY4H/2xHO4WRY08GZK0is/iukay9Ir//ozedWhqstVeNMZfG+0JUdgEAQCW9xfpnvCfLo7YKmW0P+o01GKeR7lw3DMZaRdZQPGyxICjXgxVrN5wrvIN/+Sc/vyWiw6oP/DK0MQAAgOmqJo/C8qwcG7RcjKrKTwXmAeYcF8XKuvz+D88d9p8duGjNzphF2U5XjZg39v4asinb5gI9uwAAoLFcqskHhWY1Cs6Df5cF4y8CclZtHvzDLwL0E/8NLRoickda0Vtj/QjH+iH90d05mUlXxJiXRGxXUvlUTJrId3/9wBEQAAAAKNjjVo3MzjC9M1CrUUV65HFlOjPqe95pZxAf/kch9EOvS/Tom7Lks7UwAAAA4Bq6H8v6pfcyagvZz1NBe7DIbEtme8m4QRcAAAAAAAAAAAAAAAAAAAAAAAAAAAAAAAAAAAAAAAAAAAAAAAAAAAAAAAAAAAAAAAAAAAAAAAAAAAAAAAAAAAAAAAAAAAAAAAAAAAAAAAAAAAAAAAAAAAAAAAAAAAAAAAAAAAAAAAAAAAAAAAAAAAAAAAAAAAAAAAAAAAAAAAAAAAAAAAAAAAAAAAAAAAAAAAAAAAAAAAAAAAAAAAAAAAAAAAAAAAAAAAAAAAAAAAAAAAAAAAAAAAAAAAAAAAAAAAAAAAAAAAAAAAAAAAAAAAAAAAAAAAAAAAAAAAAAAAAAAAAAAAAAAAAAAAAAAAAAAAAAAAAAAAAAAAAAAAAAAAAAAAAAAAAAAAAAAAAAAAAAAAAAAAAAAAAAAAAAAAAAAAAAAAAAAAAAAAAAAAAAAAAAAAAAAAAAAAAAAAAAAAAAAAAAAAAAAAAAAAAAAAAAAAAAAAAAAAAAAAAAAAAAAAAAAAAAAAAAAAAAAAAAAAAAAAAAAAAAAAAAAAA1ZKo+AAAAQrWysiLdbndBpD93+H9tt5Lkvc0yjgvAZAi8AADssrq6Kp1O54QR+76IzI3/pmrfuZHcfIsTCoSFwNsQcRy3RdLzkZgFKzI/4YdvidjbVqIrSZJsFXSIAFAby8vLZrv3SMPuwqQfa8VeTpKbq8UcGQAXBN4GiON4zoj9YJIqxD66VsxikiSdnA4NAOpa3T1uxP7c8VPcXU82fi3nwwLgIfL5YIQhEvtODmFXtTU4D6vFADDVfK6DXEOBwBB4ay6OY21hiHP8lNoacTHHzwcAAFApAm/NGUlX8v+c5o28PycAAEBVCLy1Z84W8EnbcfzKxAs1AAAAQkTgrbE4fnWlqF6xSFpUeQEAQCMQeGvMSHS+qM9tRRZYvAYAAJqAwFvjUWQu8yEn0Bbp594fDAAAUDYCb20VP0nBSFREfzAAAECpCLw1ZYpZrLbbAovXAABA3RF4azp7N6eNJsYQ5TnjFwAAoHQE3hoqYvbu/l/LFLYwDgAAoAwE3louVis1hDKTFwAA1BqBt3b6pW8IYaR1qeyvCQAAkBcCb80YiarYEIKZvAAAoLYIvDUSx/G8iOgfF1tW7LWQx6ABAAAUgcBbI8YjdBqRTZFoLfAxaAAAALkj8NaKecn1I1Mxl5Mk2RSRruOnmGcmLwAAqCMCb03E8asrHrN3O0mSbOn/Y8VcdT8KZvICAID6IfDWhJHIeRSZFXNlx/+84n4M5nwcx23XjwcAAKgCgbc2s3fFZxzZh6P/J0kSbWnQ1gYXbZF+aZteAAAA5IHAWw/OIdOIrI3aGUaspM7TGoxELF4DAAC1QuCtASPWuZ0hlf4e4baVeCxe05m8rr3EAAAApSPwBi6OY21lcA2YW0ny3lPtC9rW4DmTl7YGAABQGwTewBmPcHlwqI20yuvEiKlitzcAAAAnBN6ADVsHjHM7w0EbTWQzeTuOn7jNTF4AAFAXM1UfAA7SX3C9J7Eim7sXqz3935gNI9Zpq2IjrUse0x6m+AZme14kmo/EvGCH20S3d/zZbSvrte6K2NtW5I5IeltkRucqu/ZgN+x86u+ImcvO59yO9p/92oCy8ylbRkRbez7lvO5teXlZer3evEh/3ojRP8fGPMePX7dGZCsV+6mI7Yi0tpIkcb3Jnjp7nP/Ra7x9yLkfvLZTsbc573tbXV2VTqej1495ETO6Ho9e2/tdj5+4dnB+68dUfQDY31J89pbucOZyjqyYlSRJDuzT1Zm6Ruxdx59B14o5UcfgNZwl3I9FzDEROb7/f5l2RGY2fb5H7cE2kurX0ukWeS7264jYD62kyV592k00/Lml5yMxC3Y4pq+ImdD6ZtZJxSYi0YeH3TQ2jb5eI0lfsmL0/I5uyPKkv0sd+8X57QQciE4YsT91/BR2PdmIHL7m4DVuxMQ5n399XW+m0t9Ikvec29nq6otz248jiV7Krh9zBb2uN6btulEXBN6Aq1dG7B3HD++uJxsHBLkvLMVnP3Cd8WslfTNJ/sp5I4sKz+sHE1zstqyYxUkuYPo1IknPWzEXCwplu21ZsatNDGijkJsFAJ9Z1K42rdi17E2sdjd344jjeD6S9GyJr9fdr90roYWEMgPvysqKdLvdBSP2Ukmv8Sz8DrabD+acF2F0biOxbxR4k7yXW1bs1SZek+uMwBuopfjMmmv/rs7evZFsXBi/AjkIgC4215ONRamRpfjsHYc7ew29pw8LPMMwna769V370Z99E97INOhGkr5RUQibipCQ/e6XFbJq9dotI/BWEHSDPuf5t4M8WMl2KK3y9a1tPUkTz3EdsWgtWOalfGfvHrh4zWMm7ytBvFmOI5sf7PIYK+u93ffzts/FZy4ZsbeqDLvKiqzoDUwcv6pBsZZei+M39OmGFbMaSNhVc9m5vaU/a6l50NUnO9mNbjC/v9n5vXMuPvtuk2d9a5iO4/j4L7p316v+GWTn/Kd1f03vvInQ1/d279EHRqJ3A3h9t3ee4+ETK1SFwBugOH51Je/Zuwfxm8kb6aPmuvB4EzVz+z0O1hAUWjgzEr2joaZOwSELYnfSwSPuYM7lbm39Wetx1unc7rgxe6fqkDVtIWynb33rFel0/m5Jvz8rEsq102Sv6Z/W7TW9+ybis+7P1wJ9fQ/OsRH746WlM5UWRaYZgTdA2WMYJ1nwmpDXTN7z03rXmlUidWFhqG8Sg3YVDeVSnyAW6rncTXvBb9Wlkr7jxqwWx9uEELbb8vKy+Ye/j94xEt0I9IZOWzh+HMevhBLEx67qdjqdRT32qp+wjeGEWPNuE2/m6oDAG5js4u5zd/rhpB+QtTW4rvRvG9N3br+oq3NxfCmrRNYimL0Wx+dDXkRYoyC2U1sr6aG/edXgxuwggz7a0M/xONXH7d6j92vwOj9upHWjLjdyr7/+unze7V40Yt+v0et7dDP346bczNUFgTc8znfXVqzzSmedyev6dcVGtbg45hl2h1MR6iMVuxZa6M2qjlrVDboCfRh98wo1INToxuzQgHAuPvN23Z4m7Vj89n6Aj9n3Y4xEb4f6mt5ZMb9/7/N3UrHvSD2d1tcFobc8BN7AGLEe2/ZG6x5fes1v8Vq93oimKezuDL2htDfsCLuNqHBopTe0R8F1fq3uxYp5MwsI7RqF3eNZ2A3i927S0Pva0lJQN8kjX//6102/9+h7NaiYH2ZwM0ToLQeBN7BFO36L1Q7eaOIgOnJLxy65frxIWvcLz1QEiKyndy6ANga9OatFcBmXkVYw0wWa8Fo9pCoW/GvnP/2nH5uaPWrfzaQ2fSeUm+Sdld2H9++9rYsbpRkIvSVha+GAGElXXEcj+4XVoVTMVSM2dl28pkUNaahIzCkrtgmhvp2FzdNVfPFsd7+iKrtdK7IVDXdK+2z3EwvdPlS//3TQ11xIxa3SczsFYXdn6NWFXy9LuMyjB/J2DSu7u2mF+kYcx18NYeOVlTiWX/R6lwqq7B50/Wjr9aPAa8co9AZxnpuKwBuIYcXCnvcJq77HoIvXluKz+svmUj2Z05m8Td3mNucLrF5YtaL+RL+17uVuyqkGzetUhBvJzTelZJGk+maV2/eob1AiRp9s6BbQE732ssqVtlbkOZx+Po7PrCbJzUoCp7ZVFBx2D7ypGAUDO7yGFNmzuqg9vTeSm29J868ZVV8vTkRiv6f3UlLxZhLd3oMLRqJLVV4/RhuGiKSxyXfL+CDOc5Ox01pAs3ezQdkuOuvJRi5VpTiOdVag0wVFt1JMkpvBVkE9d5VzZgfVd6PTM/SC2hljxzYNYnMi6ULOF9Rdx9VfLPMGZTQaK8dzqrsX5XL8w1aEdDV7UuGrm+3MtxX4ttmF3lTsCAYL2XnN+3VsrfRfLuI1nMNOa76vbR0Vefuw68VwR7FeGdcLK8ZeWF+/6TGzPZefx4/zaIXK6/pRwG551kr6VpL8Vd0XmgaJwBsI3STA9RfGilnx6d/d401Tt991faM/EeojmZIDr54Lrbpf8T0fwwCcXswpjFW2NbTjts57nVd9oyrkDSHH4Fv6tts+25EXfVMxCgaR2Ddy3nBBd+TL/TFwBYE3l+vFFwG4kOvFXSvmK1Vc38+dO2ds2v9pDtcPfb18M68b5V3nfSULvr7HaLPXdCenw0OGRWtTOnt3P1lVynkmr0i/KQsJnGkgy4L/ah5vDnrhS5KbK/o5/XbFe8pCWaOHPHcPHOlkldPCqh/6+s/O9WXPT1XqttvD85tbwNFQsJgkG4t5BYO1tbVBy1Rr9siSFXNBF9nmNsi/3gtmu3leL65fvz64XszPf7WI68XxKs619u1KmnoHSSOyngXJ3J8I6Hmfn59fs2JeNiLOGzlldLGj9n8jZwTeABhJnXvujMha3o9OfWbyGon0kdq02soCWS5B94Awlltg0H64Mla8++weqPSNW9t2ymoT0J+hf+gtb9vtvPoatS2pqFCwKxh8Na8wZsT8YSjTMSZhRT4o6nqhFWr9XZmdPZrz9WJwrkubkKHfR1dEg7vX69uKvXwj2ThXZHU6O+d3UjFL+dwwhz0HuY4IvEEwzjuVpdIvoqfKdyZv3Vcm+1QfC38MlSSJBobFnN7E2kVXbXyfYOiblQZ9Kdkw9LqHsrK23c6pej46zxeLfmSdBYO7IlEelXR1PBL7bamR4bneeLnoG7idlcecrhelVnk//vhjY2RQ3fV9XZe2iDRJBgVe3xtmnYP87TqM36sTAm/FsmH1HrN381+woW94ftWXNKgB/CWF3cUye9v0jTKv0GvEeGx2Mo6+T9jVhZAVjtga7CLYDbnFJ4/qbtmhYBQMZmdnL+vP2PdzaV9wXcJB2edabzDm5+fv5BV6y6ry6nHfv39/zqdVx4q9UsX1Q1/bzz77rL62r9WthaTJCLyV/wBazr/Mecze3V+UhBuggjIInlUs5NgRen2/drvYflPjWvHfEokqnSc7vPlzH/lXdItPHtXdKsLuyPXr1+3s7FEdj+d7LatFOKjqXO8Kvd7XizJu5HKo7t4RifJ4guDkN3/zN61I9KbPTUbZLSRNR+CtkD7q9VmxnObzOHBP2sM3HEcUYoAKRreqsLsr9HrP0zXSym225W7Zhg8Tq/rc7qCL5FyPYz7s3mgdNVZlBV3k5MmTuir9m75BzIj5hgSsqmrjztA7Ozurodd3drE+bj8jYVd39TX1cpXXj+wm467nTUYtbuTqgsBbKZ9HvYOZmAUv4BnM3gwuQIUiG49V6qzV/Xp6c6iQLRRVSUjFfhrCYkxX2Zuma292u6ie9hymu+iZ1gVNldJgkE2G8G1tmAt48dqdpIKNXvbq6TXGrOUwSaCw60Ue1d1hK1T11488XttGTKE3F9OEwFshv947oyGnaFdCvSAGYKvI8ViTylZie1YzinpMGU1cIS3y6UXZk0t8bmwP5lf5GT5erz4UqPn5wT2BhgLP4+mHuH5AN8gIZke4U6dO2XRY5e2Geq4fPnzos5hbWxm8+8IDem3PT8kT08IReCvcBMGj904vVB5vwBNVtjwqh819FGPFLElAstYGr4t8Uf2m2bGdzl5LB77JahuNnttQgtgOHr8H+W2l/MRn9ZjuMhSVcdM8diXsueee08e/f+7xaUwk0W9LYIZPK97zrajm3dqw5bmgSs/116QA3/rWK5KmPefF3Fbs90O6fmTnW1/b33H8FEame9xnbmby+1SYhJFUB8U7nTR9HLVeUm+SPrY3YheqeUMOk76BrYe5C45WUi/5VuWLmiEsIqXuPJYznzfQ3APv8NG9nfd8DQcTCtSLL76ou5tpCNcRY05Ph2zBPdMObCr970t4dEHVmoh1XmBs89lK9ymff/4lY+TeWb/vKyzaSrK8vLy23Xv0tstrO9s1r/KWmLqjwluB4aP+wZ7nIc3e3U/HbyZv8x7FlHz+S6zI62qUZt6k5HRunX4PjJhT+R+RX5tE6t8vW1S/o1bCfI4ttDaqThGjI32NdmTzvF4U0jO9vb0tru+PVuxGSNXdnXq9nvV4bU/LQvBCEXgrMeh9aoc0e7e4mbzl7TZVklLP/6R8B/lb269zFbZQ1n+cU26MmAXP/vMQn1BIu9323So9pEVrVkw4vaR7sWJu+ny8MfnezK2srGgwXHB8f7TGtIJpHcn5ta1tDQReTwTeCviMErKSVnAB9ZrJW8puU2WxYiod4VRwRb6xbSgVKyCEuQcNrYJJoNbW1rTfUW8oXW8qgwry1lqf8F4Gr4Bo7faJ/A5FpNvVS1f6UhPPt762oyhyHvdpxBTSMz1NCLwl8x8lVP4drM7k9XgD0iHlTaryBntBzWGEVmgVMuzPo1c1DbYKtmsu76TB4G72caHYCvXx+kgURVse89ZzXyQ4OztrPG66O6Gf71arpbHc9YYztP702iHwlsxIuhr27N38xzL5DscPSPAXVP8RWoO5sYTegPnP9Z0Jqgp6wK5gizo6TRfYHfbHirloxXwlpFYNK/a2BM5aqyHA+ZylYo9L/pxe3yaw6v4+rLi/Lgqb6T0tmNJQOp9HxqXM3t3PWjYBoB3S6v8yWQn3cdkumzksiApupTNGtudEtFLkfNMW/O9htoBNby5DbyE6KNgEf72wSuxtIyauekHm8vKy9u/OG8f+3VTSn0gttDqDl4eTvgbeOgT7IFHhLVEcv+I8WzB7PHatvo/K6z+T15jWB1IDWZXLJ9Q0pue6mWacK/DWYdc7OJ/t4IPJ7OysHmcQr4njx+9roJtr8vk+efKk/uXcQuLTuw8qvKUyHhMLjP/WsVXP5H2jxtWaAWvDeGMYk15UnR5/RRJN9UU1W2Q5N6ymmGORGD2PbRtMf3M65zrD238nM4xvJvhK+nPPPSfdbm/LveKY3+/E3/+9PnBOTzX5fOuTi+Xl5e5271HXpbAQiTlWzJFNB1oaSpINij9f57mZunhtKT7r9Is6miMY8kivw4TUH3iY7DHlfEB9ecGH2mzTgraIndv5AMw5ChTHowJvCbzlCT6A3bt3L5jjfPbZZ839+/d8AnQQ38dh+v3+YMShS+tGgBur1AqBtzTaFxn59N0FEbZ0cLYR67SbVyQtrfLWNfAGcf4n4BxsjJgXpHmhdi4S80L2hqE3n+3AQ20hPx9jZu7kezTYTx0WuOoj9k6nE0RQ1A0nPK89QXwf40xqsGlfXxsu4Z52Mw8E3pIYiZy3fLVidMvYUOhIo0uuW1HWdfFaSJsOjF/Jc37sXZuLalNDbVGs7X1W9TEAe2m1Hsp2zzhfe+r4vuIgkLaqeiLwliCO44UvHpM6CWa1r1aal+KzWqVdcJzJuyIiIQX4MdmaBQXbbW5rUHo2a0HY8Xs1VaG2NjckwLgePZoRK/226216HL+q7y3B6/UeaAGs7XMNrMPTgxAReEtgJF1xrbbpjMn1wF7cOufVffFadLaOgTcSc1dqZSaIhSj5VHC3FyJpnbUi8bBqa6Yl2O7JijiHguHrAgjPkTSVh+7XHmMkejfnQ0LDMJasFEZDnhNr3Lf1LZDOaHWtIC7o4rWcjwdP69b9qchSfPYDI/aOkda6FdHqDZVNAIATAm/Bsscsrm/UW+vr68Hte6+9Ulasx0zgiMAbuCp2W9Nq7rn4zKWl+OxdI1ZnHuvrhJALAE9sPAMXBN6C+WyrG8Ls3f25V56zmby1kgYynL2JFd5R0NVqrhWjs5oJucAU0fm0D/i9R8EIvMVXyZyrmamYyxIoncnrEaoGM3lzPiTUbMUyQdeN8eixZrELAsaNLgpF4C2U+3a6VmQz9Dcnncnr+rFGWs5j2lB/2qNrxN6iogsAKAOBt0DGY7GaiNGFYaHzmbYwmMmb47GgBrKq7jtZj25wvWhWZMuIJFbsVSvmohWzZMWcWE82jP67qo8PAOCGsWThzt4NbrHaXo/NPWbyjirg2rOJKWnxMWLXreOWx3nR4BoNd87rpmL070+z3QxrEWizUO50banrxi+YCrwuxzLDeXJE4A1w9u7w4+3dpdijQFyfCjiBt7D+8XCm1cZxPK9ht8SqbncUbIehtv+ZSEvD7daUBz59qjLN3z8CXbT2B3HcfVj1gYRPr1912+Y+GATe4sKG83SGKTKvi9eS5L2Ap1EM6Za1MkXyrHZmYVdbGNoFhtuOiL0tEm3WqVoLAGO6a8W8zNlyR+AtRH+B9uhxRbEEPX6ttuYCamPIPewO+2ntRjYeTwMuVUtgilmxwU418me3RFoJ1zk/BN4CGIlqN2e2KkbM+TiOV/lFDko30LCbbXgS6YWfmyQ3LBRFkB5Fkdi079qfbpPkJu1xOBBTGnKmj2/1UX3en7fB2iJ93Y0OudpuVx14jaSrOVWau1bMZZ2WkCQ3L0572DVe0yK8XhdAsJj6g8NQ4c2ZGUwecF+sNo2MRGc9R5wVLhV7XGplxnnRWh7jt4ZbahvvPnYdDyYSBfEEwGfDh1AYM3us6mMA9tJqtQYVXo+bZBZk4kBUeHNnXsr/czaezuQNOkyY2i1aSys9n0Yi341FtqyYxayiW3nYDal6ZD22ubZ2u2Y3bpgWMzMzXq9t2nVwGAJvjoZVrfpXgaqhY9yCVqufqxFzyvVjI88Kbw6/B51h2A2qdSGkn7/HDYAJ6fsAHtve3vZ8bfdpJcSBCLw5MhIxisz53JnQF/q1Q6ryjcH54p/6VVl8F21mld3gxooF9LOPnM/NtI3XQ63Y4WhBJ0Y8bvIxHQi8OckeyTvuOIZhoHwl6PNnTD3aVbLXonNAM6Z1y/Nrz3ssTlsMoYVhDwFVj/rO58cG9X0Auw02hyn9qRamA4vW8hP6I/ngRdLSymBIj7GfYG1/sQ5bPotsz4u0nD/aWq8Kb+z8dcVeTZKN0Cq7A5HYl2xQocD5aObrsL2w7rzV6XTakaRvjNOGkYrdFIk+DPDJAMZ08uRJ/Zn7/Py4mcOBqPDmxLCzmjc7XLwW0KPjJ5maLEg0w808nPlsXWnEuu6H3RWJ1iRQgVVGt/xviIIPuyeM2FtWzKoVWTnsjxGzZsS+H/riVxz8c4+iaLAleFOfEqJaBN4cxHGsv2RcaJs/k1erYzX4OXsFc9992p3ClBUbbHUum60dzM9dq7N+o+OioEPBxx9/bIyklxzOuYbk7xV0WCjB0aNH9WrwoeOHm9Bf26gWLQ05MIMJA+6zd43Imu9CoQAXoLWbOZN3ME1iNeybL+sczjR4enzttoh1rNDrI+lQ+f1+F0N/Tm4TF0J+UpFVd+d0B0bHT0HgqbHt7W2bvbadfv5GzJmQr8+oFoHX07DiZ32mM2zdSDYuSIPE8Zm2x9SFBX0slSTvBRmA9PuK4/hKqD2Q3jdfpqVbAbvyWCg3c0cCZcS4tmkUKNI+XudQGGof7yeffKJ/+bTkBPc9YeI+3kTcK/XzIb9/oFq0NHjre1UUrNhr0jhR4vnxXj2oBWvLYDe9UG++/MKZtc5jgSSkx/5TMFvb83cszNfw/fv3jRH7hx6fIsi2GIxf4Z+dndWbFtfAaiJpfYPzjb1Q4fXkOXNUQl6o40o3DFiKz+oFy+lmQB9nxnEcxHay9ary6s1X5FxltSKbVfXRhroDWKiztfXnFMdnt1y3O86ewAT16Hd5eVl6vQcrRiKflpzGtIZNq16vZ0XMh0as0/uHLmKM4/g7oa4JGE0gGfOJWDe895n6osLrwXPmaKUBo2hWjM/4rnbgK8mDq/Lqa9F/O9/Ud+Saz4W5HWh1N+CeUOv1OxbHZ4IK8/1+3xiJvu3xKbL+T9TZ/Pzg0u/z5NNEYn1eR4UF3TiOT9zu3PrAiL1rxN4Z48/dpfgs00dyQuD1YCT1rJCYxlV3d1jzCUBGWp7hrVhGzKVs9X4QhvNKfR+9tzwfk/v8vAeLFYOhPa7+NxBhtw4ZMauhjAHU6m6a9nJoH2nRu9mMtgYtBDn/LIdV3nBGlO0Ytfe+w030ItNH8kHg9eK12nkrSZIG9u8O6WMY47eJRNAzeZURux7CMWp114rxqjjn8bTB8+MHGyJIICK3sViltw55jpGby77PysNAr9c74VndHV1TfcfqIQzWivm+x8cbI623JRAfffSR9qZ/z+OaEkx4rzMCb0WLWTzDYC2kYq56foag2gb2MBeJfaf6SqT1mayQ99OGTt3bRF6L4zd8byBq0jqkH3+x6kqYx9zdJ1i/Fg8ENq0hW5jp0yZ1+lx8pvLQuxLH0u/19PVNaK0YgbeixSypmMvScFkFyuMxt/MsztLoo7Nz8ZnKqmSR2HdzqETm9rTBZ45vthiw0irva3F8PhUb8Bzop+ixei1qMdJar6o9R8PAw/v3L7nOXd3BikSeN9gIhVb9ReSu9SyaVH1Dp6/vX4isWrGXfJ/A5XdU04vA675YzeeXqNPUxWq7eV6w5qquPo1Dtz+tIvSei8++a/1mlj4+fslN6nNhbmcBvsSMOFQAACAASURBVMqwW6u++uGua75PUkSfEpQeerVv93NjVnzDwGjznmm5pk7Z4rWrnjd02tpwo4oburzCrl6ijYka2/5YJgJvJbN3TZ0qSL6uNHgm767Qe1ZDQ+F9n1oFXYrPfqDV5Rw+nYaEHFe2z3hV9TXAV3HzoG0MdQu7eVZ59eZSW2PKmtzw+uuvS9rrXUxtmscNjk3FfCeHz4PAqrzPPfecVnl9f7bHdbFYWaE3m8bQ/oWk7+RxM6fXaGuZPpIHAq+DHFZvT02vWTZD0Lnql83kDWYx02FhrejQEMev6NfQXckW8grqeVbGhhVHv81USr55mNObh5q1MRRR5VW6Q+KaPjko6tyPwsD9e5+/k+bU/051t7l+8IMf6MQG/d3czCf0vnqxpGkMH+S0DsCKiS7z9CIfBN4JxXG84LlYbW3aBkl7vhm3Rfp5VDLLMqehYSk+eyfP4KuvOw1m2m+Z48zagiaF+O60V/zNg4YurSQbsbeasJgkSRJtS8llQoE+OdBzr+cnr+A7Cro/6fxYz/mdHBcF3qG6OxUTG97K4fMcNxK9U9QNnbYwZK/vH/vM59/du7u+vk47Q07YaW1CRtKVQWx1lEp/Gl+8o8fcbY8ZrXWrwI2C76pO5EilvyEyM/bYpOEFub9gxMwPF/TY3KvcVswFKWixYhyfuZbDosPH59CKXRWJNnxvFjV06cxiK/aiFVOLJweT/DyzAJ8HHXW3asRqtX0tHWxK0tqc5Pzv2FFq/nbnx7G+HnI+58Pq1/o6vbsNdv36dW2BuXXv3r23jNi3c7qhWzgXn1lLJbrmUz394jWenv9M7EURk2eQviNivpnj55t67sltCmUjoO56fIqt9WTjhEyhOD5zJdvO1IkVc9p3xqZWSfMZ4eVFA4NeYHVO8e4LbdsOnx7on0LDmBV7NUluXix257dB+Mr1+zAiSSo2EYluj/N6yNph5kXSU0ZMXFU1dz3ZKOVaG8fxRVPsqLyOvm5TsbdFbPb6Hf09erM3c5GYF+ywylVY36QVeyVJbr5Z8KPpnzp+CruebAT/BLVO3+fy8rLZ7j1y2bjh0Keuk9zQfRFy+/EXBYncr9da1f4qc6XzRYV3Iv3Ypwsk39XwdaOPua1z4BVJNaxUOVRe39TzuHvPAtig0lCVLZGo0NeiVk3iOL6cd/gatjpocLWyFA82Z9PXxOBNanQDkd00ZHvV21EIy+Nrb5rA2x+SJLkSx2fmCxzpN69Bdvgz2P+clvDaviMSNX60I75w8uRJ2+l0zmUtA7lVUocV32glu6YMrifZTd2no//GDPvbj+lr/3bnVtsMvn5hOV/D7jnCbv4IvCXO3s13NXy96GPupfistjY4BYasOlzZDcOwLcHcLrh6VgZd4LRYRh95CeFLdlYQiwxZVmwWrkzQgXcouihiTxVZXa2Y9gC/PG1rIaadVlZXV1fvdjqdl7MteotYWPm4GGF23dCVVaCwYr+TJBve6yDwtOAfuTRl9q7uAjTtKy09d4VqVz2TVwOcrfmGIVbMm+W+DjV8VVqZz6v9Y7VmUxuWsqcSTQ27TfzeMEbonZ+fH7wGGvj61sruhTpda+qGwDsmI6nXi9CYVmUD9QOy5rfzWquyHc12roava+jVKmWSJGsVhK/FuoZeHbFWZK9zUTQQ1vm87+MWYRcNDb2jG7m6zgKvBQLv2MxLHud5a319fWpm7xY4o3UhhJm8dQy9w7BbTeVgFHp1wZnUr7Jbp5F4e4Ze37nIIdAFaoRdNDH0WpH1bIEa2wcXjMA75rB/z9m7vJC/eMl5hp4wZvJmobeQFeI564bwmExD741kY6kmNwp6zt6sY2V3r/Ouob0m530vd7PXr7bi0LOLJ0JvkiR3ZmaPfEVvTmt4avSG9M0k2dAFary2S0DgHe80eS3+SOv7ZpO77C7W+TFrJJEuxglC1tN7IuAKw1Y2zi2Yx2TZjcKFgM9ZJ1vUV7e5z+Oc95Bfq08xX1S+gnn9IjzXr1+3s7NHLwZ+XdlJn3RebeJ1JnQE3oLpKCMWWOS3eC2b7RkM/dnqbOXQKmh6PFnYDe4NQANMgI/atap7eT3Z8J73vNfnlrBeq0EHA71m6uvjxrDyFexx1uFn3sBj3Xdzivn5+dF1JdhqrxXRLYcX9elRjV/btUXgHe80ebwBGqoTT7viepE1gS7CGVXQqg5xWVg4occT8mMyvdhnj9orP2c6eD67OTik7SNyak0KrXdZbzhCDL6joJskG1r52qz6cXkURVuu5ye0n/lB3+fs7KxeJzZdf2YSVovD1vz8Vy+GcF3Z57WtC9OCfA+bBgTeMSRJkrj88mSr4oP5pQtFtojJpf91K+T2kD1CXLfkR2Sns7AQTIgJOPiOztmJG8nGhXHOmYYwh2MM9jW7K/hWFVx0yP9aKEF3py9/+cs6Juothw+9k4r5jtTEc889p9/ndxyuV0Fufbsj+GbXlWpu7OywpUyftB0P7bU9rdhaeAJxHK+IpPORmGMH/Xep2M90cRYv8EPP55xIuqLbkB527lMxeles+553q9haWN+UNRhN+PV0okQciT1rhzOc2zkHhSSV9EORVhJyNdflnBmxullF3nOXs3NmNLR2XM9ZHMexSLpw+HXA/zVbxazx7PU6X9Bg/0EQiIYbuWhr01jbuVYl20a21OtUtd+nnI3Ezjft+1xZWZFut7sw3LHTvGSKaY3r2sETSPNh9rom4AaGwIupUXbg3evri8ipSOyC/WKL4faYAaEz3OrSdkRanWl5LLbznKUic8MtPQ89Z/rG0911zuiln8Dy8rL0er0s9A5u8k9NcP4fv27l8c9hEJB0q9ZOnZ5AoHmycD+6/j6+HtsvXt8y2fUlupPtorpVlxuAaUXgxdSoOvAeUtXcK0R0uYDue872fGMiTJUaGPYLvrxu0cjXNteXeiPwYmqEGngBAECxWLQGAACARiPwAgAAoNEIvAAAAGg0Ai8AAAAajcALAACARiPwAgAAoNEIvAAAAGg0Ai8AAAAajcALAACARiPwAgAAoNEIvAAAAGg0Ai8AAAAajcALAACARiPwAgAAoNEIvAAAAGg0Ai8AAAAajcALAACARiPwAgAAoNEIvAAAAGg0Ai8AAAAajcALAACARiPwAgAAoNEIvAAAAGg0Ai+myZbrB6ZiP8v3UAAAQFkIvJgaSZJsuYfe6FbexwMAAMpB4MVUsWKWJg29VuzVJEmuFXdUAACgSKbQzw4EKI7jORE5K5IeP/y/jjaTJNks47gAAAAAAAAAAAAAAAAAAAAAAAAAAAAAAAAAAAAAAAAAAAAAAAAAAAAAAAAAAAAAAAAAAAAAAAAAAAAAAAAAAAAAAAAAAAAAAAAAAAAAAAAAAAAAAAAAAAAAAAAAAAAAAAAAAAAATAdT9QEAQFPEcdwWEf0ztiRJtgr8Wt0kSbounx8AmoTACwCTB815kfRUJGbeDv7/QfCcczyRW0bs2o3k5uVxv34k6SUr5uI4/70RWUvFvEnwBTDNZqo+AACoR8hNzxsxsYjNAq4Rm8+nn7NiVuP41c+S5K+uHPYfG0mvWDHnx/3kVmTFiNUwvuh9pABQU1R4AWAfcRwvRGLfsCILk7YqONhaTzZOHBa8jdi7Lp/cijmdJEnH+egAoMao8AI5iON43ki6YsQcG/djrNjPrERXXHs4UZw4jucise9YsXFOVdxxjNMS4RG6+1qZJvACmEoEXsBTHL8SG7Hrkz/iNvoRZ+M4XiT0huO1OH4jFbtqi6/oAgBKEpX1hYCmMtJ6x+PD54zYd3M8HHg4F595JxWrfbSEXQBoECq8GLeP8fyO1ejj6hqRrVRskiQ3rzW1lUGGC4J8LOgjdKq81cl6Y9ezXl0AQMMQeHGgc3F8yQ4f7zrRkKwr28/FZ+ZvJDffbODpphLYAMN+XcIuADQVLQ3YVxy/uqJhN49TpDND4/jVseaGAuXf1MkKZx0AmovAi30Zid7I8/QYiS5xuhFau05eN3U5YEc0ACgIgRcH9KYOenbz1I7jV+iRRDBCWjBoRJKqjwEAmorAiz0ZSQtpPzDSosqLYFp2PLYDzlsnFTPW1sIAgMmxaA37MC8VdGp0IkE7SRIe36JSBbTY6FSSTf07Ffvp+B+WdpLkPaq7AFAgAi8qqHwNqseh9E1iCuX4Gu9aMVdFZDNJEg27AIAAEXjxFCPR+SJPiymuegyU9hrXnttUzAWeVgBA+OjhxRN0AwRtOyj4tCyweA11fo1bsZdvJBtLhF0AqAcCL3aLS3rplfR1CreV0+ehp7k0/QXfym6S3KQlBwBqhMCLJxixuc7e3Y8Rc14Xr9X99GfbAXv1bhqRNSqF5TFivAJvKqaJOwYCQKMRePHEEP4SxzS1jek3opfXirngWum1IpsEqLKZU543J3lV9QEAJWHRGh4zkq4M3tLLYiOd1rBR9x9BFoBOZJt1TFK13iI8lWv4VME6b6iSDicyAABqhsCLnUGg0OkMTZ/JmyRJp+pjwKF8nmDoDQo/YwCoIVoakOlXtIismB3dgL1tOwdeK/Y2ZxUA6onAC++5pFbsNdePNWJKWSQHDM14VHgtG0sAQE0ReOE7l3QrSW7qrlWuj3rbzORFeVKPySCWdgYAqCkCL3SxmvNMUZON5LJinBefRdIqu3cY08sj8M40otccAKYRgRcaW1/KYdX6FdfPYQdF5vrP5EUt+LzOCLwAUFME3ikXx69qO8Kc76r1bNKCa49jW6SvxwEAAJA7Au+UiyQ66/qxVswTrRBWzGXXz2U8jgMAAOAgBN4pX6ym7QQen+LDXf+74/HYd4HFawAAoAgE3qnWX/AYRbaxe5cwbWvwGVEmEjkfDwAAwH4IvFPMSHTJ+WNN6929/02UuB8PM3kBAED+CLxTKo7jBZ/Fauvr63uOIUuSZNNn8RptDQAAIG8E3illJF3xnb27H5+ZvEZazlVnAACAvczs+U/RaMOZt9Z5KkJ6+DSGNRG55DjzdEGPLxtzBmDKra6uSqfT0WvJvEh6yoicMGJesMMnVO0df3brZn+2jIiuL/jUitwRSW+LzHS4xgDThcA7lfqxSOQ0gN+KbO5erLabvpEsxWd1YoPjIrT0or7PSW1bRdJTInL8gP/srr7pJsl7m+UeV39OxBzUxnJXJPpwNFs5h6+pr7E5kW39utnrzRw74Nzo139qMeQen3duuODywO9lT0aM/mwcpRfj+Ey3+q2RjUxHwO3HRsz87c6ts+Zx+9Xwe7fjfapRENZpNMOf/uDv1uAzDK9R9kMraVLm7+I4VlZWpNvtHnYt0evIp0nynvO6iXK/l4OuP7ptd6tz2O9++N/H+NcxlK/ZV07saSk++4FrGLViVpIkuTZOwDJi9eu46KwnG6elRjTcGbHrk5xXI/bKjeTmm8Uemci5OL5kxa4WfVyjsB+JWbDD8+B0U2XErt5Ibl7O43vBF6ykF5Lkr/TpS9CBwojVp0PznrviTUqrwJup9K9VGX6zsH/ciL0xwbXkjhXzcmgBa/S9RGLftiLjtNDdsdJ/K8QA//Wvf908vP/L7435fai72c8kl+IB8kHgnTJaHTNi77h+vBVzYtwL61J89q7rm5aV/mJoVZeDLMVn1kTM+Uk/zkr6ZpL8lfO2zOPspGck2meihv9x6espkvS8FXMxz4Bixa4kyc0nbqzi+JXYSEtvKtCQwDuq5kaSvpH3a8jDLTH26vr6k6+/Mrz++uty794v3jQSvT3hh2ro/WpIbRrLy8um33v4dvZzHZe10n85pGv/ShzLL0RW7fBGbBJ315ONXyvosOCARWtTxkjqXB0zImuTVBGsmKuuX0sk8tkQowJuj8qNRG9IgDvpHXZcGnT1SYHePGU77uUdVJae/kfMaW4SDXf/V6fzRoGvIVenxZq1pfjsT5eWzkx8E+vj0aNHxkh0xuFDT2StYEFYXl6WXq83P2HYVcZI69sSkF9EkbFiXV4H7TiO9UkFAkHgnTrmJdeP1Md9E36IczXJiDmf9YDWgg3nzTqv49rz4/Rnci4+cyl7SlDgRiGDXt+xjgn1oq0LcRwv/vLeP95KxV4J+Od6QoPvufjsu8O+8eLNzMzo041PXT7WiPmahMOIpK43C4OFyxJIcE/TdN5nhGfOhwQPBN4poo+EfX5xJ33MlFWDnWfyivSdR6fBW3ufdpgPsmoc4PZ4uNtdNWLfz/p0g6d9m3q8ZVR7oyiyItHtugfFVuuhBnDn4koo1/5er6elHteJRlshtZiAwDtVImk5X7Bdtwz2m8nr9jge+dNHc0bsrbqEFIRFe3XjOD7+2eCGaeJeyFCqve/q040iv8iLL76ofyV+E3iq/1k/eBDNeVwrXNs6cjc7O2tcg/th8+pRPiq8U0Krc1bE42IYubYn6Md1PSoWpTxKxKFhVyduBFE9Qr1kC9NOGLE/LrYNpnBGn26ci89+r6hKqp6rKIq2rNujcBNJVHlbwyeffKJ/+QbvyqvV+rPo9Xpzjq9Zm0r/+wUcFjwQeKeGzi11M87s3f3oIx3X6vCQ+45w8Je1MehkBMIufMKutjA04ubVilzQ76eoQNZqDeYEOz0Z8ytq5LnwzuZQoa22Wv3RRx/5vG92Q5o0gSEC75QwEnk8ijOeo4wi50d0RkyhUwxw2PkfVHYbEVRQriaG3R1OZ7Nyc/fcc89pH69rK1g7jl9ZqGlVdHdbwzekQtvb21oxdwruVuyH+R8RfBF4p8BwQwDnN5zuOBtNHCRJkk3HR3SVX8Cn2bn4zDuBBRUWgNTEjg0Umhh2Rxa1vSHvT7q2tqa9o5uOr3cjFa598KyK7jZfZVvDcGKGWzuDMa3gNs8AgXcqGI+2AOO1gOKJz+QcmiNpUeWtgMMMzYK5PylAuW7fvm0isd8rKOx2tc3Kir2qm2lYMUtWzGndFGfHn8Xsz0VtqbIinaImOBSxkC0bT+ZU5TViqlzsm2dlti2yPV/V6Lxer+e8W6S1bj87FGum4M+PILhfAB1m7+5H5206vTHoXbbe6TPiZZo83UajTwriONb+yUsNrho2Y/SYtZfy7ifVkCtidMvpzhjXgtETpc0dFefBo/acXz+6kO1SHL/yYZ49m0ePHrX379+/Jm4bHsxp733ZWw2PzrHJb2GiiaSl4bn0XtiHDx8aM5gjbFzXvPA0KkAE3obTrWU9FhxNPHt3P3oBWIrP6uda8JjJW9gWvAhG14p5c782miRJNAivuU7viMS+4xrEdLtrkZmqB8kPZiFL+H27uVU9dYfHVMxlnwCnx5WF4LWVlZW1bre7aPKrQOvuYDq5Ibetfefm5vQ8alW663b9Hiz4ulJNO0N+nZLZ7+o3pWQPHz503aTJiqQ3Czgk5IDA23BGIo/Zu/luMKBbDRuxCx4zeQm8YetqC0wqRt+oP80CxkQBYNxQ4xp+4vjMZ8ahajM0o4PkKw28cVz5IvwD/eQnPzFZ324edMvhb64nyWbePbIi8sHrr79+4t69exezcO7bK3oiklS3xH0rj2PUgL68vNzd7j3S36UFxzm2V6pY5GXz/bSDNRxlTjzYUal2vBmifzdUBN4GG1bB3AJmJu+VpqOFGC5vLgtlX/gwUci9pi0HnLMpb2VI01zaBazYNZHozSIfDf/gBz/QcHOl0+ls5LG4TvuF4/iVm3ldo44cOWJ7vd5NxyLBYMFXWY/Ws5Co1/W878hGi/A2azJHWNttqn4KhH0wpaHRUudFR7pgIu9fXP+ZvFHY5a0po4+adbHQjWTjAmF3umng6YqcsGK9F5hasZeT5OaFMsKaHvf8/LxWkl/e0ffr09qgVd48d11bq8OCr6ydoZDrsxFT+JbOec0RZhxZ2Ai8DeazWteY1rtSCK+ZvOer3n0Hj/tsF7OgSzUD8vHHH+siH+/WgCzs5tpKVXLoHTyJyuu4Zmdnu47VzVLHk83MzDhvwRvSaMpsjrC+hp3GkYmkTGcIGIG3oTxn726tr68X8oubVQI36zamBo9taVWXii52hoT79+/PiWclzoislx129wm93VCqvL1ez1oxH4ZeGd3e3vaaBhRKeP/Zz/7WZ45wbou8UQwCb0N5zt4t9JfWinEO00Zauc+8xERhd5GqLp7uefR+nH0nFZPLgi/PiqqG3rdCqfLOzs7qX0Hvuvatb70ivd4D/fkX9vStrNnCn3/+JeP6tYp+34Q/Am9jF6u5393rCCApls9WxYOZvDkeCyZoYyDsYrf79+/rVIA/9DgzVkzkNXYsL9evX9eQqdenTc/5sX+Y1/FEUdRx3KlSK6MLIYfECcyVEd59xpFZ47wdNEpC4G0kr60dC19lmi1G2axiMR7cWM85qGgm3ZEqTVOf9qnB4sf19fW8NrjxdvLkSW0j+KZPa8Nos5w8jqfVaulndN117WsSbkgMKrz7vpattXlPNULOCLwNZCRyXiltxVwpK0DVZdXutNNtWZMkYQYyDtiRyv3llYr585BObdbasOU3UWawWU4uUwuee+45K+JcPSz0iZhrSHSZZmDEOE1OGFe3q/c3qVNwZ3e1eiDwNkwcx7qoy2dhVyl3qdmip27Ij7cw0n+Tc4EiqntZUNDNFYKiVV6R6KrHpzB5LeLSjTJmZ2c9rpfFjAvzuOHRc/uuw1M+nS1c2JbizzyTurZmWGOiYJ5QYH8E3oYxHo/79dFimY+tdec1949mJm9JWHmMPS0vL2t1T2+uXUNIsEFhVOX1ab3Kc0zXzMzMYDa6y2FEEn0twBueDStm0i14jXgsxj7s5/3gQTTnWiyinaEeCLyN436RTaVf9psPM3kDZyX1qXKhwY4cOaJ/eT1psdatN7UMutOZQygrZErC9va2FYc2AGXz3/3Ms51BNufn57su1/+iepKzjTNcf1bsrlYTBN4GieNXV3xm75Y9QzB7lOkxk7dfyN0+dmoxagd7+uUvf2kisc4BJPS+R8+dzjIml7nhJ0+e1N9FDYjdUMaT3bt3TyuuZ12q+h4V9EJ6kre3t7US7rq7ms9NEUpE4G0QI5Hz4hHHx2UVz+QtbyehKdUNsb8SYTC6Aav7egHdlSrooKCh7JlnUg2Yrr8DGqJ+O+dd1zqhbNzQ7/ed5uOOHv+7b6qRf6Fj2DLiurua++6hKBeBtyGyZn6Pu/ioqlX4WkFxrfLo3T47rxU4naGoz4160wCWpqlW2jwWEdngX1/9/lGniQIjHjcEubZY5D0n17V/O6vqD9aJzM8PTs2kbXQ68/lM3q0ZvV5P3ztdKsdbFAXqg8DbHM53vTsvQmXTR5p+1eW0sBXIsLc5B9jL1tYws/idnZngA+/w8uj1e5DbVAHPFou5PCccOPZvP7FIUW+aoijacthUI9e2Bp/ReuyuVi8E3oYwYj1mYRrPPjVfkfPXN2KcZw7jUMH2V6JaR478g9Y/fUKHVsZq8vpq+QTzdl5Bc0dbw2bV48n6/c+1oeUbvtMM0jS1IuZalW0NPrurpdL/fl7HgeIReBsgjmOfnY70AlrpSmnPmbyl7Bc/nWxNAgnK9vd/P6Mh4ZTrxztulVu64WIx72PNrRrp3veaXyuA6wivvZ4kttuDU/Nhld9LmqZzju+f3bIXesMPgbcBjMdsQjPIm9VXWnxm8hppXcr3aJCp/HWBMM3OzhqfIBfVJPBmj927PgHdGPNCXsfjGBB3btzQrmiE154zl3VTjSiKNh3Oby7fyyeffKJ/OVW+fXq7UQ0Cb80NH5e5b7Vbwezd/fgsmit0+0wAT69q9wm8qdjPpuWcWrt9PK/P5bnrWltkO49FdFph9W5nGGm1WvpvN6rYuvnRo0famuFSLbbGDMbEoUYIvLXnPCw7qF20siqzx7G47zAHYDIPHjyQSMwxj/NWm8Crgcz4VaRzvxm3Yq9VMZ5MK969Xm/iiUAHLYx+7rnndLTXRtk7yGXfi/5snN5D2V2tfgi8NWckcl60ZcWsSkCspNdC2MYTwFhzS6fiqcr29rYmRdf2HiNicj1PjgExOxj3p4E+7QwHzVx2rVrrDnI+T/Z+9rO/dS4YVTnZCO4IvDWWzaD1eUQVWA+S805CaoHFa0At6Kiv2oSFZ555JqgWjLm5wfqqTkW7rjm1M2TX9ryr1l4tGp9//iXjOJ84+E1TsDcCb40Zj8f4Id6hZjN5PXqKI2byAghKJOaf5/n59FH8s88+6zq/XNsaFkpuAegc9l7j2tbg06LhMY5srACP8BB4a83nMX7Vs3f3475Noz6uY/EagLxbGkKbWLK9va1VcqcndEbM1zzaGSYtKlgr6aGzal3bGlxbNHR3tTRNXcd5boVWLMJ4CLw1FcevrnjM3tVf2FCmM+w1k9d18VrbmD69vAAkz9m3oQXe4Xxg5yqj01Sb7e1tXSjmMNGgNfb13KWtwaVF4969e0YkdaoO++0MiioReGvKSOS8+CD07RAdB6tnHxwxrQEoWL/f17Yo5x3EjJm5m+8RTZcqdl3LFiouOBRXxtqprsy2hlbroetCZ+3fJfDWFIG3hrKtKp0XHqQemzyUhJm8QINZ2wtmEVhdHTlyRHddu+k4OWKikPitb70ivd4DDcntoqqhZbU1uO4UF9ooT0yOwFtPPouzdAGBz97whWMmL9B0xrk6jKEXX3xR/3Jqa5i0uuk40UArttcmryJPvgnFJG0NjqPVavF0FAcj8NaQEesze9eneloaK+ay68caMc7nB8Dhjhzxmk2LHGil8plnUl085VLAmCgkDhfuTRx4x25nGDl69OjEIXnSyRPuvchirXGbf4wwDPaHRH3EcbwgYt1758SuLcVnA53QsJOuE3E2uJjz6AkoRr9/VDdmJfBW7MGDSC+UG0bsvENI1CeFm+NMNOh2uwtmwnYGl2qozhjudDqjGcNjfz0jRmcDr45bRd7uPWJ3tSlEhbdmjKQ6nQGHiKTltaMQAKhnn33WeEzEKVS7PciEruPJxqrYPnz40BhJJ72e2lT6+T3lswAADLpJREFUh44jy3HG8Fy2tuXQ8N7r9TTsth1n13OTV2ME3hoZjpLx2xpyWvhuOwkAeUjF/j9FnUnXhV6ThETHDRqcF3d96Uuf64xhh2kNhxeDHMO7ssZM3GqBwBB4a2XyUTJTrC3SpxoOhEenBARZMd3LgwcPdLe0YxIw9x0qD35Pcd2gwWdx12/8xn87mt3bzXtDDZ/d1ax12+gD4SDwTsns3WlkPLadBHDoavpPp+EcZfNnXZ8WabWy0MfgjvNrB8whi7fKbGfYY8Zwx2FDjX2D+fLysoZ37XV2udk6dHtkhI/AOyWzd6fUgssuPAAKF3TFdPcmBS49nzsUGnh1oVcWDl2+zvxBrV9ltzNMuiXxJBXrI0eO6F9ui9Uct3FGWAi8NWEkHWsFKnYbf1wNgEnGVLkHudBbBHZ69Mirwlv4rnIeFVHVNmbvQOtaEc1jVu2OrZMneY2ZgyrWjx49Mkas0zgyh1FpCBCBtzbc+o6mHTN5gfz1ej3rE3hTscelJo6kqYa4uZB3lfPZdc3afTdh0IVgpbYz5NTW0N7r8/V6Pf3nLgWQiecJI0wE3hqI41f0MU1tFnkEZqIB6wAONzs7q9nGuYfXiDlVh/OsVc4HblvQ7jCzVdKua07z1ffbmldbOSbdkU1vgvKaf+4e4p9erPyzn/0tu6uBwFsHzJT1Y6R1KacfBYDHWj5Vr7k6jA08fvy+BiWvYkMZi512VEQ38ygK6Od78CDS73uisG8ctzrOMcTv2dbguDVybhVrhIEKbw0Wq+lM2aqPo+b2fMwFwKfH0nsxVvBPre7e1U0nvNrJSnsU7tPWsHutwyeffKJ/xVVuvesR4p+63nuMI8utYo3qEXiDt29/FSaSXuSEAbmGkS2/0FuPa5tP+0WZo9uyiqhThXX3DFvHBV7d9fX13AKvZ1tD7DtLWDGdoVkIvIEzEvE4Ppfz6PQ4C0AxFUzfymnhPBc6jdyWEo83iqItK+LSQvG4Kpp93xOPwSwiHHq0NXxj9D/u3buni++c2hmMGUyKQEPMVH0A2F8cxwsi1uexX8dhT/JgZQsoXN985rVPjcdTQH6s2NtGzILr77OGrCRJCp1T62q40Em/N+e6kBVJS30c3mq1JE23N0TMG46Lva589NFHWfU9qjwcavheXl7ubvce6XlcmHS+sL62dPHddo/d1UDgDZoZ7A1uPD5BtJrk/Iip6hsAI9aj2hLpYy76sYCcdvjqdnsbItYhXA20RbbnQ/2d/M//edZEkn5D56+5m+nU5Gcyqrhf2V0hHZe1xRRXtK2h1+vdnPDaP3htra6ubnY6nTkjduJJG1Zkk93VmoWWhkANHy95PYbfyrufqmpJkmz6vDnq+B0WrwFB7PA1+JU00vp2iD8PrSxaa70WDGeBqdTq9dramvZW6zWy61pxd2xn2Cjqe3Vta4ik9Y0vqtVO1XmXBYAIGIE3WIOme/fdfQKtmviyYnxCfHuvGY0ASt/ha2fvaHDTGj766COt7v6hx6ewxlSzO9fMjO4M51RtzSruEwfEQntdXac16M3K9va2iQ7Yfe1grUa+h04zAm+gjEST7nDzhFTMZWkmvdN3riQYiVi8BlQ/CmvERGKDqvKOFm1ZMV7jIK3NfxHXOI4ePeq6Fa6OJ4tdAmJR7Qw7d/azYiY9n21rewuW3dWQIfAGKKt4OPeqNrn3SB+beS7EYyYvkP/jZuebUCuyEtJuiB9//LExkup0nLk6XoN9Wk207WvSNo4yWjfm5wctuNccWmbednlS2tQnpNOOwBsgI+mq52dw2mKyPiLP74+ZvEBe1VBjTNczIAyCSQj99Tqz9f79+wuyz3a7obcz5NBq0g7xe90x93nS15nLttDsrtZQBN4gec2n3EqSpLKLbVmL1xxnTQ4Yp5E9APZy7Ngxm4q56nl2TkeSXorj6jaVXF5elm63e8KI/Z7np9IFw9cCaDUpZdFyWa0bjm0NLthdraEIvIGJ41din0dp0/Moxvi8oTy1dzwAr8kAGkS8rj1WzBtVhd6sb/e4EXvDc8tjq+MgJYxWk8JDd5mtG+32oPhc+PubcdytDuEj8AZksFOOtHwXq/lWWupC50U6i6T1hp5vAPnMf7X+C2WNFXOp7NCrld1Op6Nh933HR+A7bVlrKx9n5TrZYEK2zPY5vbGKouhDn6d7Y7DWRATehiLwBkQHZPvMfRSRW0mSlDrovCrZIgnni7mu3O10OpX3DAJNkFeVd2foXVpaMkXflGrY7fV6J3IKuxr6V0PZOa6kFoD/Q0qUpqmG7EIr19baUr8nlIfAGxSnAdmP2emp7g54VpSYyQvk6OTJkxqwvpnDp9LQu2pseqPT6ZzQam/ewVc/37lz50yv11vMKeyqO0mSfF8CMTs7q38V1sdbxSSKotsaqtgsBOUh8AZCVwcbiXQUjo9K5j5WvPOa10xePe8A/GWh9E4OrQ0D+rTLiP2xVnu15eDrX3/FaEXWh/6+a9DVIG3T7bUs7Oax8YWG/d+RgFy/fl1bADoFtQCU2s5QUltDJd8TyjNT4tfCAbrd7oLxW6y2tt7Q2buHVbWNWNcbhYVu9x+0qj4lC/2AYiVJIn9w5szlh5HRzQtO5/Ap24Nqr9iVh/dbm6n0/vzcuXOdo0cfSRQds1rF1LmzuyvAo//9s5/9rdy7d0x++ctfGmttdp213zaDOedGcmKt2MtJshHc9bfVakmabm9IMZNpKnn038TvCeUg8AbCSLricwFOpd/oUWQH0AUGHpXxKF5dXd1kARuQj3/x1a/aTqfzmhH7dyJyPKdPq+sbVjT42rS/NQy/n3dE0p90Ot2tP4jjx2HzURTpegh99t0WMfMin78QidEbWx332C5iVf96cvNyqIsJu91eImLzDoedqjbWaOL3hHLQ0hCA4WM647Pl7VaSvDeVVcpskZ7z9647C7F4DciP3jxub2/fyfp5bQHnNgu/5oqR1vtG7E8fik1Hf2zaT43Yn+s/NxLdMGLesSJ6fS1ikeqdVMxbEv5iwjz7Uq2V9FrDviexUs1W0CgPgTcAvd6DFZ+LsRU7rdXdAc8B622R7TwWrADIvPfee1qJS2zAYTAHGupfDr0qODNzX98jcl681iplU4sS3/esSMo4soYj8IawNadE56vdarf21vwWr7Uu0dKAhiui0nqgH/zgB/rXlbwWsQWmFmFXbW8/a0XsZpMe/Wtbg0iu83L1KSkV3oYj8AYwe1cXT9VpNExodIyM590+M3mBghax6X19FnpLD93THnbVyZMnc63IhvDoP++2hunZoXS6EXgrl170+Whjpr66m/G92/f7OQDYP/Rub29r6D0nIndrfJ40sN+qU9gtYNc1rawG00KXU1sDu6tNCQJv5e0MfovV1tfXg7n4BDCT12vxGm0NQHE9vfPz89rT+99ohbSG51lHj12tW9gdOXLkiM4JzqPKuxXKbp55tjWsr69Xvh00ikfgrb6dwWf2Lo9hdvC8oM8xrQENV2lLgd5QJkmi7QBfqVGLgx6jHvNSktx8s667cL344ov6l3dxJP/Fb9W3NYT0PaFYBN4aS5u5GKSyxWs57bg0qULfQI3PYj4zU+fHz/txPh91rOw9yX4qgbQ4zM/Pa4vDV7JH0iEGXz2muxrMrZivJklS61CUU1uDVlSvNmwChU5nuJLjISFgBN4KZW+gTqHCiqzX/w24kMVrPo+4nM9nJHLL5eOMSKGPB1Mxt10/1lrr/LHhcnsEakU+kHpfM7ZEZoJ4FL2j2rvVbv/airYJyPD82sCC7leSJLlc16ruHmw2Js66tnSE9p4znEAxCOEuvxNWdyhlOsP0IPBWzOECNHjEJs2eb+khejPrEbSTbw3q/saWDZ+f5OsOfo4lVOmvOBzX6HwE9eaWY6/3JOFq9PummyjU9pqhAS7E4KaPpfVncmr+9Ms7Kr6T/v76yl7z8oEVc7GBQXfg+vXrWuW9tWNDEDvB9eCqtnRIgN/T9vb26Hsa93Uz+t5vpWK+U8JhIhC5bSYOd3Ecz4mkb0Rijh3036ViPxOJNIRca9rFOG9xHK+IpKfGPKcbWRDy/ZrZiLlxvu6g8lraz3H88zE4rtt5nI+QxXEci6QvhfZzmvCasRKJ+edjvL6TJEkqHyU1rpWVFel2u/p7FIuYrxmR+Zzfs0ahqGsHT1iMVv1vNvEGb7/qerZ+5KxIOnfQ70AqppNdDz6syfd06PU3HbT2RJuhf0/IH4EXABBykNFdKDX0nhJJTxgxv21F2ruC8EE02HYjkc4w7NiOSEtDXDAtHgCKR+AFANTSjsrenqalagsAAAAAAAAAAAAAAAAAAAAAAAAAAAAAAAAAAAAAAOQw/z/zLHOGdWOIaQAAAABJRU5ErkJggg==;" parent="1" vertex="1">
          <mxGeometry x="130" y="180" width="71.3" height="110" as="geometry" />
        </mxCell>
        <mxCell id="fqFbejuKPqkzXvjR6cZn-4" value="" style="shape=image;verticalLabelPosition=bottom;labelBackgroundColor=default;verticalAlign=top;aspect=fixed;imageAspect=0;image=data:image/png,iVBORw0KGgoAAAANSUhEUgAAAfMAAADPCAIAAABuoq9+AAAgAElEQVR42uydebxlRXXvf2utqr3POffenqCZEUSaGUGBNsYpMaKiGEn0I3EAY9S8GGM00fecEidwnmI0vviIIk5ooonROEeDQUQ0RlGDAw6M9gA93uHsvavWWu+PfXoA+3bSpNvYfur7uZ/Lpfv2PufUrv2rVb9atYrcHb+MdNae9o/H/3TLLSrOTgZjYofjl+DjGkEMxkz8xyc/5yX3fnWEgFAoFAo9XJqgUCgUirIXCoVCoSh7oVAoFIqyFwqFQqEoe6FQKBSKshcKhUJR9kKhUCgUZf+fhXDHHG/f/q1QKBSKshcKhUKhKHuhUCgUirIXCoVCoSh7oVAoFIqyFwqFQlH2QqFQKBRlLxQKhUJR9n2HM9hBAjeAQe6OUsW8UCgUZS8UCoVCUfZCoVAoFGUvFAqFQlH2QqFQKBRlLxQKhaLshUKhUCjKXigUCoWi7PsW2vZtW0X2Upm9UCgUZS8UCoVCUfZCoVAoFGUvFAqFQlH2QqFQKBRlLxQKhaLshUKhUCjKXigUCoWi7D8HHCAQ4AA7DGDaqyntZh4GguQBksngrDAGwd3ZxCSZkTARsQmk1IUvFApF2X/xieg2JyylMVJFQmrCUsVhFUPAcJzTzFRlmlPyPIA2WhqsUCgUZf9Fx5IPRyOfp0okJ+WaWORlp1z8zBOeTylPjWR23NU6NWTKmoZhurRYoVD4uRFKE9w1KguNNDlZaBEGbAlPOOmC/3XSH467hS+tv+Krt18VOjRxXioZLVTNcI5zGUQLhUKJ2X+x0cqo8UqIK446OP3QM99w0puUrR6MXn/WG5bRCq8xxVPZtJWOU/HZC4VCUfZfeAgAkbiY+/LhgX9973fWU8MaNVs844B7/8lJz2YM5tBSi+lYazlZu1AoFGXfD5TdmJgWqjyUmTef9dZjD1wVEZ0sCNrMTzv12fc/aDVTZq/moSxWWqxQKBRl/0VHLYNpRqefe+r/Puduj6hQuRoM6lazLJGp1531F0vCCgQVOHVSWqxQKBRl/2/jYAIIDpCDCE4g32NXhDrYwNnNjBCYzQhsYGKOKg9f9fBnn/CnQiF5ImFiFmI4iOTopSc+9/TnDzikHEJUBxGRAICZm7iQcKkZXygUirL/TzTQVMSca1UFgJI1NVUJWmXu5Iijjn3L3f96GAYOixQBqHfmquKmOkODPzzij1Yf/QBKrTID6u5ZAYhwzFDVXKS9UCgUZf8fIFkbJFKTXZDIlrXTc3UeteHgAw5416pLlqycATGB3X1OO6GKIQJiiHFTTw8uPuENRy09VDMTMzErm5oJsZG5gai0f6FQKMr+cyd2nANIzYnAmM2zgSMHvvief3HywadHqhpPAOA+ZQEACGZJBYyKjE478J7POPGZgQM5M4mIOBxmTGBno5IzUygUirL/3MnCkpJPVWa51jAMU+zp90541nnH/NZAhq13A4r9L0IMQIvMHtndwcgOwtNXPechRz7Y1brUVhwFMDMQEbGiVB0oFApF2X/uJGSh4DkBlF2J8tmHn/Oyky6qSRob11QZMtyNo3PQ5DVCklaRYO6VsZpUo4tPeeWRM0e0DlMFscJAIHjx2QuFQlH2/wFGHlMgaj1S5ZGPOOiIi+/5ptFwCJeKhgAY4jABMSCiHbqIOqDqKDECmCvQ8Qee8rQT/uCwqQPN3MicwGCHc3FjCoVCUfafPzkotwkzAZaWhKm3nfruE1cc59lBMEpuCiclhgPu4BAtdtlAiERIMHJkKPg5Jz7/5KWnVlQRI4DERWFWgvZCoVCUfQ8gZpADBBBg3hdrX1RJ3UFCChPUTg4zQsVuzEgAZQlSveyeF93/iPsnBQUHECgSCwihLwVPBICYqsAAGBERvO2/7vr2+79jydRSQUgJkowHNdqyN7VQKBRl32eYOKtEk446Y/eAhtoE5DmqZ7ha8Med/MQLj32qaY7Cd6HdROJKOfgVp7+2MvgUzXqW1KIqtTYLhUJR9n0X4sOzJZADOtA4sCqAI4JXLo2ccvd7vvL41w3jVJIMoPM9zmkZo5uplzz6br99zjHn1lpJIEnEXNq/UCgUZd9nRA0gt2gM5KQL3jEMbHWg5aODL1n9vuXDFTlZjcECxhXtcR2YgVVOeYZGLz3tDSunVky5tGEqpa60fKFQKMq+r1Bz8eBE0WJmzxHRI5xqqd96xjuOWrIKBolu7iMM78qJqgxCcKFjpo956akvz1GV8shL+xcKhaLs+wwLRoRsToogsfYqp044/unJL374Uec41MUI4lAAGXu88klAi8YJbPlxd7/wN49+/KjrWim5MYVCoSj7PiMyA3BHRjJ0ppkrOufuv/ncU55vsBqRwN6oUDC3cBfqvThqDAiAEyS85sQ3rFx5kEhdWr5QKBRl31doVjWPFIXFGJGqk1ac/OZ7/ZVSFkjynFJHA+nc2Bh3oSoAuZkTYBwEdOjylS85/o2xnLVUKBSKsu/JJyMyCpm6oGQQpazORORMTpONRe6YJLy7RVQhWpNyzdKEA0Yz77jPZQeNDqhQgxApxFgBqIghAO7CSRrUjwfMjuTu8ttHnveY486HGlfkyVjZxaMFYlIuee6FQqEo+89gnebgjdgAUxwYlYqIEiAGcbCDyMFubMamEsdxq7Yh1nUTeBm/9rS3nXDAqdC8F98RuRjgcCFSjAfD4Yvu/rJVB55gc8hTIIDBW6lz95jKGUyFQuGu80u7U8aYHn7Yw26a+UlreWuaI2NLOfn8Fm8Nqp6zdZ23ybrsyTwLQhibDcwCPeuI5zz6yN+KFBMs7qX3k0GBQIAhE1Xsw4bS3VYc+fwT/uwZs08fZZ6l+ZjCtFcpdpXVHVLpnYVCoSj7HRiF6qJTXh+lNnJHG4QbZFCsTd3hgLmrw9wV7vDZsMCbx+OQARwxdaQLee5iqPZeQ5Ozk8GJk2h0qSwq62OP/Z2rtn7p/33zr2MFURlTO8JgnptYEiILhUJR9jvHyI7BYAB0BGIfAhhqTQJl8LZiMjvhy3RmYfnCgRjUyi4NXIgY6IC9JO4GZ1ei4MFJQc4EuBjjhate/K9rr7h50w3z0tQcx21TERdhLxQKd5lfWv0Qz+bmHlkjyAwtOI+9E1d2JVe4weEOc5iTehrRqCYehwZeZ0Nmyr7XYvbOjMFECUBwUSCzgjtJdODMQW889S8aSSOtM6XKIknx2QuFQlH2n4XEiGFulFsAVBOHIVdO0n+BGAQiMIHJVdjdPachBiCKngMo7L2kxCB9omTM1MFczKMHQg2BULjPYfd7xjF/ZME4EQIaKiZ7oVAoyv6zwo4cAGJmphoMy4oW23yYPu0RO6oEUEWSCZCgyOaGEBsyt722R5QpJu/EEaiCkDMrQZGdlJ2nMf2npz332KWrxCiHXLVV6ZqFQuGuh5IJKXShCy1l4koYnFOGONP+LvoEz0Cv3hkEuGRkVxMOLXWBJECSpUgxIxucXQwkFPoUlgF47x5nF6na6c31KfEBjsQpIq6sD3nlGa+74F8fr928h+TmQQIMnedhqDp0pOTM5Hv+lszVnZmQDZH74Yz28Dgnd6Of6RIKIyeivhA+AegdLnIi3jvzHTNlEiWwOgwaETyZR17k+tlz8GBsDIYB7ACZKbPs/uMBpOTi1FqqJf4cOmh2E5ApUVBydlNnkkWKzTmUVLJYANAvwpC77+4+alIECASElDtBsNB37r2AwgQMh5kxs8MdDgczbwuYCNseP/SHI4AANzd2mfwfw80mBxvs9EH6ay5yoxyWwQGUPUcSV3ign1k429HKQOi/u6myBABmvlj/UTch7r8DCoirQZx2bGHZEQ46kDxFD07OYCcnEEzB1AfN/YEQtO29OZySIogRubsAIMruYgqWvhm23+5JQIj+sYLDybd/SCMXY5A73BXKHBlwM9rWbuFzN3/yi2u+2NBCSAGR3LzTroqV2f69WcYXudNUedekIY9gMNKOuqCBK6EFX3bAikcccu6Zy1a30jrbAEO1HHjfPuSJUvS+b9DZK8554gkXvPPfL+HaooYt1EbClA8XbFxNnn7yu1CNjIkABzGLufcbs/ZU2eFwdwAOA1Hf4Why7f6SDiMGuZCSBuydpQJSdoIwOmlZqgAGKqNFF5gDBaWWvQYsEUdYco67kXV3EDkZgQkGkop/HoscZghwMIuYQkCJJPLu4hRJlIMLQA2amgYOIIGqxZRXOQgBneVKQgwRIHbsrV3PnElJwc4sIHifcSaugOyUoGAggpMrVJzhDCYBweEJWcDC4g6DsjMMbs6Bd1PdmoggUWGCSJJBwmbwsJj74MEJZGIMZoTJ2LB4Q0hiBIizCwAj9JkUOw9WtLPAV9Qv42mvwg4YSLa9G7rjqxCoDRIBciczI2F4oM6l7oc+hQPOYIZse0kHnJ3hBEDJnIghRi5OIDfibR8+E+/IiAnf2PBv7/jR2yxpoKCsbJKsq2Od97wE+f5BBtWsnUaODZpRHqZBlkaOPuwerxq8+t7Lz8ic61QDSDFH3uexW0DImkKIAWE8GF90/GuuvunL123+1hzaZZhquW0xJmDseQqDDi3t4aNpbgRmIoNBeGLAEfsexv7bYwGadCPaMXg63KGsxCQQAkKWvZV1lcXAFj1Gr0FknplIfNH3T5ko1k4KSIBalshQMlnk0Vc3Bismgx/BHeTu+7rsg5IzSR8VCoA2okJHbYVdlxJyhQgTKCENbDDRjIoWawchcbgbhKUfvxzO8L1lwFIAgwji2ZLkwIGJ3a3vHhkAaQAYApBBuJ8Jm2fVQIGYIgKAxBpJxAUGF2dhACmnGHb96DVIA4/cMWo4AmDMwdxosTtmfVd1EIwnHizvJuyo0KGtUJujnz8ZmXoOiNvU/A6jghGZUqAIhrkySBiA+rZw+07UoDmbH9GQmDtoTUJeT+JxooBtowPYCY4EROrnM+SAb9d7cyi5gNnReo4U2ENWDVG2CQu47VKtVRZV12AkCLnL+3/W3a57fAxVs7mJU7HxZpjrxF1EdeGJT37RiS9fPrOcSQBXtn6mZOos+/YZz65BgpsZ+1CH7bB93elvPO/Lj6xabNH5yBw5wPIQVUetm+9prE0ghQeQW3aKDjfKsMB76JZYth0xCPVRhzscOonaAgIMgDu7Bgt7SdqDsRO7dk6RBWSkTLy4m5QkAxpRw1xZhFyZxHmXA6LDASenQOTucAKBmWynWe2+GtENADpo1es7CwjRq8UGbhX0oVlEHHszRAUjY+VF3BtLOQkqhlBokapMFMSx90asTBQAOAJBKSEHFiYeI0VwcOlVKANEEORWtaZamLFTwxo05uDBHE5MMHJ2Ai0m6wBqDyAoe0B2iuYQgByLuX8mTt7LYj+/JPvPCrUGq8BgA5jdwWBGtdOAeKcw3IgBkEF7J5KEzLHz2+mtqv7ZaUHTMtWPOAMI0CaiiErJuLelnNTVyYWEEeEG4onz2YdmgAIMkKOjriKuKQDoqKt2ikRDgzZyTUTKiZyz5MCxS1n288VVWkTZN2uzZFnVzHVVCFTJ4UsPf8tpb33AIQ8axCmHw8AgE/+5fXwhJqKEHBGdUHt95hGrn33c/37ddRct6UZbfaEK3H8aJa85qO+ZS0ZEfdwiHFtNNVcAGVz3sBCxS/9s8LaeTb1YOsHJ+2gX7ICzSVDGXprtKGug0LI6QSBRyMHmabHYM5AQQoM8SMFql/5G2mRZY/sDtv15E5bkyQFhhsHJBMFgd8X12qP74uhoLDTtbh1UYgZYbFETS7w3aRuO9ZAH6pk9sIvSInPriMoCYOpeU1RkIYL/d42m7c2iYqJMAMSjBDjUsrIOQMnS5jw/l2fndGPjc3ARmlpRLxnxVE2VUGAXhzNL4NBv4SOFizk7G4MwMax32W7mKpqju1NAZgqtz9c+pYsU6ev3BgqCWhYPzs6LDPOTyMC6yFWn84FHIOsoBQQxUajfMWCauFLKJJSRA0JfiEq9d4DudLsnBmZEdpcx6UgZpimESGJ5DhjN29bZPLuQx42NExJDAlUHTB8YPNZeD6hmwFzBJkINSZ2pQmXiCVoZVXyHsCAEk4pi4wtQjx5aNsAD/RLkzOz67q2wgc5pHASP9Dt3e+LLT754+cyBRIwEZQ0i7oC7Z6PAWfaaX7y4B84ABKFLKcZoZkMaPevUZ//z+k996/ZrBy2PJQ88NuiEiJyxh4psZkwEw23duo/e+g9kYCYHke7hCip55DgdppbVK1bUyw8YHLi8Wj4lU3Bxd0L/TBIYYCTKcW/F7ByuWX/1D+a+n3N2zy7kJhUhL7IO5KaHTR/1sCMfahGxny0zJguqu9Kpz6/9/E2zN7mZCyyrA0GCqxPtW2U39sDGOlRrCNWTj/89IjjZoka4AoIYB52nT9/wiTXtmgzEwIvdR620amIXUvLuoQedc4+lqwCoqfw3tkrsPNoFExdkZKjNNlu+OXftVbddef1tP/jB5h/dbrduyOs69WDD6Ayow+FiooNqePjgiOOWHH/iipNWr1x9+szpK+MhWhkFlj7M7deGEy0WGShBENjx/u+/q0UXeaDSkPFiy4LJdNXMqgcf/hByNlHybZlxizRz5KoxvfxH7zETJlbPELh5gPidxYUIOHrJsfc75IGBQt825gkgUNj5BXZ2iqRj1BSRU5YfzN3w5c1fuG7DN67d/N01W26aty1zOm8GMSEyEBFFZIXQAcMDVi09/thlq45fcfLqA+572sxpUZ0iOYydahUEz2g5Bw7b3BgiKGWFMWCs7HB1InL65TwUYi6Oh3FwyNJD3nrPt599xDnOZrBgnIMGClAYKWiSyh5sn8fuCoVCRCYzKYZ1vqI64LXHv/ERejatl8pYYSNUC951nnhPl8CImCjnfN2W777y2pdvbbbkfrVqD+8vGzusXzelvtNxjKhOWXHaAw954EMPf9jxS0+oeUAm7BKx1wbE+YW5i6598Vc2frXNTWWiQp6cB+6ZFpsEHbbk0F8/8PowXGCMYL6AbsT1nYRpO2/91hu/vOFLntWjZ1VyJia3fW60G1ENWbAFkCyNU4866vwDhkMsbrW5kFIXUK3buPZ3v/EEzCIzESdbpD84EJVMQi38H0d++7X3/ctpGu3xsvlu53DjvPD1dV999w/f9em1n2zSOFLcpFuHLOYgl+jkaBagTmBizq7mrY7H49kfbfr+x27+SKQ4w0vvf/iDHnfk+ecc8UgOdavtgAdgaFRZpAMREaAbmrkXfOuPb0+tuA94YGh9Efs4SnXeUY/9lZX3HcUpAA5zuLqFxQ68TLi5veUV33jpxrTVzQMRibi7/0zM3jfl0058+lnLz4jVEhg0ZPFItMMvuNMcUaGo6Zata//hhvd/6Kfv/Mnmm9s2K9qaR3Br0apbv1JlMEV2NCIxWRrPzt82v+5LP73CYMvi8oPrQx574vnnH3zh3ZYeOUdz0zIDkCEG452GXnczqy06Ww4ac1RTE2f/5SwdPrD68auedNFJr1o6vUJhfWiZLQWKxuoCgcAmvgxonzeCQMBQVxH2zqliqeDZzjj6Pi9c92ev2PiSaHVCl6FDSN7mGO6BIoMAcAwhhI0L671ziLiY6Z5dR/tgyvox34yss0Yo/NvtX/7S2i+85lsXnbri9Cfc44LHHf34AwcrW29r7J1DRX6iN3/1tqvauYyKVEwB6TwHwyLKLhlr1639+w0fePzBFyCiDd3IasOuZ+AOjzKc0zFlYyFTBGUN2c14H5fOdyBzUoszwIKPl1VRPYnXi70sE9jFGv/Q5st1tsuwzFy1pouuA0kKXZdt3KSPr/3Yy+2N0zlTtdeqiVy55l/e8L3XX3HT52vEVKWxptraQS2aoeSgTogI1FvDAWgrq1G5e+eJjdg5e9pEt3/6po997Ma/v+/B9/+TU5738EMfCaDJzSAMFu3PThl5qhrNdd2M+gKgPu6MBLsuy+pdbnVchdoJBhMiOIXdpD9FzNDMXLPZoCAo3I0s9ZmdO6+f9rYGzbbjKIM+/guQXjXdMkmYZIKiXxX1hJSQXn/1q99z29s3bNkabLSV56ZMBPVsmI8KJ2ISBjKSOsg4OmXO0QVCLSVzg9LGbtMW3/Laay5+69I3/f4xz3z2cc/DEF0eVz7UakcoygRiILM5GeVgyB7Auv+4MQY3C5DAEQ6owc2FiIQd7OjEImpKcLa7L7vHhx/+j6+/55tXzKxklkjB4ABCiEZgktTIJHD2iaGsut3WmPzQbTuVWhUpwQzuyBkpIWe07Y5/ooo7TRL7RAb3ye90XZ9I3a/CE1W8LaBjcX7mvf70zEPukywHikzcJBXpJ4K2zWXuUx1s96aUuROZOSqqEMTZtpel/69/ufdpj25k/UIjnNR0AV3w0OR8/e3fe8G/PfvBn/vVj3z/w33Nhr4evbsnV8B1++ff5ROoCsCQelfcPcPRovnAdy5xCpmNBMkyt+TDPpF71+8zk2fpPn79PzZhDEeF6GRstLM9OnnenNzdkYRIRDyBhY0T9bn/hH36RYTsHkkbaKCYoPAI3r6BzneRD9BJWy9c/t33ggIxI2mWRa+vnKWLISgJzTVb/+H77/cquLu5bVec7T/shmQGIGkLQDtzYN5mX3rNi87750dcecvnQdZQo0krYhPXbEoIhACIsRnMVcDZPFrtmrOlwEzMWRUGAxasZeBra6554hfO/5Ov/sFCMzcIA0f2fjXeXS35tslt/2yyR0cKFNo+48VddtNvRQRspNSnYzr9Z7khLtk8SN9Z1AkOEnYiJzhNMn6dzBjExCAKBHcn79dozZ1EDEDbP6XWDzr/euu//NrH7vvG61+1ecscgRrMVc4aoaGrMxEE5EJQQB0VhUDcsYuymZqitpCByAgIXUrz3s3Ob33zv7/mVz5z5jdu/yaHKnESZwBZs7vv9xXBgkjr1pl2moJgNBgkTdRYJ+oRgxxnOml5jKnqqUc9/SWn/nlVT4/iVIY6PHogcoeSMzPnjMEAOSMEuKPfQiGCnGGGqoIqVCGCrsNtt2HdOtxwA9aswebNSAlVhcEABxyAQw7B3e+Oww7D1BQA5Ax3iIAZKSEEMENkcs3t0t+LXp84IAIgVtFfd/Ibztv4m1vzpuyY4sHYmn3t+9/JS7zDCv+u4smQtYFPhWojzQ1zfdOGm/7gO0961K3nv/rMV6+cOZRh6ilynTpEMouLZ5wwwcActg06oaVOW/3Mxk/P5oWhVE6uMGWl3oeVxRIbAgd8buOnN81vkFGsKIL2pu//P7VKZKZS89d/+rV1c2vmta2IK45m7rTrcV1YxpzEqbaYc/fRDR9+ij41SAXnn10G3N3zBVKArU6SYhW3bJ393a8/6Yp1n3LQzgMDTVaFPbgGqzrXBKsCByLz5KBsrUYIpqybN8hgEFsQpW7og1Ybrq1L/t4fvneNrP+b4y6dmp7pt+0kaiuvASRIpO3J8vsBbFlrEpNMkGDvv+7SP//hCzbMbyBIB3UYA2wgJyM2ILq3JgaOrurecQYjwlvGiOsFtFAstekFn2PJRKgpOFND3W3zN/3WFx/yztUfePARZ2fSABEJirzfK3tLKXqVKC2nkcK2tM2AmCpfYqOtecHJnenwFUe++aS3P/SYRyjlalK70aKGbTnZk/IwqggBIWDLFixdOpH4Xt9jBICbbsJVV+HKK/G5z2HtWuQM1d51nsTgRGCefF++HKecggc8AGefjdWrQYScUVVwR0qTC7rvyAHrU6n7lyNCY+2A63sfcp9nnvBHb/jWa6Oj46ZGpdi3+wx2DuLoDqHjYr52Rd4RS4WKpEOS27fmjy988LZw01+d/L6DVqwccL2g7aiqVZV3t2pBBuuTzQiAuxCuXH/V9Zuuh8KDZSgbI8DJaXGrMCGRg7fY39/y4Wec8MeddRVX+7usAxAXd7/8xvdvbjdVLDBkUbJF20HMlMGETB0Zf23d136w5XvHrzhV6I6DNSbp3oupvHsWA2IUxI0LG37/2xf8648/q6wI4t7PLWjbcqIDpErgjgXERFY3uUnw5RRbxiBZ6wsVhTHJXG4HFCmg0cYDprQWU23tc9/95DPap172K3+bONWIwev+ZjPIuRPsN+cGGwVxKDdi4eM3fvyZ3/1j3qJEzsEyrM8FdfRbnMjYUy1hXqHaDQKEY2fUURYZGsbSDqlW7+Yw18/to1UIaX7eR9PV1nGX2k1P/fcnf2TwsTNWntFP5xn7fw5M0JCRAtM8LcxbM6JKKDrRZluIjCpWv33sk6588NfPucc5mlNE1Vp2Q7AIon43AAPm5o66RkroOixdCtVJiK2KuTm87334jd/AaafhggtwySW48Ua07cSK6d2YXo6ZJxF622LtWnzhC3j5y3H22Tj2WLzoRfjhDyfCzYyu26Hp2y2K/iL9KX4Drud1VhCef/ILz1x5lnUEQUfdvhcV2vb1X/PfPYtV82lcJW3MU5XvVh8wz90VP77i/KvP2drOmdpIagAmkbIvvtA72V7rrgAyZ07hXTdfUnmoJXSc4RBncwNAi28yYGE2JuDyG97f5aZC5TCY79eyDkDFtyxs+OyaTwMeJbJwxu7qGnk2oUDOOUIkdvPp8psvZ0zKABjsv5rZ6QKWjJThb/3OX37+R5/Tyq2q+n++3Xre/jNHYwTKMWV3tEtlOAw8xx2HlGAM3hyycDuTOeeUMYzE0zw1b00raTxs8zh96sZ/eu8N744WAWWCU06mfc4/9p/byISsWVD/YPN/PPfaZ9Jsk0fZeWAwdgQPIM7sxmBmIcKsUh1smlmVx9qxpaEjdllSBkxzpbURIkc27rRT9UGN0MpwergQbOvGDc+59g8XFsYKhYNd9ntlbz0Pqc5upDSiOledUaJGZuLgmBXHvmv1ZW/7lXcsmzoww6tYq+WaAzHAULYM7bfMGWnvlceIqkLOE/2dn8drXoN73QsXXoirrsLsLIBJuL3dRdkea5sh5zv8VW+5zM9j/Xq85S04+WQ84Qm45hoQoap2eOZxzy0AACAASURBVPRmO6z57VE/gJFOMxOF8MrTXjs9vTSo/Byqtk9qX27T912Usr+zS2BMCAwjHVI0YJ1uoI6M+Pr1P/yjr1+oOnFrORt2WzyTWRxg7wuKxLVbf/qFdZ9NnB3GRrXXxqbuZLu1SpnIKAX93u3Xfef2b2fOOyUy7MckpC/c8vnb59Yz09gaAMFoN8u8RpRgblyTGFvy7iM3/m2TF3a6s9vmZ7772DMpWNr4nY1f+6sfvz4DDTknnVQfunPaNsQlhYwKQ4lqOqvzlG1klbXcBrNKl1kc+WBj5SHUnsamNpvmKciQYmyJhkLgl37jz27bumYWY4MxIiBwC4iG/WZjvEJDCKnLL/7OS9ZuXeewqqMmNEbCHtjN0TF7oEAuMPEI7gIaEpG6rqJJHFNoIRKX85SyLVAz7QPVDM/CyJmqerCAcTseD0iSp+tuu+7NP3hzcM6kbvv/TtNhrJvURBWqwphTmOOYpVoaf+foJ33i/p9/5D1+q0ZkMzYeWxs4bFumcwLRts26gSIzzJDSRJq7Dn/xFzjuOLzqVfjJTyCClCZRdtdN/PdeLnpN7y3y3szZHoznbcv1bYvxGCHgE5/A/e6HJzwB11+PGCcXEYHInRcX1RQRGcYWVh/yq886+VmiFfZ90DKpVz+ZOez4WiyQd0YUFamShAAMUcG5JqqI26n8me998v03X9K5GKsIN7t5Ms0mVaNoktb8j+v/vplbyJbNHAaFJdGKOJjszpIyb1mHGCRNH7jhfe5ORtjvhd0ri++59TJz40kdLiXCbraDsTC7QR2gzhLY129ad+X6f3Hrd9pPUld3Y7NN5sRcEzCWhTdd+4YmjZ3yEh0w6879YZvh7gBytmhhWVh61vL7POYeT/jNEx57r0NXT8epEH2pTkk73GgpwYbuhgSR2itnwKhLqaYqsy60zda5je+/9dLpPMVQBwLB+zQB32+CdnZx16tvu+LzN3+G6qAIZlhmoXeWsqsC4sENrXXZMyRMx8FRy4584JEPfdQxj/vVQ3/10GWH83BGOrqtnZ/SQSdQye7UwiquB0G2jBuOVCcJIp0ju77vR/9vbrxFnJVsv/fZHdYAy2mwReanMEDtBxx80BuPfvPZqx4efSAQF2UnNxpK3fcNg/Q+VH/whiIFVClRH0enhK9/Hc97Hr797UmQ3ofefacKYWKvb4+v+2tuD9t3ikDBPEmD2Z4J03WIER/+MD77WbzwhXjmMxHjZBJABLPJBc3AyogUHGDqPL3g+Bf+020fu/7W68be7Nv23JFVub2AHu20pbefouz0MRXqww5z2TALjoaRoBWqFU2XpqvBxd986W8c9JjDB0sRfZDCYmJkxNznJhIB2Nhs/PCtHxQN7oBQ8tR5B0JElbzbjVhHFyMfezPg6qO3/P0rTn2VDxEgvB/vqXYAP9jw3as3XZU5R411rHLb9TdrsSRYJ6+UlTS5o0+LAr33x+9+4MG/UaFi6stX+X865iXyoFjT3Pypm/85hzAc00Icp4gqbe8bO8xEAo1m6pcc96rzVj1u5WAlUja3KIOtMveBa9/7trWvW7fhlmVaz6GbSnVLbV3JVu5meDCvTQVpq1YTprphWtJedtO7f/9uz56emWo8DRC83+2P/eZEGiLMN/N/c8OlQYPxPAgWw6aUhwwiNoITkUvyFoxlYeasg1Y/98QXP+CQB0FTl1IYTo21+eHW77z22ou/uOmLOtsOXTLnSoYLNu5chXQGVW7Ml9GWuW40qKn19frTT//0E4855vHM+78bk1OaHgy2yvzMXAyw3z7usVef9fVzjn/0kKeCSLaELERskuBQdyIPfVoYZRCImC3CqM+HAfC2t+Hcc/HlL2N29g5WeP9z79hs/8Ne0HeWut5L6WV6+xLr9pvdW/kANm/GC16Axz4WGzdiPN5xtZ2CJbQ5gcjgwaNV+q4z38P7vgwhgxksk4lECAgR4Y4rkHcQg5qrBnMVxSmpRwJhX3CLTk3UQUuUdU234eXf/COPrFk87u5JABIMGQ7FmoVbv337Nxa8ycjExMxiEk2MdExWL36EYcdJXCKFxrot8xs/ffsnA8v+fPbgpE98Yv3Hm/mGgJSzBu3Xijwv/lz0oQYjUl07Z0+b4/yVN/1L403ak8PTA8hZP3nDx3M9F1sfh0TKgzbucoWGwa+8118++ZinHzY4NBBXYRjqoQRZ7jN/cPr/uuZe151x+H1daKnyXGgrkZytokrbtoqUK6vmoxDydNbOblp/0zearyTo0MUBBgngvt8UoHUDR/rizZ9rbQFjYRaYLSFRh4OISQjs5sBUHB01OPbS+//dgw75dWfzWA9G00w6EwanLzvj/b/+kVcf/6ZmmDgLGzo004juuVFATAfZtupSGVpqU+gShQ+t/WCbWt+PTt7w/hgNBxlM3dUYTHCqmdssWQ4+7Ii/uc8H/u9Zlx24YuX2DO/AkULfQSsQpC8JZJwzBIFAZmBmJ7hjfh4XXIDnPhebNu0I1bEtpX17PJ52ei5+dnbYC/3Of779535ltb9gPyR86lM46yxce+0kC75/xX7x1twGIfY135yToDqCj7joga8SCDPcQDANxH2Ru7zXZqnk3HT66KMfc+mDP/C2+1/yf+/7rrf+6jteufr1L7znnz3q2MccPHX4IExJNnSQAcwsoYskGZo8dUZwGSJ2yGJwplbyUMPlN/7djZtuNM9uefHXhXsEGRt33F3648vS2EINroJZhpoIMYfWU0XInJzAxuzIYtldnImMTFgZnueRpyxY5Zd9/1LTZLS9nJnBfVL8mqCqnn06zrih5kHkMAhDIQ4cBlSzSx0HFQ0FFj0O6qG6E+16IyczkQUnAzlDDFZXQyKJVO3yK1gYhIGwhFDVsc6aKDNA2pe4Byy7uwPkbU7Q93330hjFDFUM3rlVUFdmUP9cmLuDzDIMYmwsDhcwSDUpg4hHSTblLX/3g8uZAEU3KRnrDsAWdbfInChcs/4r1AkqMENBEGOSDOuTu8XF1TvWQ4eHPemoC4bTQyJSRyYTJ/UMZkGcPnB4yer3LK9WNNmFQYgqTsg5QtXZPVcaXEyNmGlAX/7RlwLIQDwpdeiLlT/7xYzZr9n4Ne1ai27CDMowBQWOCV2VAQstpaEP2q555unPXiHLxt4KAsENuU8CAxiqT1r15Kcd+wwRKChYWEASryJxciWFB0/eCQdBcM9fu/VrdRRA9xs3puZqNjUhcjSOhMxOneXovOA2ir97zAUvPuFlBy09lLJ766FatAf0uYzMEyXdrrlr1uCCC3DllYhxYqn3v6D7eM1mzRqcey4uuwyPfCTGYwyH21ZfSQBktBVqQVTo1PT048OFH7/bP11x87+otxSoarAQOusrfe6tHik6w9UJS4572EEPi1RHRGc0XRNIOJAnuWrLP//lT95+5Y8/OzfbVpWYETkJtDe6MoEh3B9VEMS9a1OSEC6/5V0vOvmixZP0YJQZoQOF7NnzZ3/60S6kkGog9ULSUSbk6GAPmYjNLbgFGy3UaWCtp9qkjSkqgcIUSYd2Pst1C1/5yYZ1qw46TN2FpC9kyx6MDUAdBi8846U3jG/gxMKcOAULBhMWZfeUODBlclDgamu35d0//utr1l+z635l6sGqLE6kZnVdv+OMvwl1sEWs4UCxQyMUrVO4j8K0s6Mv7e1wMjCIWC3n2v597dfWprXzeewOI3e4EAskIxt5NG7JAyTGKqg33i7ezP7Bn77/ycc+1SqrIA5XVyKhxRXTgYR0W3tbq604ExEzGambk4OdlbMRhMIU6mVYHsnE4KSx78DJjMDiC5amrDpseOSj737e+753KVPbeTPInBhEzKDJLirvMwKhXb62+2ayNvAAgJqJcGYN+4khY26b5jdtkTlRNrJMKsbObqoEUgYxRQ1jakZVvRIHdKEbeKXWkkUlyuIVEZEJahN/ylFP/cB/vFs1N56mq9hpAlFvMLqbu9pk6x5t9Q3fn/3RiUtP3G+UvW2aMJKpLo5F55EOSvXsIIUFvtvKVX9+0isedY+zR7Q8WRtCNS95pIsWkQ0BbYu6niyK9l75unU4/3xcc80kH3HHMua+X4rPGRs24MIL8c534txzd6y4Sp0DQrWtAL+TKXxqMHPxiW985KYHzC+0uR20g+bAbkklqoh7q7+32QNAFEdhmianvNhoUAPcIovgAYOH3G/Jg967/D3Pu+45eVOLqGb9NldmEiJV1wjR7Bo9KlqzCvHDP/ngs45//pI4s+iIggBYZZxjc8UtX/zRhhu19qCtuUAyExHI3B1i5Bm5DtVj7va4v117eYuWIdEkuYoSIJly7VUWxKy3zc9+/NYP/MlB/0f68xPIjFxc2DlRjuAzD1x9Tz+93+WQKQcPBmNiBVgzSYBqZg5E46b56C2XL+paZMkDI5CKKVlnePQ9fls4LFY3N1MOGkhI3cTY2NgJBogDxGClDLAoM8mlP/6b2TQLR4XJsRXs3NcxZIh6HlC9dHr5KVOn/utt/1xrbDnJriug4evrvvq9Td878eCTJq4hCUOdwm6U3dw25y29i9DPWdw8IGR3JVVA4CCb9fmb8k3f2vqjU5edLMQpW2SWyAHs5iMOziqQRxz8yPd+91LvSKpBQwjWCAVBAKGvP9ofdjbu9Na0zhuiIUAQ4eQ5muwvTruRbVzYwBwsOUczA7k4ZSInC2BkdGIiRKr2ufWffcghD6WahOt5mx/RaDJfSwQGBz9lxanHrjj5PzZ/c9qZnUmyMwtkUkEe1seCglDHwXUbv72qWrXfKHs1NUyz4/FUMEvLc5yFDpx+66THv+zElx+85MiKYlaPVoMxRdFEF9ukuD1vPcbJCmdKeOITcfXVE7+l35fUdZPF0n1Nvzd140Y8+cn46Efxa782eYfWazqFltsKdbDopEZ6z4OOe9Hxr/jzf3tBN5ybaeL6wVbmASxhLx0SMmSGObmaZeaoMBAHAxwBIkwZHobyxHs8xVN+3rf+1K3TSe1IZ3BwTugcHswbS5EqCVmpvXnjmq9uueYhKx6MRZZ2yN2I2QGv3/WTv4rGwTgLkUHJawdbSDAXOFl0Onj60D859bmfufXTmwe3Z9dhHjbVeCpFFXdHRobwQEHd4IPr3vMMfc5AapocG5L7xMng4uQw72uxKfK2WkmuntnZ1EXgLJZTClqHCrp4bCvORgo1eMWx0rrlNMiLVyjpy3mwEhEEph6kr9ULsMPA/QlI0TfPb/7Mmk+ysxALiUL7Qg8O68O0GnHM3bmHn3vqsntfveGKnA1y55IT2/ciSeLLb7rsVQe/sctNFQbkcGeF7aa8awDXoY4ct23ld8qk0Rxwhzj142Kydkve/HtXPfZNJ735QUc/2EKCTpNPDrLQDI7M0LMPfchDVj1ipp2ZnhqsDMvqsGwooyVx6ZJ6yUxcsqRasqxaNpLhQfXKxpoY6i7nCqLQGOId6y3+grsxVEkc2dRm2jJwJiIjcvMYpE05WEWELBq9Tm16z43vmplZ8seHPGfpihWjMEUKypRjJzFm6iIq9fyU45/+hbWfno5Lpmlm5WD5VJgZyWhJtWxJNTNTLVlaLV0Slw5lNLLRaDgF7D9789o0TksxmG2rqkbFR8wsv/jkN597yMNGU0th8ORNGE/xMLvGbZvUF/O/zBAjmgaDAczw6EfjiismBQD6QL7Pa8wZfSrkPmW7KbR1K578ZHzkIzjrLLiDQeom4Joqh4KFIAI0pE8/6imfWv/xq2+9esEbtg6AedxbCyYtkbAYiTMBLgDBwMgwcUlugZQs1sHPP/rCD6370DU//QpBK6JEyb2DRwc5M8TFVIUhruZq9MX1n/u1FQ9a/FgzEKGVdt2W9V9Zc5UGDVkgJtzvdIwdspNFkDuJDx648teOXXb8iUtO/ubma8bWtNxWwmrqfZU3zw5LXAdb+I8tN3xz/VfPPPhXyClQFA6KTIR+286Ow12dGAICQyaFedgBOCEiEGKmlhYfPi26dOzkluCsQuwOwaIZ5+LBg6vmOtQODSzbDssh5dyXu3BYC//kLf8wO54DwcgMhsm+fndyIQYhWQqozj7iYauX3u/Pv/VcbRPvOn/fAUrBPnrL3734XheNaARA4bLbLftEcLdDR4d9E193dziYoOTuJmAGZ1iHjsHRJVi4dcPNj/7qo878wepzDztv9eH3PXHmlGVhmTKEs4EpSyf5Q2d9uKVWKLZdW1U8qb8y2fXUV4ImMKa1AlCH2I8uY7TDXO8vikVOR84c2eQFFkeGB4eAFATJUCatEbJYa51Atjbzb//aX14y9VdPOPgJ9z/y18849D4H14dFVFB4f+AK01OO/d3fPerxhOASwebQyaF6/UqebztFlZCSYj+qwx68WrI1SFVr7M67+6M/88AvP/bo80ZTS3NCxw0CpjECUqQACTnbbtyPPsul34j0lrfgs5/dkZzel+gajSZqG/Z9N9rZ/1m3Dk97GmZn0f1/6t48XLKyOhd/11rft/euOkMPNN1ANw3IFERQMQgKEVREZkmiJpp4Y4y/e403McYkzy9qkpvE683kNSZGo1fjDEhCnFAcuIo4C80UBieGhoam5z59zqmqvff3rbXuH7v6NCinY/LQNNRTTz+nu+H0PlW117fWu96h7dg7uvvmIoNnWEJTgSX23nrSO0qx6X4xMVo2D+VHr5fhnINlcQWMiAjs4AwOCAQKLWVyAC3yxET/1Wv/m5M1nklZXBQwKMEJaIULh1py7wwU062b19niUz+Y3LVEceW9l8+1DQuPKImZOYkJA1mMCGIxqSVvLj70Yiec+6TzR20dKGSx0IqSOoHc3Z3ATm0GZKQfu/cjkYsg0dg6nL0b/AmkZA6YO4E7oEOhIBiMQDAzGIkDaNCoLcoqIWVXQyDh4G4Dmet5z4L+pDKgezJzotQ5Ynq2br3rau4QBBCpO4FJ+bINH1uw8eoqe/TAzMbmhEyZPU72ps5Y9twl/emTp589QC68eMS67vDkacuuB7++/ZpupiW42r8Td66en7z0BIOZGo+jbiEmcHQzio194qymZkAjbe22zf/25zf/0UVfeMEZnz7pV7/8onff9Bc3b7m5abVmiyhdUplKt3ai7LEXhAgEUAAFMBuTMTKyBc0Y38kK66E0ecIoldj5yKmjqEDBUTvXdiIAjaaKBezZslhwdWef5nIoc81o9J57//FV3/q1kz594tmfO+ON1//+J+//l1nd3uShu2Y1iX2WwtkAClawdy7wRETE7uxGDnhkCfTEqext0TY9OnBqxQdOvuzdp3zgiKnDXAoHJHjw0J1Y2aNmmGWWRSt7x27s2Cnf+x7+5E/QtmNLgG7XRYThcOzx8higMQ+1FkgJt9+O170OZQkABUUnM89uYKfgHK2EU4rNU6aOfcuJ/zuxpWo+poRHT4rDoXCKLuKd3N+dYAEOw4haqkhQgFHkOKDZF649Z1W1ggStZzd2oEstI9fdZu4Kh3AwpDtn7q7zYHE8V2E0yOnjG/4ZSOyJCU7RQA4DVAiCIhkgWDVx4MmrTi2teuGac2JRARTBqpkgBMpQB5FLgLNMBrRXPfD5zfUmAApVUnLs3j55x4taiOp2uEBAGNtZOgVwl9YQuSz2smnMruJGHiRGDgUKMTbkh7g1POwJIHpEgGFPMh8Ldcc5gwBz9+9vveXGHbc03sDRrQfg3a1MDrgbOxLZ81Y+v19NVyjPWX1+JaKLc12iiVP46N0fHLRzAATy7+pzA4fnrDxzMkyOkSV3JzJYJlWyAClRlCgLKhmQFEA0x4NGU0p6X/vAlds//8c//PMzvnz6SVce/cprLnjfrX973dyNs9yQFxkts+8x1jSQEZuzubhkVzHJnk1VjA3GTygt8QETq05Z8Ww2sS5RSc2Z3D1SgJMqlCwqu3vtLSvNWRO0HKVRHo5u3PbNf/jh21/77dcc/4nDz736+W+5/U++9MDn75vf0KbGrRVjpW695e7dDtVdHWYKOCn8ieMI1kvVRUdf/Nbj/ubgJauBrsUyGDmBKbgnUAiAsxIHJF9s6O/Qjw6TefWrMT8/rqrAWCjU/fqTyqN9V9kXvGK6a7j8crzkJTjrbCsCE9DF3ioSgZiCuxVUtWhffuSvf/nBL7rHMlaaTcKjc0grssPdXIxpnAhKneixougEarKWgYJO5iVa5qOq43bq3DDPs3sgBOJkrI5CTcHiZGQpJCS6b/TATLtxujhmsY0DO+7Ydf1tM7ex2Syw0id3Yr4QSdotFQPMGs/TRf+pk89YXh5AREdWRx45ffT3Z+4I4BQyE2BOFAJBPRmYeX7EjPlNX9v51YuX/nzslWM14xhwMSJ2h5NRF2ivDIKzk5KT1uw9j+SsY+rO4uxAIRHWBm1IRHnSe7M8mPaJvZ255i6d/yubm7rHLrjVXUBCMrL6izs+PdsMS5cWyhTgyDDvZAdOrpDAkHj6iucEjqbtmQc/v5JqlIcPacN3+36NUQIbluna9Vc3xw16xVSgRXMlFzqOgPLk5acsLZe3bd1YNjMCg1xIiEBOtbUOFBAizkWKiOoeYlDSnKysyzbWFYV76vserLdevfEavsUO6K14warzzj7ivLMPeSFTEAqMTl07dixo0ZZUmGukQAwjty6+/IlSsRgR1QuXn/fdLd92QYmQVS2iQKy9oSyVx1FM0REQk2ZnX0L9oQ/ZqJaWmAuPO4c7QpQbttx0y/Yb38lvm/RlRx969IuWXHzBsS8+tDpUwETdO+BYkAQ7wOLO+61nF7B7Z5vSzc5EPs6yYScBUrDIJSUo2aGTh7//7I+8+2kfWL30kIzMxgQl8EKrRRS7qYRZCKDFWYALnPF3vhO33z7GQx5aWIE9luuPyablx+cJM/zu7yK3bAZVHp9GiIywcNgUHkTwV6f/3Zolq2tNj1ZZB0AOBhGh44CzcCdDlyAdk5vKIABDXJycT1z9tHY4LxyJQCkO0QoLuYOCkTkI4sEKMhG2m7bdPtagj8nU3Ws9Hrdd7NIfXWY5KXkfNPKWAlwRCVAnVi9QEgapveiYi4mEzDhU5xx6bsGBXNRAJt0mRWHoPtzGwZAIl9z+AWNxN7QERvaErjnuPjaQ8b0hXcNMEICkR7EL8paxeeJe6rSbOZgCZTZRypX/O46zJEwgISEhJo4sAMyVASdPqWGjS+7+uOfGgwiJWXY3ISZiciOAhN1dIs474kWkGqQ4cvLoI6eeFEMgIu0I1BQEZGaAubCSk3vdpEsf+DCyAkB2W1zy1PHdYxnfeOL/cA9Wu5ckJqTiBkGsKQfmgsQNyC7O5kogNYVCmHNMDG5cg5Bqk7xtXTcNt3zsng//2ld+6fhPPOkPv/2627bdVnsity7rImsbPbo7ZWuQQbBkAqPwxOnZEzL8vz7lt1ZPHhFVjHJ2C4Shp9J6QlyHVCR25hYpEAfwyGsCE5M4sSJbioHZ3Tg1npLajO244d7r//TWP37mFcef/8XnXX7XJW1qgGzIY6P6pE6AerZmv1X2BlkFIoURDGAOJgaCm2kwIJRNrLX2Pr/iSa/89FlfOG/5+f1eD6BIcbf7LhaN9937P91gxw789V/v7pwMRbHfPgAPNfLtqnbTYONGvPOdDzP4XRgphFlhZh5CXF2u+eUDX15JTN7ur+tfXa6JITqZsjl5cPLuxO5MGQE4ZWRnc9AgzzdIcISu6hGUYeQKC+Ctc5uu2fGVxFk0qnlG27MobioFRVP1nNwhBxT905Y/l53AFJmfv+oFUBp50+doWLRCXbfjuh/Nfw+GTr5aWs/EsuXHW0EQDjDPpMzhO1u/vnHX/UEkd6sY4g4l8nGmiwPOkJOXn3oAH0AiDo8Sn3voC8wcxoVJcE9ILTk4sotkFQrUeJb2MxuvbNEmZGamxbmETGQjLVH84tpfOP3A0yenetyiDa2XyYImbaRFzgYnZ5PFO8UFDGr3p75bG/j2Ztv71n/4OZ9/xmuuedm6nTcNU00jj1KwGzlRjBXEXUMQQsATRoIKD16lNhTFHz/tzWDWVPSroBYnYhjFUStJIGiFayk0OP+0P5jDzU2h63Ze94brf/upVx71vu99sGnMU0M8Jhg4I3C53yp7FKm0bHNTSVVwnG0bShQlTKLfZs+eA8tBS9e8/6QPv+NZ7zp6+uiq6DusQSIHCBkOQP7js1nHKXznO7F9O7qoDeBhHPb9sEanH/96fh7/9E/YvPlhf9VNFdkTXLudeEZePr0CQEDcXxe/pncos3SsbSdjZ3NnIjPzMY5D5sZkcN7Z7lgY/XfvMJlB4uywb2z++l07fkiC7MpgEPI4IsuZiTIE4BCOXnLMk6aPIHcDEfDMlaeumljNAuKgi6vP54fDTz1wOTGbmyE7g8Fx/71uex2bNCIo46P3fnA0GhqTEI097LqXFONMKXIY7Ow15/a5ByC7Rg4vOuIX2CUjWffpcQ5goazkZuTsbHD49Zuv+96u22TsY723WpJ7BmCyWPJ3z/zHlUvWQkLZCKmUdSHG/bIsC2b32p3CT1XZu11u5yTcjJyGdVnETz5w5XmfOf3td/zlXK/N1oJFLSe0MJBLIhjGwVxPiAcR1YgFyYsPffkbjn9jr8ztwMTbnEwSojGTa0y5TMqW9+LG/BAobeFFU1cb5e3D2a3D2dev+6/nfvPnrt92SzscCgREDeUGaf+hMcYNGiIMfdR6u1SKwNIgzdpwgquyKM590rlffe61Lz3mZaVWgCXPrlpq0UVVjd13/+Peh0TYsgXvfe+4ptf1eF25Hx8PRfNDGFfz9etxxRUPq+mdIDYgCkUXKHLIoSXFv8dt2KePqWJKoawUjDvDP3UVDqDO7aOz3CUhIuOd7Y7gAiBTcjc8ZBuS3S594LJQSwCbaODACAlmQpyTGcNjZBOmsw65yMnA1I3/BZdnHHJmxbH2VvbWC8sn772iRsNJGKEbHR6H/GiDQSKALfWDX9nwZQ7kahRlgdtGRJ23HFSDLQAAIABJREFUDzsTUMXyjIOeC9ZO8QTgKdNPPah/cGQyIWMjo6BM7pncmY2VAps6kn/8ro9195HS4j0joUB0cxDWTK/59GmfXj2xRqqgSbVnudLZ1NSNSQg94XGwHfZeprBAEAI89E161fzcKGurkd52w19e+IUz7p9/IKOVEGIuGlZli8gMpCeOu4Ba6kVBhru94aTf+y9Hvq6c6qnGECKk23+CQGzMzoXHn6JuPdxZ062Yqig1UNx+/7+99FvnfvDBS9o8n6GVx8qK/VbZ51Lqxz4iRws9q+rYpqCSpArlAUtX/sPPvveDp3507fQRLSlHVtdIgTlCABiBA+jHvbh+ukfb4jOfwbZtqOsxtbFpHgt2417esYUforMRXkD8P/hBDIdjG5nxaMxjpx/tbBFt/Fbvx06mkp7TAquoC/NFxxOnLg17t5G3uQ3yvHvH8OOAAIe7KVTJtg42Xbv1Ggtm2USk00pFBOIgjuzurIk8CF+4+hegu8cbJmN70eE/bwao7wUNqFFvmLn3m1u/kSXDUSJYq3j82fuyMwgN6q/c94WZwVwjFhIlKI3T6cbqJHJycid/0tRRx08+pdsNEJNx7mPijIPPDF6xQwAjbWEOJrCwsoGYs3sM8qn7/nWn7rCAsPe2fXdyqlA8vH/kl8++9ty1F033+jnn2MSeFFVZNp5NPXPeC4ywOwN4IYWXACo9zqc6FDHGMN+MiHDj7PU/f/X5dz9437zPwK1EELC71D6MTxxjN0bsyOhEPMlTb3vy2//+1Hccsnx5Tk1QFgRjcjCbENwk/dTVYjz6zJeY2uU7y9YC2tzumJt50w2vec8d/4SETBn70dp0qijr1HAilTygOgwpphB68by153/p9GtectQrIk9k5BIheSvUGd1aQs5jp2YoK//HWZtti0suGdd093FNz/sVbn1oAuqeM19x8834wQ/GbpEdU5MIDVoAwYnAGnMByZR5/7WeBUURUVZl7ZaRRFBXIiK4OUAOQL3bW5uPm/kOZ3cnF4iA/+X+SwaDWQigBJC6Oiw4uSfiyESBLCdZ3T/sZ5YdJRIAGCkYZS6feeDJE8VU4dEWxyuLHFrOl/3wo8LcoiUijo/LBpBQQwsvL737o21MwbuQYxlHUu9OGjeokxPzs1ed0Ys9293QZTgMF699cfI6aRKLIE6iBAkG70Tr5iLSot06ePDa+6/RTqC6WO8JuBGYFJaHGoqwvLfqQ8+87K9O/LujVh2XgkbnbE3daj9XUeJP8UlfsP8FgUbZJwU5JKJQBVJxavv3Dn742jt+pRhO5Mg1MhRKqaIenjgPYmNQ1hEza4t2on3pYb/x+Z+99kWH/2J/6WTtuV9Hb7WlFDga00/xudhT1gk0ncLO6WZFW0UrPQYxo9R7042v//SGf0ailnS/VfYsaahaamGEaemFMk6vWvoPx7/nY6dffuj0WiEy8YDgqoGCoQu052ghdOxqUv9PHUsPPIAbbxwDIB0Bptd7XJT1BarzQxeqV1wx/u1Ca196AYerAeM0UCbZj4kEtdXku2X5Y/CFyN3h5AYnghO5ggQ0KdPC46B5ODIpQ+CYbWYvXf+xEoWAmcXUYB4iZ8uuMPbg5ESRwzlrzmdiEMxcOmdEwrK47LSVZ0jkxWncIPYR8tc2XbNluClQ0bVVCflxWdv1B1tvv37H9YlT6WWOCEa++5YGuBMHCXHFvQsOe5GSwpmou/mFmU4+8JSDJlaRIJkEhI7a6FCHqAKkQVgNAfHyuy8d+fxe7iTJoOCGzInKfqzruuAgJb38yb/xzedc9/aT3nnI0jV96i+b6O3qj6yxn67l3BOezqRGPWqAUZ0p1NCY2yHptzde/zt3vFZUK4R5zAUUcMITJ1Op05i49gB4bEsrA+zw1Ue+94wPf+5nr/7VJ70sLc/9qlyKyXmveS/KWsJPQFgAkDmX87yTavMmMoYVUqqLMv7h9//gwe0PBOw/f3avbVlVDatR1RZDql9w6LnfPOn6l5zw8pYRJZBlVgdgQuQMOBhKALsxEilDAsTyf/idvuoqNM2YkdL17KPRHtPH/YLGdO1WJ556aImOEZ/4xPivOghetfO0QrdMF4SUau72avvpMdPOmJo481iUmEEkLo4OpNndxoMKkumwBOTe7Ud8HKQwSsMf1T+4a8vdbWxra303U4BjMBB7Ac6ebQRUwc5efa62AV0lA1l2iAF+7qrzvVRefG9kUeMwbkkbr37wi+4O84z8OEy+NkOJcMnGS1S933KDmihmSw4nODs6FIaAiFBR/4wDzzTk8ayiKmAwpsqpp00+a6roJ6/JUhciqkBgYUQSV02MWKP98pYv1oOBLr6v8uAwEo9UUEauqiqbsnIknyx6/+241377glve/7xLLzz4xQfTqlDufYP6CKC7wz2NghR1DwV56WjYKgtB4yfvvPwHwx8kTZMy5Whh8CdO8oYYzDwWqK0NVDiSEgUNEzTxlDVPfe9pH77uube//oQ3rV5+2DRXxV7ygR+2RNuTXaUkoZKCIBxas14Dh49y3rRhy99ufZvmfb9B9dAZXpgIKRshZhg7coS07plWrTz4vSd/8EOnX75m1ZqooezoLjw+dTrnjY5H3MmhGYi732AO8lNuJrvimDO+9rVxdEbXC+v+bgIW4jt+8rLbFvfdhw0bHnbwdD19Z4xDQIzVY1RxXAE0SDDtDMTJQWRNmm+R2YxAGrTUwtRyNAZcqCNxEOCmNXx5b6l6Q2DPSNwyCKYUig/f+k8NGlYRYld3BjHlJoPhpOyw0iunpXHVyQeeUhTkPrZOMTN3gsoLDr1QUtiLfY5n0omMBh+96yOMlNnFZL+Gr40lU9blYOxelhgh5fl/ufPjrdXOEqn0nCgEYgsestBIU497LWCqLzzifHewRWd3hwuTu5qxh4uOunDUtBNVGJXOKYolCjGl1sWgRM4cLGrRWP7Q3e8TJ7ibmbmNSUuAd22TI3c+4d6ysTkCi8MAIhIlVBQuPOTCfzz9Izede/u7TnvfLx3x8mOnj2UIORcUzC2ZBURm1myFRGKqswUBRJBBYBc25Jg5mxExyJXM0CbN773t3UYGB6Xo7NnNYUxsmpMoaWQ23k26f8RHAEGJ2KFQN0UXymg/1gI/tJZma5Gpy+kRYgGpQph5HP1hHQjc0faFYa7ZnIjMPasxkTvAxEwAIgkcxFHAYM+EiBg5PmnZ4W888c3ffcEtnzzvi79/4h8/a8WzllZLAQpeKFmGBWeQOdSUMjk5UQFORJmTm8CTKoHNjdw7eXJwQk8/8/1LN9Zb9nlll5EikPViC4uZjdpKCnOf9Ik66osPfcmVJ1/1kmNe2gulJ0r0aE7HC1F2u9dtaFvccAOGwz0FtNOj6uNvyOvyUZsGN96Iphlvi/fjbOHkQC4RWyKnFoCCHD6fhpGiMzrETF0JEJdxNiyxusNJhCtU/TgRUdaaKXq0AlCHDEc7rtpx5UPauIeNoeaiiThFkJx58PMqLrsXx1o39jJGInLJyyenzlz5HCyuuGEperU3Em6buf77278PY+JstB/rOo19nTzCd0etIwfoVRu/Op92cYC6tqiZStJsJCm75FAGqmkwlYpQydmrXtixZKjTrxOInNmZceaasyaqYjCnE6Oy4TQkr4BQBGIgE5yy51S2aO0LW65qrHF373I0ePcbQeOeWkjhJijIiGGAQdgc6hmWGZHcWXT5kgNeetiv/p/TPnrtRdd94+ev/6vT3vG8Nees7h3aD5XGtkEq0Gu1aUwnS6ZUJE28+ElsLDm1X9j2WUnI5B5JkaMzOStcwAICW4IT9nZCq6VWNKDSAAazkXmm3fDTT4YuJiQRERImcnNzMzgJJU+704CZdz8JpAaG7Dbgss4sOpmxEXwsMN4DpxBCRsopqwUtCCQVn7b0595w4v9/1Tnf+OaFN33yrM/89vH//YSlT56UPqEA9YKVXuiEBVL1AekEWfS+LDprZqOtzY4vb/7iPp9GNZaWm0ml7P0ZHUxnydyGWExN9N943F+/8thXOZeFU6IsgX4K9s9/EsjuHlu24MEHx0BHF420IO5/vD26CyPCunW4+OKx7cF+tM0QhAQ4UkERKJLnAEpK98zfQxAlC87Skew6UNeIHARKrgCTmJtOl9NwLjvvacrqbKxf3nT11plNi2GMpbRDF+FmqqhOXHHKzGCnSd0iTkuv9qE3hMwRGHo6avIp0rvG6kemGTjnpIilztT1x++9/E8PeDIQd5s67o+T2w3EGR4NysZwggABrpeuv3QuzzKTuysQSTIQzBLcSCuOmfOwaPtV72fCidvrnR1qTXvORoejsHji0qddZzfXNCxNpOmlelBHL4idHMzIoBJkvm7zupu23XDqymc5xrZoBII5cScdIQJ3casku1NXzcEQCZ0bgKuIZUTnBCp0wiZPKJ/65MNOeM1Rv7lTZ27YfMN1m75z7ab/e+PwJq9jUediordLBgGhtSSLkSBYKYcNcw/cM3/v0eUxBg029glVUiaZoqmdvIMdew8w76Zbz4bA9PBq8Ij/X7SopDU1YBIT9WzkgYrkSt7JClyhBuvM4/oysec49DEuKmDjzGACE8EBhbITGyOgM9cblyYCEpVlCeCQ3iEH9Q454+Bz/hBvvX9+/dcf/MrXt3z165uu3dpsH5GWoWxz07c4bFNaHPXqUTBvbtp63T6v7BwaauJAjYrBihjdovbo+cue/7YT/37NkrWBCYBbCkxKAnvU7rMFd9wFINsMd96JotgTOY3dRgKPz+Le/Qh33rmHybNfsQNEILmAkD1FRDBMBzfsuEEtweFwBhsrO2Uoc3BXuJNQZzzbWHNwdciQmn4oVV2EODFH/+D9H4haNNIusomSaIip3D6o/+TfXv+Wdb+XuSjUZmnQt4Itpqgc3MBsnNuGFyE+mqoWUlkKMvGpB674/RP+YKpYul9fUEOXJcTmZARRNRAeHGy6futXEywosVNghw9dGM5eaqAwahMxlmJiuHPwvJtOtbnmkV83tjRnMagzlJB5vgWmpWra1qODEJKwUhINWS5b/7FTVz1bxhYyRmB3jNGEpKCAQNT5dXVcVcpkBIjl1BZgMGlLoccRmoiDe0EKJ6XlvPwFB7/gtFWn/t4Jb7hn5z3vvOedn7r3su1zc0yI/RJKeZF5mR0mPuVL7hjecfQBxzAITkoQR0RoKC2Py3fmbZWWDTfCtGhWt3DdDpLVJXoJFoMQgrkuGrzn2NXsJJBSV4nJ3N1NiAhsZArjsQieiOjAasU4Zdy7zGIQnBlkYeEAcQKDicjYzEAKBDW3lLQIRShFkclYSMRAoCjlMVPHHj11zCuOeNXA6k99//J3bX7HXRt/FGOs4ZMyMd8OwiKisBHnyHzX7D37vmdvQ+DMAc7FwNJB1ZI/OOrNr37q7wi1DGq0Zi4DBzjEse+ECJ3f+vr1e2wdO7hjwffx8fbomnQzPPDA2Ep+//rcuTsRIjhBo0cwhmiQ+Y7ZW00zA50nIxEYks08wNTZTSgQXJRirFZXh5YeHE5mLqJxdN/Mlpu2XDfiZjFLFoa1Egah6fWKpsk5JevVQ0cvVFnbhhoWKrK0o+wVKpF2sfcyc6/gYdIo9QNz935n843PO/RZZL395ZxkFLhbHZF11P6aRn0qP7fhMztH24TZG+PIRKTJKIhnF2JDEucS/Z1xPo4wv3lW4m611e760s06TB77BcF6OY6oDQFlinVbMwIzsikFyabq3o/FZ+//zB899U8PrFZ2FDQANl5rwYswnwbBy2js0Mbb2dH8ADtm8q6ZND8/v22e5uebubk0e8qq5z1nxWkSqXMbLEwgHceV+jLlYkeuPP4flrzr3NUXvPqml/sWnqlnJSMsJqmxmCi1Mr9lbmMHOmfOAcHJCcTES/vLeciwTtlBi93BracNo3soCMydxV0B3gtbupZmw9x9fUzs8hl1LTiQs3pm7vQETsBue0oIZHm1vGu9O9tn6qySLRFzRibtNt6WNM/r3HbbsaPeMWzm5m1urp6dTXMk4bU/89rghbsTE8QAg1FK2VliKJZR+bKn/toFoxf/8nW/ePPd37JhqidyjJU37WInohhtGty9zys7kWqffaChaV90zM//+dPfftjUoTHDrUyFFVySExRtHEWvGtVSHp1LWuhzuyLe1crt28cJedhNeezoho/Dyr5wkbt2jSeM/VvZ2d2IyTWSgWSIUR+9z237/I5mGxGxkYm5ETmRgZ06zzbvmi8ywI9acvhEnBCIk1PgrBalvGL9x4bNUCC+iCcIEfdyapkyh5haZYCmgg+a1HbLNMo88NyPMRMPUxMWy2xiZDcWtlZzVVx63/vOWv3c/WhizQS1LBRABIOTlVTC6F/u/XDWyNIa3NjczRCjq8OTed8IInNhvoCEKibKcNvDi3vo5z/HIWrPmCQjh2uInnLBZi6Z3AyFZ/XCixGNmvn22k1f/cXDXkLji+kqMsz8/3z/PV+875Pb0o6dNj+fdiZvtIYiCUsNFes2jQ6RXzty+8+teJabMwAJzt1SEaYw0oIlOCzYhQdd+PuHvPF/7HzzlFe53y7m3ENwMdTa7qpnDZrJA43BH7iz8+ola2/ZemNtDbn4T/z4e75PsvtHD2wabF07taYAHJrhi3GiHF6hvGHbdQ3VbihczNWJWMYOz+i6b5BCnZyZV1QHjR2hoV2CHRS78vxrvv7KXWnXrrRzRmd26Ywmo0y1tRWHRErClrKzTpdLf+XwX17eW0XdssVYxZkQikjkjqx1rKqiKooPH/OBs4Zn3bfznjLHdlQvNpuySUv5wXrrvv9oE8Iu75cTbznlHe969vuO7q8uGhkFRXQ2rXMCoYm5QA+w6PSo18eFgkiE+flxOt1DiSgLsRuPNyimu+a5uTGZZ/+eQNmZ4XA2xEyjnlfDnc3f3fk/bQGQJe4C5hVKRKROxBB2NYdB6NkrTiehxKqaiCiCZ1P96Xsvb3jsS/DINybUUbJLykMUhQqgc8zEZEG4AAcFDBRN9oqZE1vtXgUqUCROX9l01fqZB4H9eaSTk3dIlTmgAl63dd3NO28G3NU9wB2eQQFQb8UnMEUII6SYqDeUpqljC6SFJyHRwm8bb0pIIMlFDsSiIXeMOXZVB7OZs4OFc/ZA4fL1l8zWu4CxjUwnJlLHnM19a8c3btl+032z9+6c276zmZ31uQFG83ne8khJG0+Jc0rtrTPrahoaiUO87c7zzGQhoBDp3FxZCg/6quNeu3JyWVbL7eL8dzaBVN53IQYICkciI5C7CvEzlj4TNG7X9/IuCvGwGV1x92UjrwFAgy8iYui+zc7hjqvv/+LQRzBECureeSZ3i9BudWSwDAdTKeUx08cyCTrH//Gug4T5m9u/+t1t3/jR9u/NzGyrB/N1O8zWCFmdRzAzzTBX91E9uHXLbQrLDmf34KDOYp2QmHKkKgOUxZcftOqly3+RW6+tLYv+4rN+K+RR9j2f3SXkwlIaXLnjEzZEEtKYy8QKEg5ViIpUOKuCwBQeNTjmoYkWC3j6aDRmwriPc1CBxykaswDIzMw8LBVkfz0CMEICwMgBPcv44M5/vH79OjYZm3ZBhAJAmQwMVSUGM5NSABdSPnP61IgiQgIVQOOC67d/44czdxcSstsjNV0EQEwyGhIqWuTo4r3QUg4OZWgccs4xl9xvoU1ueqHcSxmNCjPKUaF5dpiu3fK5xtP+ej0dxuBOtGNOjpDb/Nkt/9qqMzWm5EyUWXKUmBRcZh5hvqVUccUSBlVblkXLGezoPCce9nQmOErJ6koJrkVNEilDlIyci2ANOFNbNGLIkr+y6epdzcy43ekQDsDcj5k+ypgS3DkxHGD2snSiUMCQrCW1kgSmt87etHW4KxiBDAVIwB7grO7qhuwZmeHWyGSvXM2HQ5TiogO6gROrkC2tpt1JrFDVCO7GODA9beoZTig5OikWN4HMwdD6h+58z0w7m6wGKKKwn7jhF06HL+380nVbvlt5JEbLLQPRitQ5kXWbfx+PXH3uLeVlR08eydRJ3jrejhH7dJg8LBxWhWoo2nByYgIZoDCO0cRrzUGDcHDI57Z8ltUCMciJIBbIScU8uLGRi7sH5x56Ry47jovYr8q6o/c9IvpEEO4tK5bt88rOWcEkOX7nR986/RtPv37Dt5UzRw6ExlJnRkFELNalHD+6aMZCle90Sf3++M+7vNPuiwW45vGGxnR5rUuW7GG4PwZJIMiubJQF5gDSgqyTtYeiphEQ2pze9qP/9dYb/6xN2VndnIVN1ShTF/7poBBYKbeJeoESJqh39tqLCG5qIBhC8vSvP7qs8SFSoGD0CB4u7jAQu4GzUSnIqjzK5DETgru0EQQjpxEZhUjJWnBQN0KQxG0wdogFC24CgkHJzBnMph+4+/1CDEXugmlUVceee/bY9PJCbd24kwiMMJTZy+/8Z/dsYApgI2fzQr3tCHiB4QxmajNyaMhtN6begScPe4JD0bZDj4zMgVA1ZfLELA4nJrSZIhCIWyJmU7NkH7nrAwAgwDjXxoPgxKUnZViZYo7mJCEzSc7q5NYyCg8UyDKygET+93f/DNxltVBG6nSvMubXWEBQNxI157vq9YEIrStMwAG72Q5M3mnZVAvmJuhxU08RErAKxnoscyeiU1Y9owgVO0M7f2N/+L5/bE0jTLW1WwbbXrXuZXOzQwrk5OykrljICrBMIE26bvt1v3vtbxaxzKRk5MoEzmgFDBOwgyg7I1ipsc56xtozWYK5RwpExEwCNiICHbfi+GQQgEmdCFE4q1AQU2s8ClJU8pzS6IoNl94/v9GRycgMzu4EIBOImd2dWgd5S7q+Xk+kNHCvuHULHJmpS7U0cjjYKXBMOjxuyVP3eWUnGJsMq6wTNrt95/nfef57b3lXmzMySipqGjrG0olEiX0fXk/Xpy/4EnWlUx+vcuVuT6A6ni0WVgX7/P0qwkRVurS78rwBAsvazLejnToa5HTvzIa/veNt511z1t+u+4vZXTNxevHrz56EQhk11VbFlx356gN6kwZyskzOjtlmcPW2qziUjdbBwiIfHqqRpuJ0EzSrxlxGFCZQIrg84jO4OcBkQ8qTmAgkQ7TcSkSRO10seeFFY+2Pmh9+f8sdjXiAJm9AzAIgwcH73imMnLNrUZVOpJzMdd0D128ebFrsv0/cMgCnliwgoqKEHBAXex0abad4gkU0ugLz1BTEvnhv66af3XZlm5qkSZigYJDDV/QOfPKS47WXecgjyRyp9lxwBUMEE3FL3iAVxjuG85/Y9ol1u67zxr27NqYUyGGcQSxELiYe6Cv3XuVuIwcKLRAU1lBSmJuRQkwEQajI7FPWO/6A4xiUXBCI3JCdWRRUWHnKymeOJJWxJP8xc7dxuJDDc4OqX+2k2ZvvWnfRDed9Z+O3SHlAA1JDQpuaFJJwmG1nPvCD91z0tXMab5IncwPGy4buiGioDegJSChrLblS9nTGyrMe7js//tAS6LTVZ0ZQ8NBGSAM3S+SJUyMWiIOzmDkiB9k23P43P3hrq6wd1gNSd6GiQXJ3Y0LBGZ7mRl9Z/4U4iLt6bcw+Fap5a3JSshLuBHGxNqh5mrIlTz/wqY8B67EapnpJU9bSzNhgajD95rvedNOu69/6rLcvr5f3ehPdEZtdQxtSkR4ty+xH7MSXL98DznSmuPsdv947zu6OZcse05HCmrQ9pcvuvPSbW7+ZkD158rbW0fxo56a82VSjFwNv4Iihmq/bxSSwI9IKQNsPPTvAp3/rhNczR9UMkeCUIf/3wX+9b2ZLL5K4GC1quzjhYZZnydGjspVGyQqTbHmxSMzavEdFJquIR3lo5kEQVbLn4GCQs7eeAOwazly+/pI/X/kXoCDG6LjKCO7+GORtuo87bgaAaEj/tP79SWta5PQOFBlQcjLWnMqKLRsoLUbmLoCMUePGjEqrzNmZkuriqUR+2/bb1m357jNWndoVKIMFCv3QP/fgC+/YelvSPB2mRjY/4WGAOpokGJP2EEwsIPYs76h3vOJbL//nEz517JojCwuoW/SdqGzFioSMPAh513DH62/4zdFwV+gHpALQTgPRbdHdrQvgZTZXPn3lWdPFUsCjd1Jmdjg8MRHF4qK1v/SdB64ZaaMUZDzu04/BsaEKdaqLFnWYv2nTd8/Z9rxnLj3luQeddeKy44teZYTZXbu+tulrX95+9bb5zZqbFmoPEWotTP89CY23ptqL4plM9dBlh51z8HldstuPY4jgC9f8wp9d/4ctZ2ikaNLKKNoy7Q24JoIRm+dsXDK1jV521yXLpqbefNBflcsw8tTTHpACRwJCRh3qMMf/6wd/clO9LlW+DEtqGmRrJaPiYhQcZqQcSSLFoddtb3T+6hfv88qe2noqlENoobFBGsVdOsSn77py/ei+v3v2u3+meUpEsFIdSkHGno6PNhqzAFsffjgAhICcx8hGh9I8Dh8LWUtr147Hi8dGg1qUpVlaP3f/PXN3GyyiUqhzco6qxoQGjZJCQK4TSXQRi/OeFNS083FYjeIbnvF7K6sVDbzsOAmmmfLH7rq0R8GUSvKGXR5peU6gljSiCG3cyYMqcEyFmzubLVIBo3NL6vAyFupN4VxQMSt1AErEjFxQaDxH8ESqrnjw429s3kTldI/ZUBNKcgLsMXD3dXIh6VjtUGyqN35p0xdKKdpFZLSFpc4qKGo59CYmFgutqCzC93PiVlOvKTWmodY9gjLKRCqL8b5Bikvv+eizVz/H3VxYNbGU5Lh47YvfdvtfBcI85iiBIhFBTBJpRq6sUmoG0lQUKisf2HjPOe3zXjPz+68++lVLJpaVztq6BKSgjadP/ujDb739LVuGs7GYGA4GsUfZnJwCAogy5YVVJMGiVL967KuyJyFxWIZGji2liEhOLTcvPfhFfzP5p+22zd7Lrrs1s7ura0dA1DZVHL3UBCut1KF+d/SNm7e0xYT1AAAgAElEQVTfMKRRlXs5Z5ARkxPgPvRUgpkIYBpjOuNvmNxKIteiKXJRKkb0qpNeu6y3hPwnzlYCOR1YrnzWwad/5d5r5mhUCjnZNKo5HZUmCQoWZkLOiOhzOdcO3/Hdf7jhqJt+7+j/edqKn7XoCZG9buuYy9H3t/3gb277iy+s/yS5lRwGzS6OSIpIMcfk7JMaakdDqq5Lcv/ktScftfSYfV7ZixB3eVMiqOg0+k0e9qg3CMN1m6+74KoX/v0p737h2vNLLaNIlkxG4Eetei3U7q4yiuDoo5HzmDCzUDofn5UduymbxxwzVjQ/NtfZtInFzGsDSyiccrYMBM5pgiqFNpqClkE4x6YtLWRaZLrPkP6UpzUHHPHy419TIKJBW2gBGclow86NN25ep1FNmdQ4CNR/sqwDKEccl8lABgfmCYelkEouMpMv8u9aMHengbdFHWNoJINSj6K7Z84JPomoMGMz1/vnNnx1y7decOhzQBPuJcEIeBQ/gXtFKcndSFmDJqTP3n9lGibEvBjCP1eibKK5shQr+nGo86XEwsNiK4HIUhdZ4GU1gXaIOjB4rhj1lRabIZzsC5uu2lHvmCwmmIrAhcGZcNSSY190+C986u5LQ4ISJcoRkin1uGi9rbVhUOcOVSP3Yjk7s/3t6978/lvfcvzyU45dccxEWL6j3bJx+/3/Nn/brmaztrmtuGYvFCGXLbfi5DAlNUawIMbmmjOdcvjTf271z5VWGpGTRotgjYjZLboUUsYev+KI3/ibwV/GTIk7x2h/6KncJWp6SVm9GJWz0kxURfbcpkFwzmhTSCRghyrYZYLL7N0Y1MH9Y+0tAdmsCAxGbINTOnjFoa9Y+8oF1v8jMm1+67jf/erGa5e0xcgS9VlHjQrckd1LOIUYrDWnHNuCCmnw3buveemGs9f2Dz5u8sQVE4cuFbnH79u4/f5bd/7bIA0RUaCs0XrkmAvibNBWPWYy5yRtnwtybqv034/4g4i8zyu7CS9JhZnWYi0PiQneFiCFz+aZX//mr/zWzOvfdPyfRq8CB6d966p6yCFYtgzbt++BYhaqvz3OIhYXrvDJT35MiTGRCBSUM5nBs7qLUnACFQOqyRCZPaYE44SQGYtEyLYwx/CAqSUfOvmyCUw4EoUYQAYvrX/JvZeNdNa5gLTacgeF+J71Fy2Uv2WrV13+tCviZFk0ReutsSEipGBii8wK4a4dd/9/t/76jrmdJVjAmpTVUYCYS8cIo0DBieasWZJ7l2740LkHnmOVC8g7GQrQaev38YacXB0B7MzGl977EWFu1BYT0SzNZZuyFXb+kRe87ojXFbFPEUNvCg+LcEu8QGwtWdIrN3/y7bf+ZRjRUuJ2kTs+qQXirc2Wz97/mf9y1Cu7WcI7FwGSNx3/R1/ecNUgzXt0UjLkDBRGTKxkghBA7l6BPeQmI3KxGfWObd/66sZvgdqpohrpKFQychIqpho38bmcbWmLGgCZZ3dEC26ovQVjqj/520f/zlSYBgEG5o5FBDBFErMWOXKIv/Ok3/nS9s9ef/e6UApgoAWKFY0FtYVra25el81S7jfDBo6yKpVaz86ZXY1EBFDSFrq7A/fdLmPUde0THgfIVrSTtaDq/eaTf2vlxHKYPDLRlhDAzznw+ecfduEV3/+4FNEH3hQ+mftJWsnMWVUcgQhFgyaYtpVS28NocGe6987hhgnzuRRJB6MKU1a6I6SYLJXOyorQEghkIbFABrFlgBI1qF945AXPOfRM8WKfV3YfNnMVemXpSZeliQEPM6u5GLTIaL15941/v27mhvee9P6VUytLejSdCx86r3df93o49VR87nN79qiPHefkPzVwTE7i6U/fU9MfAxpPK0pekol4cnXnQIEyWk0IIQTnrDmZhcyEYH3nRYyUq9gvC/vA0z923EEnFAZkQQAn06CjGlfc9yHnfsyjXBQkrRnx7pvSxyur8R12/vQFJ614hpckEIUGBADZc1ikW0qka+SoleGQmXouoUVkYaZASbWQSNo5H5iYMKmRf33j1Xcddd/h1VqmhE463yU27WPD2M6kxQEy3LL1ptu33zKStshii6Arc9yESnroXXDYxScddLIxM4ywqDW/Qf8fd28eJ1dVrQ0/a+99zqmq7s5AQhIgJAwhCWMAA1zGyDwKCHpBBEEcrlfxCopwuahwlUEQldkRZB5CkBmZFRBBZBAQQSBhkDEJkKS7q+qcs/de7x9rZ5/qJt0avvjx8tavfk3TOXVqnz2s4VnPWkuRtvCGdVpPznv+nD7blyTBLVmmNErYeOCKeZcesOanMsoKFAkSQCWMaaPW/fTah//sxXOTNnJfJqQVUHIJRZpUSaXESTJKfM5ZzbTQbhSp5Zzq6EHPO+1eTTrp06lyRb3o74WuJSYx9bd9s+EJmgkE0l7nnLPGqLTn0+sc8rEJHyeghE9AgAGYoQkoYFOVguFQdvWMOm/qhfv17bJg8TsMYjgOBUbDRtJthYxUohLoRdTsqilylHNuHJXKKqM1J/DsvSeFFCaHo0GOI8Gzd5pTTsA2q9d2m/LxIyYfSUSW2VTKpKNyD8jBKdBx657w+3fue7f37b5m3lOv9RXNVJtUa+e8h2elFLPxIGYFnSrfZ9BFOi/biz1SbcvU9PRzuzvvpqxpC9vFia81264GpbyDVp7ZKUq1MmXaq9qTR088bdoPe3QX//9QDonrpuaNb+eZSxfp/rbmBjLNXCPTooJSnWf5H+b+du97d3nw9QfcisM3O4V11aeLseWWSJKq8waANP2/FIpJEowdi+nTYcyAZNp/6ctAKc5J5WS0JwCl8QyrtCLlKS8K73xD10lzG8UwURHP5fem/3CHNXavEQHGakJpkRiN9P7+exe+s9BRq8WsrVOZ4WW0zAiy/aOTdigSa7yx3mnWLnelt0ZSN5f1TrxJu5K9x35MdYESGJU4772FZmWVa6FocGKgCi4bnDWpPX/Ju39o3u5s4ZEIn0KagfzruTHE5AgouZj9xmxVQvvh/LK0UMpQDdmOY3YipTTIFksJAMt6KzLOe8Pak586YuqayVoNqvHQ50ubJKfCsf/zgkdf6J0L5dIylTwK1haWT5hx8rYrfZTZJ8pY7ZVRljw5Ik/wVHdp4nTpSpc4Y1nbtKULr+tpbhYUvV1G1RJakhXElJWgeuJbUIVtdnvFpKBYERN7OA+MSLqm1Nb5znonU2qIvHYqnmAQO0YKAyBXpUaiGOtMXOOEKacraKnAhQ75CsBnnhU7y3nb1vOESg3mhJTSSjFpq9h6yxYaILLsqxY4TAQliVCe2CvlUejCTB250Tmb/DgxiYNW8PyePAz5i4YG+2krTT95wzOSXOuRul26GinvLCl2pBKvySnnCkWaFZGngvO614XLDWVMCp60tUXNp620j3NtdK3PlGVer5F27MFGZURsmeF97spxI0efse5Za41f27Goin85ycMzQr0mA5V5lXPJBAciD1MoZu8SPLfguYMf+ffzH/9RwUWwObxn5pyL2EeF4Txs1SYXKJ0f2mD3TpxSz47sUjSj3GmnINblEBmDoviAhXiSVFFfpUKWLBHKEjvsACLkeRUbeB/GoYNluAxZi3NDqWY9TOdUZqmBr5Z2vFNWGHBaga1RBKK8bAPItGanWEGR16xL9vBa+5pSflw67rKPXnnA1IMTaGLDuiTySIwHPOHav1yWJ7n30FpBK18wa2LPGt6W7DQSSNDWjjTdu66+ewIDQqIMCDrTiTLDzYP1mtTOa+1ZK5QvkxblqTasHRTIIiFlyVnvxdI0rLLE/OzJnyVKK4uSHDsws2IND0Xk4blgR7bkIlGJsw7SZzqE1piWvo0jywxyhmrOOSJS1tihezZZ50hp9lyiff1Ls9vKkjf5MFWIWXnvt5y0Td00pFxDkqbeD41eOiipReUUoHeavLPVjGFyPovCmJpztkTrulfmtGwJDQ8moPAMQ7U0vfAjl0xZdTqVyjCstSlppJ4TrxSVyjqwcgkRLByhTJgUCq/QpbQF4FBzKLVlaA3PifVExiYOrJFYxwpQMKlPp4/f4OqdbhpZG6WhAKU0ILXJoIgoBoAzShjMxBm6P73ewedu/rN0RMptr1VKiaLCceFdYkCavdekTGKgfa5Lq6RgIxPDk2XltVKKiEh5Bec9E7FSnrwn5w2TpsQSHNddY8qaU6/e4upaMhIaDKeUiQ1dO6gbQT87pQH+5MQDv7nlCd0647Z3xoPJWk/EVnGiyGjjvefSkWFobYlBbDknYgsmNtoTEpsSgZ0zjgGypBIoRc4XVqHmYfKkPir94dRzd52yj4LWFDLCPyi4gT3BwWpWrLlB9YWL3z3xhe984d7Pvt18wwEFg4gypFZ5D2YGQSs2nr31Vpi5yTA5tEzawamSGcGF914bs/HGmDq1EqbSAfWD7alUltA6DCl0C/UA0Ghg//2RJMiyMNT3YbNbKhMkinUvL+mhbqvKtrIGSQfm8U+9vWXnySvSRifaKDKWfI5cQad5LfdlYtBFqkBzq8mzbtnt3p3G7j0iHcGwnhxxoryGB1AsXPLmnc07nLMZUg+f+9Kw0iAkyiZZDZzlpih9Cp9kjY3Gb26QLquX2JCi3aeKUG7QtUGte/SITGuHgigph3xeZ83fihcemv+QVUiROLYMy8Z75eGhoNqmMJQkLutFf1ZPBuQFsfJL30XGmcoyztq+bQADs5DeNmyGjqMoB1tQfucrd76Vv6WgEq3r2gw5ToMUevuVdkg4YQWgZM80dAk9pz2RBrOlMnFmj9F76Ix0NuT6ckYObU2qKPi6ly6radNWVoEskKkEHgQ1YtTYOTOum77OumDFmSkBW7AvGY6NV4kGZ6W2CXkDJs9w7K231jlnfYscUapg2uysd3VOMzKFLg3psuzLlCHUHOW7r7vntZvfulq26vLu809MO+iX0y8etfJozm07t7qnjh5KC4vCpdYQo4nSwnVxvcG1kh0nIKOUUkqSspyHY3LITKKkpBehwXUufKt0ZIwxeqdpu966ye3jxq6acGL9kHhgOHcoDJODU4a+tPp//tfUb3SN6datRCcpCAkTgftRttkrlapMl6Xz1ilPCZKUEqMUNDttC/LWwVvtxb2B9o7ytuMi0R7akEvM6LHjLpxx6X7r7l/rOBYfXLc85Y1WTFClanvfNu0eX+vt6//NG7P3ueeTz731XKJsP/eDQpfvkqyD8+SVUoYMeV1wPpyrwLDaaSQs1Xy809KzLcVBB6EswYw0rTrVfVAvabEt8l2696VpiAqsuio233zp47hw5fKjKwkzg1TCpuTCW5t5XfiS4JfvrT00kVJgZ11Z2lKXuqtMOS8XdbV11pX5EauNXePMbc7+9Wa3rN09tZ4RgBwkLfGICih4JLe/duv83re00wUVKSWGqUBJRL5lfW5dApsplxFY+bLcdeyuKRJp8ckDkZohNaVl77NRZtSu43dYjHbKdVBZGB760dpo99304lWMvI3SpAk5AygF5diKbehgoZA4Y50l8oq8Ir/0Fyf/y6X33jWRaxhSps/3j9Mr+2ECOESKTeqTq1++VDtn2VrvmqUdapzW2zTp2m7irkZ7AhOMD92Bh9AcjtgywKSMNmrjVWeOTce65pDzoJ1WRY0oKVU5d+Hf73nrnhpMyWTYW8ArlLadkZ688trXbXTbZ9f9fMPq1KNOppak3iCHc04zG6utNc4bJqOM0UmSpCZJk6RhFflCkesiY6D6OG/7suEy7V05yqScjMtGn7nVBRdvevnKSU9hlvtAptDbTd35jm0fmrXOTmN1l2/mlKuiYErQTgqrfUOlGZkWtZpoG+iy8M567+ABr8Aa0CBDbSpd6RtFqrxagpYCjTHdSSP76rpHXbH+nJVGj9PQ8FCKPIZpMgiDBBTKtXV19Rw7/Vvnb/CT1ddaw7vS+KyEZq1Gc61RoihzD58ao4122hdU5ihL52BJl6Yrych4R1Z7Th0pdqRdkmp0W+epVqiPTdrh4Y8+vutaH0soKztoXR+cZGefUGIVe/JdPvHEztietNbbor8semD3B7ad/eKNDTRy34QGgVIYzVpBeYmAE/SwTSxJkYFGizXgHAe2tEdZ4uCD0d0tDmjgPn6A1QXKsor0CtG+KOA9lMIhh2DMmMGhguUGw+AJ1ELhCayU8cYDGWUearneGSfE3nlLTCnS1KSowXb5rNEz3ax58Kp7X7/91Q/s+udD1jwiNanRLcDAocYacJbgyQBwZX7Rqxf35N0lOSstxUgXCt4jybJMKSZynKeOi9I1DO245l4dXJGKOcxDL1hJhVLOJX6HSXt22XpOLdWGgRvqudpGNT3dMP/2ssk1JAx4ZeGZwVobhtWsNZtC5cqRKVL5lIt3IO1JeVKpNwxX0yZXNjVJSkkLLWgeBiQj4IX+F297535WdYJSmjPCUOM0Op0yctK0kZOhEzARM8jxMGWvNVltkbNmgqN60rXduFmqlgx1f2bbpLZTRS0ln/lfP3tNib4M5EBGigWpmi9A5MaPXun7m5x7x273fnqjzzZGjiytT1yiDUG5xMJAGSbliRzY+rIsi6LMi7KtuCBVAoVnZl1DalRSJJZUtoob++UZX7tn3wc/O+XQLKu51KT+n3KiO5nkDnak75k2Zp3rtrzutK3P3GCVmVna1eipE0ziE221taW11jid+kR5VVOpIUMESY+CA0qigjKbqYTyRkFG15F1dfXsu84n79v6DydsfIod4Yw3rvBWWwWtoN2QxYPhOFRXY+8ZrLJ0/7UP/N1mD5z6kdM2nzyjntq0RK64v04qMWmZFIV1pdNWpS7JOEmUJg02vq831zbJkpqtcSuxTEpTxsqkPt1l0vY37nXvT2ddV++pZ2XaQjvpoDN8YB1+rUdKKiVTGFtXKRz3e6uUTbVqlUT54q8+fPDjCx/+3iYne1UwJQRPrIiJiHLKM8o0tIdXQygnAhb1v53VGnXUlfSAEWc9VauthoMOwgUXBFM91pD5AIOl1lYlJ6UT16hROPTQUFbeGBgTxP1ysyeh2Jd1JN02azTqvXpx3dUt8hqWL3Ccc9Gte0Ylo3rS0d217lW6J2xQ32Bafd2ZE2eObawO0glTAkCB2TivnbZasaEE0MYDSrXRfqN89W+LniLy2mAkRuScQ6uMa+RVobx1LkWtAWNS6u1qT+2ZtmZtDYBD1et/0kehhKCc8zv27JB0d9eZFGmvymQIQ38lMv3cetfO/+27v9lZ755mNUXGeWdgSjgNJsAzp5Q55dxKnC1IOhyHENQmwDaUdl6XGO3rTdPXUxtFTpMask4BsSpd+3ev31prFi3b7EZaNpAkDbbLhs7rVNusZ3uTN7jOOfXV0KO1ghuSUO0dJzrhhPuoXTNkbLZd16ybza3Ot5c9HpPUbOHZFC3b3UhvePeG7+Wnr5Q5DbKeNGkiJsMth7pOakm50cqbnbfy5idOP+muN+647rVfP73wycWtd97lRTXUpOUQEYGUUZqIFCltkXOuvEo4aevcpbx2Y8qG2Ub7rn/AbqN3qTd6FGv21pasKfGpU1g+4a69gUaJIqX6Z9b4/KfW/MwT8x+/7MXLHnvrkb+XL7+TL6hxpqCa1PJwda45hEYNWkKvCt6wJ1ZMhs0qZvz6o2fMWmWHXSbsPG3UumwUgRIo55w2GlBgFLZIk3QYn6kw7RQ1KLbWGpWUuhgxYqUvrvu1z0352qOLHr3x73MefuO+l/pfWIzFMLrONc+emT0zM/sQ5dKjutJ+tNm6bl8vqDCNZNNRM7ftnnXg2p+euPI6htg0GbVuJL6OxOtKQtCJj/7PmU+fUbJT5D1rBecVkRVG1r9WoDlG3Wct1eYE2iltyVBiTe5BRYFukxLyj6w26xebXzGpeyykVB98wiYy4ywKM4SEKl35/b9895sbHF9TNZDzrOAgfaHbbcybhy23RLMJa/HBvsROx1JOvVJIU7Tb+OY3cdJJ0DrULMP75bNLadsS8GybS/pHNnpyOIInvXy3005ZtFmx4pRADEuKtMo8uwQJ2IEIpAD2HiitShNQ+Hb2TFIDtURBpVVlolLvPXtvjGGALYObUI2E/GJnE0eZJtfytRENXppPOFAVMg2h0Z0riRNlAJS9/TZVUJkv2eghpq9wpXaJtz7rNgmMBzw7DRC0BTQ5oT+2fDujjHut646FArmixQFkYcmlKmmTTVn7ptXdNVU6lS6bQGStNcb0cwulJk0Eb0i1i2aa1petWX3erTKljIUyOdiwV6WnZCiNxY6dcsorRcH48eyLvKR0iA4nBbVUUyem5mqLeVGXHZHWjEWZUOq4VPAljCGtAA9LVpMmJgdI1WZfopzfnv9S30sPvfX7fte3pFjSV/Yuzpf0277C5cxcz+pjkjFjs5XHdU1Yu3vq+j0brt49uZbUDPu2pjprh7yAylgrpZzH8lahtSiNTUrFXvkMGrCAYq8K5H3F4pd7573Q/8KC1sJ2O19cLHrbvf12a2HLN/u5n8HdumdMMnZsOrbLdI8cMXKbUdusO3rd1NQNGQ9meOOTqMstOc2aGQynlR4+XZnFnWBFIMdOQ0PBoSB4stqCWr54cckLTy9+4tl3nmn5/kV20ZKyr9/2FT6Hh4GpJY2RyahVGquuMXKN9UauP717+uj6Sg4+JQPrc+MypACsZ63I+cKo9AOW7BklizjPHBRDJ4klRwxLnj26VVq4ot+hntYbzq4yctWz/+3yzUdvUs8aFs5Aw6NQRYoUPOTENm1r8zvW+9Zap+y91j6NJPOkaWD6yWGH4aqrAu0kTZHnH2QQVXgvUj/AOUyahIcfxpgxAVuPvoXY78tNjvEerKFKCPYHECwvr7vGkHY2tKztS4BjdsypJ+jQCdVRaQBw4kkS9lnBUyheizZaNa4B5MkSK2LVT7YBJkrgvNNWI12Wm8LDI+2emXxOusYMUEE+ZQVvrTJDFR1bqipYwTM8NU2rgTrDAhoeVpcelPkEChbWVPPGoRdDuJEjaOeZQaw4kWZCPNzBL307oRSs4H1LN+vUPUxomAogRbssa0kC+JLh4dNcU22IXNzSqsQw2KJkT6lPLHlFQ3YTIjiwZvLkfJtRMwZsmQz5AiplZuttohKQLUAJK0cwkuPJHoC0M81dO1M1y9axFXuEiTUpQ6bwHoqJyEArqJAK5BnakLPQhgEquXSFqmUa/D4KPDS5WUcdwlJUrBVZLgylwkP07B05L63AQQmMh3Pes2cVCrAzg1ObOsMKRB6hLiYA9p68Yu3Ia9aOAWJNNEwb3RJlgsR5q5UB4FBqJDlydr6m6iAUbDWxhmGwt5JKIcmT0rzJgUhBOy4STghkyUFRghQe7J1jzQkSBkpbJmxIDzqdHxjO3irzLpUmSeI1iMl5T46MU3Vr+rjQqtaVkOGiF/75vtcO+t1uV8y/rL+vz0A7OBDEVHdDs/dAKmmr45/874V4B1YrDyaPpcUdWy386EcYNy4Yyx+gWI/WehTr9TqOPx5jxlTR3djY730EUT0TlPYaWNo9vCw8sJQh/0+/Pdml8Qj2cE7cRu+8Z+tKeK+JEqVgYNmz80yskCxtpmINQ1uWnBQL77zPuMaAc07BECko1C2z1Q6Ac8om3pc0kOcey9T/AzWpa86XnjwhzRWDC22GfN6SXSh/z3DasfENqvPSTKWcc1MmGRIoOGsNG6n46z07B+tgLVvLpeWyhPdeESvlEhDgXYlhcFhmTtoZSJXkS6I6dZeudN4NNU6bArCZMuw9s0q8yshwbcgIqpQ+t44TpAkZr0vjlFJDrq9jeHauZGhTM8aVzpMheFDq4R1yQwby/06TiHWG916BQrNQcKZrIJBSiU4zU89MPdMNRSmgM51mlKU+VV4zE0MRadKG2EMbqcKJhJJaphl2+QNKHq7hG9JJj4zQJUBIvC09HCuQVolKMk5TTg0S70GsjUpSkxmTGGUSTlKfWlMKLMrkiUhMbkApmJxLDQ1C6QplyXq0h6ZeJC7J2QWxzl5zAiBDVtN1T97Dp2Q0J/BErJRmDaWhDYxRJlFJopKUEkMmowa0Zq0SlRlOnJd6mEonNgFKskhNgoSg2lR0isMPEI1ZTtRC1T+x1t5nbPiTWk8jYw1SbW5nyGgIL7u07Q1vXu+txa/usfrHLtzmyixNwXDea63YejLeW3Pp1fjiYQxHBVulTLQQpTD6igXfhylgIN8lsEySYPvtccMNqK2gbNz4UJ2QjiQ9xSbg0jVQStNEZB8YUDQtTvMgv8H7AT6HUqFr66Bv77ynXC9/iWOQgPagrLHOGYtLo1T4VLxV1IuxWbmMNs8DYVR4pdH8/2dcn3hN5yzFT3mPJ5/EOeeEAElPD77znQGVRP/58m2y9HE54rfEX+LjxBmOPtx7xyzRmk5f573rPvxuiZyCOMnDRHcGzaREjGKt7DgS56q2lLFeU1lW5OOh4k/ywQhUdq5vXP33LlBn1KrzKTo3Yfzf9y6WtOKJka04aUI7Zsa3voXXXw+D//SnsfXWyDIwVxVkO+ct/iLbu/Nug05Z58WyK4bHYDvPzqAH/CBt9uXmkPjmFfOu2fvRHV56fV6OAihrZY1pyCwjZ5TJXVOXt75zy9UvXOW57QHS6M9BRjk2ivwhn3af/RyzBgKHLCxn3HYrMD01CilJR5IFi2ssP5MEo0bhootWJFcnHssoBOVIyD9ZG3ZDlP6ypUSryaGSzzoXxhllRFQJRCiKKkOjVgsMzs59KRMr+0/OknxLPH7eh9mWxLH+/moA8u6MiMSjLmlckt6FjtLHAfFbet6kxr1z4QKx4GMe8jLfxgRPTkZbFJWgtxbO4fjjcemluOoq3HgjPvlJjBoVqKshLKHDB5f5jmJLMo1jxbooUOKMiTSR+YmF4ST6It8lHdvlAtEQURnHJYic2uH3lchcrcMSDBJPnWa0LKUMMs+rpyaq0jLkelkpuVXcMHG3D+Mri7a39KEAACAASURBVKsqO1MGJjMQz1F8QBGmUTrLBo6X6aUtPfK8kvtKhctEc8RQVlSZUafGzR9F7TXX4LTTcNVVuOwyjBmD7bZDlg1enU5HXD4OIE3DQ8UTERPLZXNGtS1dGToNpmVuoXgoYgZMp5b90Eh2Urre9A/OfWyPJ7Z/8s1HmkwwrJANzSd1eap7WjVlayc89aW/9b5GJRSoKytRWO88kyqgz/i+2nhGITXh454WUVKWKz49VZYq7vtog8huyDJceSW6uoKluaJYlZ0uY+fZEJBHfIW4sQb1XI2jjdu9UxtJBq9kBsg/yd87rbYIf0U1E0WM7GlgwNGSf+rqCgJCJKmoHxlhzNiSLS5zJUIw2lmtVjWAqBI6zfZoOQ6RnF+dEzljUeuIVL39dtxxB4gwfjzuuAPbbBMeM84elhYZHerm0eqUp5YjHU3+qMAGtQDD0tSHKHONGdDsV+YqrqCo6vgUw1seUUB0CjVRCdGKF0USB9ZuI8tCuQ75rPdotcKCMqPdrpa4U4VE1TtkxH7pYWy3B6h/2QBiror0FIdMJqHdDksQv0LGLCvYaRzIZfKXeMzFZ+r8eFQeooeazcBrIMLJJ+O004J6iGntcn1RhImSUcVnia6kLEpnYnl0MjrbMsc7vPctm0e2qJxN7wfIqw+NZFfwzS4kQN8bvX9655E6KFce3g3NqjQZuzxt9/Ytbvv0hCe+lruWBeATa0xiFCnOSmSjMPtGNX2NsEJx1uKxWeFivfN/ZfFEmacpvv99zJqFESNWZIWyJBlgz8pukN87VZfsJ9mjIiLj7ollkGXLimEihzmanFF2GwPp0SinLhplsetsnNVoBceDKj+TJBjs8bQI6TP+RVz+KDfFnoqSOpZ+ixenaThpUZ5Gq2e4OFCrmjeZpbIM8r3dxoknQimsvTZuvRWbbop2O/yTzF4nWDGMxhX9J1pTDNtO/ybaj+12JQRlPuN5tnawdyVz1SmYRITJZcPsK6WCgVyWlcAVG1wmWVYnOi7yx1qtYnZFQ7JeDw9FFHA5ZuR5MEWFsxA34TA2u0xprRbmX7aQuCYyY3JO463yHLUaWq0qra9zzFG7yPyUZVBLncI0hrJkokQ/xT7JaYrzz8ff/oaeHpx9No48MqjYKFjjK03DIK0Nyyc4jIxfdGHcHqKrREV1AjLDQzERlJMtITfvxBjMh0WyF9bXTAOJzXVONWLmDGaYYABzm7jWrzHGqUW0+K5X7rpy5SsPnf4Zp8hAFW1KU6IkZ2SrjTdzfu323Eu/8UZAFeLSrlhOZGfT7bhmQstRCt/5Dr7yleqgrsAv7dymeV7tVxGjAouLEI84b18fGo0BokrEUAQKyxJliUYjSKg8R70erm80wqkTg9o59Paip6eSZdE26e9HrRZmI2LinQa77FdJ3cqycJ4jOFsUlV4RkRRd+Kh7ZLZlx/f3B8c5+u8RHHjvq14Pw5Y5kWmUU9Rs4pe/hFIYOxZjxgSB0myG2RClGNdaFvS9iiRN0d8fBLGYn50zIKPq76869wp2LBdERSuPGWVlUQwwZpMkgB7x92Eslaj4kwTODdBV0d2JyxrRbcGORd93CtN2O+wHsbhl5GK/y21looYBiLSuJkS+Ik3RaoUHiWaHbAkR7lmGsgzfK4Z8tMGjOpQpFdEfxWuUy3Ew4iRFVCR6tHvthY9/HESYODHcUCyAiA1GxSAWdK0WRLAkJIoKkXnoBPflUxGnEvdCLImh9F+SoCjCw7ZaqNcHHIcPk2TPkLRdk5D0ULKSHuNgCGXBKhsiDU+pWon2BJe9Wy+pL+GsPPmvx8wcu9X6o6eh5LTmS2hls9QwFE1dl6+5BgcfjHnzYC26usKpiz7mCic4xtvKsTzlFBxzTNi+Ip5WlHCPu7/Vws0345pr0GoNAByVwvHHY+bMIO6NwYIF+PKXKzHhPWo1tNvYbjt89avBCrv4Ytx9NxYvDnqiVsO3v40ZM4Ig/t738NRT4W7OYeJEnHoqRo6sbugcnnkGJ51UWStJgpNOwvrrh61/1FFYsABlGWTTyivjvPNC3YUYaXzzTdx5J669FvPmYdEiLFqEMWMwcSLGjcO++2KffTByZNAl7TZ+/nPce2+FeMZaDkOtr7Wo1fDLX6KrC3Pm4Ne/Dsoj6oy+vtB/fNGiUNtH5H5XF849FyuthDzHL36Be+5ZtmSXSRs5EiNGYN11sdNOmDQpaFnxnJ56Cj/4QXCAZCb32QeHHBIWVKRnrQZm9Pfjjjtw00149ln8/e9YsgQjRmDcOKy/PmbNwoEHoqsLRRFU9TDoh3xRnuO738Vzz4V06CiPRLr19GDSJEyciD33xJgx6OkJn41CSn6p19Fs4gc/wBNPVGavUhg/HmefjVrtH8RORThmWaUzjEG7jYcfxnXX4fHHMXcumk0ohe5uTJmCGTPw+c9j2rRqNeP9o/4oChx3HObNq8IhtRpWXhlnnTUggCnjzHNceSVuv72a/ywL+zPPQ1WSPMeDD+LnP0d/f9hLxuCgg7DPPuE+J52EZ5+tdGGSoNkM5UOyDKNGYdNNsdVWmDQJjUYV9RWxft55YbsOJQeiatcaq62G008PRtKHz2Zn7ZhNDeWSsqQy1SiI0mzoHLyMdG7b/QmZ3Lsacclv9i7536e/fvms2anuLuAzBjQ8lyWnmTKbbYbbb8d+++Hpp4NY75S/KwqKicC6vGo1GINzz8VBBwX3830x1v+BVyviu17HvHm44YagPyIqqhS22AIbbxyMRwB/+hNuuikIUJGzclZXXjmI9XYbDz2Em24KBosIwSOOCHfWGo8+ijvuCKaxnIrVVsORRwZjXMazaBFuvBF5Hg5hkuDYYytz/q678Pe/h39lRr2On/60GlKe48YbcfzxeP559PSgtzfc4Y038NZbcA533YWTT8bpp2OffZAkqNXw3HP4zW+Q5+HoylqIiB9K0tXrYajPPINf/7rKKYuDFHEj8xbjDd7jpz8N+uP++3HjjcuuDMEcDAgRuPU6jjsORx0VXAqt8e67uOGGYKXKOm64YYXqKoVaDb29uP56nHoqnnkGjUYQQ11dWLAACxbgb3/DTTfhuONwwgn4+tdDvHqo3SVzK3r63nvxxz9WOyfK5Yj8ao1jjsEuu+CHP8TqqwdPTkYeDe3eXpx5JtrtMEVyQaOBz30Om21WxcCHOS9itIrx29+PQw8NnRU6A6qLF+Pll/Hb3+Lss3HggTjnnBArimZKNMZffhkXXojFiytzpyzR3Y2vfQ1rrFF5SxH1fvJJXHNNNS3W4uijURTVlVpj/nzMnl2NRylsvXXl+955Jx55JCxZxC3FlBEHVIyVAw7ACSdg8uQKB7YW992H66+vzIVl+uJxQ66zDs46KxhVEZD58HBjgLT0HqqnVlcZnDeAG2b4LdfurndTMy+TtA5fJkTK3zX3jkteuNyhP3MK5C1B5SZTcOS8x6RJuPtuHHgg6vUgksy/QPHFE97Tg3HjcMstOOSQAawGrNAGfnJWBcuWt+wA2WHyfvDBagM1m3jooQDC5HnwHOUjzWaQ8iIr8zyY23JoY1Qtho/E6u/qQp7j1FPx7LNV+1mxNGNkTP4u10fxIbtWJK842qJ4Wi3cdRcOOQTPPw9jglgXGS2mpTAvX3kFBx2EBx4IQLkgnnKHCKeKOF7m21q0WmHexPSLYZgYyBW6hZh4ETgSwEeAr/j7e3kyxqC/Hz09aDZRFHjnHRx7LC65pGI7xDibAF8i6fr7AzDiHJpNnHoqDj8czzwzINIoUQrZS60Wmk0cfzw+9rGKATWUJI3gWwwAyMhl8G4p1V6whVYLd9+NrbbCCy8EuEwUuTyyc5gzB729YVSyvrIlrrgihHnFBxp+PHGqd9sNt95aRUoHPYgM8uqrceihAUMX8RrNiHYbs2ejt7eK1cs1fX246qoBeeAx9huDTLIzhZoscjPSIpvNSo5HRSVeuEyIDF4sawlrRf3XbIZ7Xn45dtkFf/tbFUiv1YJ72m4PuT87OY6ySyO77MMWQfWMmvKereWGbiRGOTdczoombZ1jo4y3pVfkmQCX8AkPHzev9xXWDA9CgZrKbalYybr29OCCC3DuuRg/PuyYTkC8M6Af/x4pd5078r3tnDqvl1jQxz6Ghx/GdtsFmRg3IlZ0Y7zOEXZ6DJFpF2EK0QS/+121iTtdv+h0d9J74j07iS7U0fe9vx9KodnE4YeH3yWYIUBhDC4JFhxv1TlOcVTF0Jbd/PWvB7kpB3LaNPzXf+HoozFzZogZxEGedFLAYTv5ZyJT4gN2MlAj4inmnhjmMpJOXFji0nKZSPOImEe+YExQ6GTCEaG7u4KPe3srSrVSOOWUAbzJyKyIXJGuruqCSy7BGWcMpkVHvpPgDzJ7RYHbb8dxx4Xpip5ojA12brwYhOgkLwqGMIjb19eHRYuw//5BZQpxKJr/F1xQhU+Ffio3vPrqYMULij188F/udtFF+NOfKlJQlmG//fCtb+Gzn63iEPKvt9+ORx4ZUMA12uBXXDEAxIiH7tJLq/F0QqYxrtBpkHXyWMTyi9hOBKwGkS/jreK+6oTyZajz5uGQQ9DXVy10Z6pHRPDl1BiDeh1EYf8LlS6Skj98aAxQZV5r0jxcvb/hXta3v/DI4b/b5g+5KTNkYGhDKKGSCub+7Gex4474wQ9w4YUBlZbjITpWZIpoZgwkqse1H5R9EH8Kl2DaNJx4IvbfP7jPH9RL0HMx9x57DFttBWOwcCGeeSbIBTGE3x8kFWcjxvGefBKnnoqTTgoiVQ68eOv/8FaRQ2YM7r0Xzz0XjCNRNnPmYK21UK/DWuy/P+64IzgTSuHJJwPuPHIkpkwJNq8Ynm+8ETyPCJQJ3CQPnucYNSoA/dF2llBevY4jj8RHPlI9SExFkYfq7g4olkyj7BYR/ddfj2nToBSWLMHdd+Pb30Zvb5irssSLL+L55zFjRqXhIoIXna00RbOJRYvw7W8PoHVqjVVWwSGHYLXVMHcurrsOr7wS1KdIqDPPxOc+h3XWqXJ8/plcKu/R3Y2DDkKW4a238NhjeOWVyrsqCsydi/POw9FHh7uJhn70UTz7LFqtIIBE9IssW7gQd92FffYZkFM2FEAkd7vmmpD9IDbKgQfivPPCfH7ykzjgAPT3V/SqW27BlltWuITc/7e/xbx5lV6P2Lf3ePVVPPggdthhBTdpiGZHDHenaUAs33oLDz+MV1+tJH6a4q9/xYUX4sgjwxyKDx17NY8YgZNPxuTJlUMpgt4YLFmCsWMDzPChlOy0VLQTKFVJ+HX5X7nPn3jp0dPHnXLMev9Tsgc5w8bqwudZloUoM4BVVsEZZ+CQQ/DjH+O227B4cTjVonI7mUadyElkAXf255OVk0O+1lr48pfxmc+gpwfO/YOg1r/6NXUqnnwyDOyee7DttgDw1FNYuDCI4ylTQiTt/eH79TparSAWxX485xzsuCN23DGY4dFWHf5QRfNKYPdmE11daLcrfOnRRzFtWnBdjzoKb74JpYKYlobmY8bg5JNxwgkh+CmP/PnPY86cao0aDdx/P1ZfvTLGe3sxYkRAGOSnrHtRYIstsOeewfGXQyViRYwAIeGILyJhAHHYtcbKK2ONNar5f/xxXHJJkDJy/fz5A0jucV9JxFVejQbOOANvv13tvSTBJpvghhvQaGDECJQljjkGhx2Ge+4JHxS86KSTcNFFg0mWw+PdYpv/+MdIEiQJ3noL3/8+fvYztFohwlmWuOwyHHlkODiifi67rDoCSmGzzfDII0H0OIcLLsBee1VOwFAaRZRBXx9ee63yokT/vf02VlkFRNhxR+y9N55+OgSNu7qw6qoVqySaz1ddVW1jGc+jjwb5mOe4+GJ89KMVhLKiXlHjym27u3HccRgxIqBkRx6J2bODbSen49JL8ZWvhHnWOggcMb+WLMGsWVhvvaDq5NFiEm/0JDrTej88NruISwKATNXet81esu82tbOf/uF2Y2dtOX4bQLnSJmkm1dxkd4pLlabYdFNceikefxxXXIFrrsEbbwx2YAcB4jGPIOatCABnDLbaCl/8InbfPZSGFzPqA+zlpBRmzcJTT4UNfe+94e933hn+kqaYNQvPPTdcXYRhXhJd7DTehRp4xBF45JEAvsdtOgj8GTSlMdlEQIxJkwKU3GgEq/Cww3DiiTjkEGy8MbbbDr/9LYgqKybyYSKNT8KP0Q+IokTAU5H+zmHEiApZlrBtJN2322GKxDGXVY42Znd3kFllGcIAkdkZqYFyCF97Dd3d6O2tCKlSyyjivNHiE+tMxmYtbrklcLcjfHTKKZgwoZr8CRNw0knYaqtAbBVl9vjjaLXQaCw380qoNXmO8eNxyim46SbMnRv0nFJ44QUsXIiJE4M2KkvMmROoO+KT/fCH2HPPKiLyu9/hlVcwZco/9vmcQ3c3ZszAiy9WUPh992HqVOy6K3bYAdtui/PPDwFJYa1Ean8cTFHgN7+BtUEVCQvrYx8L8DQR7rwTCxdi7NgVGVcTGRLTRIVMNXZsdRbOOgs33YR2O+ztJMFTT+Htt7HyypV8iOETMQSFKRSh/Liy4luLSvgQojFEUm4QQE1LfJreR0U4TWaJatZ6i+8+ccJ1O96UUuqkXhZXzG5BACN1evPNMXMmTjgBDz2E22/HH/6AJ56o8DUBzWMIRYw7Wb+xY7Hppth7b+y+O8aNG0AO66yG8YG8tMZmm2HECCxZElCL+fMxZgzuuaeqfLnDDvjlL98/QSjm4MR6Mkph3jx85Su45JLKj8E/4u/HrrAye1OmYOZMPPJI4L2JgnzlFXzve0hTdHVhyhQcfDD23RfjxwcEvLNGjQhiwVgajSCjI7NNpH9cpphJFMmagm/84Ae4+OIqYCDxQAHiv/ENbL99OJONRmAxRl7KvHkhjeCVV3D11XjggWD8yv6ZMgVrrz0A7xZjP6LbIut7ezF3LlqtsPGSBKuvji23DHZijMZvuim22Qa//W2w/gA8/TTmz8caa1RuJdE/COo4h56eIBPFq0hT7LUXfvrTKuruPZ57DquuGmbpjjswf35YcSL8279hs82wySb44x9RFCGafe21OProfxDRjYjKrFm4+eawi2Qmvcdtt+HWW0GE1VbDzjvjgAOwww7BhxD7TMI2WuOaazB/fhD9squ32QZTpuD558NfFizAzTfjM59Z8RKrM/OAGX19gQ4nVvkBB+CCC4IzJwv06qtYZZWgvGOZGmYsWYKjjgrSKcY5xD1SCr/4BVZbrYpwfDhx9k6b/X2hMcRcd4ZTPLDg92c9feY3Nzgm1Wnui0yn0Z2JaSMxhx7A6NHYbTfsumvA5v76V7z2Gl56CfPnY/HiEISp1zFyJCZNwvTpmD4dkyYFl1NoCQKfSZwtsrI+wNdKK2H6dDz8MIzBokV47DHMmBFsMWn9seGGIbTwfvqv2qogxsiRgW0mdu5VV+HjHw+SXcTu8L6L7GMZidbo6sKZZ2K//bBwYVUgM+IARYGnnsLXv46TT8axx+LwwzFyZMW6i7FNY4IPgaVpOALj9vcHuy/yZ+T+EWSXyx57bBmFt0QBfO5zVaxM9EfEaqzFIYcE40tCr9GWF2P22GNDSpeMsDNtvSiq5OS+Prz7bqWxyhJTpwZkT2ZSVpAIq68+IBSUJHjzzYA4da7pMHi3xMCLAiNHVh5PNLfludIU8+Zhxx3DrS6/PJicYh7tvDMA7L03Hnigisdeeim++c1/sK/Erspz/Od/4qGHcM01IUgbs4LlTL38Mi64AJddhpkzcd552GCDSsPJ9QINSeg1z7HzziDCvvvi9NMr7PRXv8JnPztAMv5/F+uxTpHsuu7ukJsqSW1EmDAhZG6LnKnXMXcuPvKRSi11hgR+97vg4MbgvKD5zmHBAqy8cnBcPpQ4OzNDLcXZ3+/LkVNs2tpmpM985gc7jN1+0wmbZSqNOZmRgo2O6gKxWJ0s1RprYI01qjBdjAVF7mrMtO6MhkdeTefFHxQgI6pljz0CAKoUbr890NRkL267bQCO3h9XR06RCMSNNkKS4J57wh+ZceSROO20sKfFZx8KjRmUwidzvvXWuPlmHHlkgBdiTpkshAjT+fNx9NH485/xy18Gmds51a1WhQXJe/Ro9PZi8uRqgSKeEOHyzrpU0dqNyy3ms0QXoy0volBUhbjkQGU/RqZNmuLkk/GpT4V/7SwcFr9C6I8CdjcaAZISvbjqqliyBF1dQSHFlug9PWg0qgpfsXbbIBhqmE0oyQSddTStDVB+1BnOYdGiIGveegu3316RGuv1oMV32w0nnFCRo555Bg8+iK22GnJrRchYeDU/+hGmT8epp4a9KsPorK3YbOK++7DjjrjhBmy6abWd5s2rNEqeo9HAXnsBwJ574vvfD2e8LPHnP+Ppp7HRRivSYI9aX4SGRIasDShilgX8J0mqvJC33qoqzMgJjRo0VgSSaZedKfH5zoIQ1cH5EOHsHYiK5kCUWW7it1Em97bmDVnf7F987F+OaZat0ttYdEkQ9gi8xsKkWFrqJBqAgvwKD0l+xnhgDIN01s+KtRUj7/sDxNlFPG2/fRCdxuD3vw8JkzK87bdHnod99j749YIaC/TR04NzzsHo0RW394038N//HXzJWDRqKDRAMjybzSAlxRKcORN33omLLsIBB2CllQZU++rMFL/mGlx9dVVINj5LZxa46OYlS4K9HDWEZHh2pmtFUSJZ8rIZBMMRIppIItkDrVZILhdtFIucoIMaK0P91rfw6KP4whcC+i9/j3UCRKrG+idKYcKEoG/kAiK88Qa6u8M1URy02yEjIYJRwpV+Lxl8+H0iyiDGA0WlRRtFtn38+5w5gYAkt504EVOmgAhTp2LNNSuvIk1x8cXDlY6Jqf+yHOPG4dhj8eSTOOoobLJJVWih02kjCunTMVvYGFx+ecWaNQZTp2LyZKQpNtmkQjBE01955Yos3C2ebqxuJGsX/fV6vSoeKbEi0dxZVi1QXKaIuYloajSCNqrVgqMmU9EZAgSgLLGGAjlvtQIrDZTem2GNvRXx7nyBWfqeoPrv4LdnT0orC8d5ozYCpInofST0eOtrxnjvC2Yy5o/zH/jpn89hYi5dLEAKsIVVDNCAtL1OBvQy+2J3FvMbFE6Mv7z3bv9q23yZolmea5NNwuYQEEMCTaKfPvrRqp7UP1MA9r1fIXJEnMe118Z3vxuMU9mCL79cGb+dVbre+0Wx7pLsdYHXJaa3zz644ALMnYvbbsORR2LDDYOJF7NMncOvflWFnjq7lwyCI8Tcjuk8nUg0MKAuY72OCy/E3Ll48UXMnYsXXsDLL+O55/DGG5g3D7vsUp1MKYMV9XeS4KtfxQEHVDV25KEuughPPRVEZISA4uRE6ltMqlxllYBlxQpuCxYEHdz5dcx4/fWKjCjbb/LkqjiSPOB7SeWdezhGGsQFkbG9/XZVmVJ+il4pClx9dSUuiTBzJubNw7x5ePFFbLFFZeVYi+uvD55T9HgiJD0ojipaihlrrIETTsAf/4jHHsOZZ2L//UM0uLNi6NNP4+GHA3bnHC6/vDJ+rcWWW+LZZ8N4ttqqWllmXHFFFXIX1RWzN6L1E63mzg4BnZd1Tr6EJcREEHsuQueyFgsXVia5gEU9PYN7J8RI0h134KWXMHcunn8eL7+M117Ds8/iuecwf36lMgdUF0hJOWYQeWUBMGuCgi15CBSbzIox89UA+Ly6vRrCglA+scSk0OAuy045YmKv/D/ZCbcSN8qX8A2kDMvwqU1OefukbV6eteUaW/vcU0ZKEUDGGUsWIIMPzq5eQbZ5xDQ6Fz72XN1iC9x7L/I8VGKRnbrKKlhllQHO4CClNUiBDapPGxFAYZH29yNJcMQRobyJOJLRYu0sVbrMkUfUXsbz9NN47TVYi9deAzNmzsSWW2K77bD11jjpJMyejf/4jxAmEVj81VcruTxImi+T2jRoAO8dmLXo7sb48QOqYHbmQ8Wj22hUNYgkA/OQQ7DuuvjJT3DMMRV96MUX8fnP44YbMGtWkGKiESPGGsWH2G7WYuJEPPdclZEwdy4WLMCECZUCE+rRo48OqCDY3Y1GoxLlQ5kmg4wSWUEgjKrVwiOPBGUp6jBJsPbaaLfx9NN46KEBta5mz8aNN4YwtYBaYtFbi8WLcf31OPDA4IR1FlzsLPj12mv461/R14feXsyfj95e/O//Yto0rL02vvAFLFyI/fbDH/9Y6c6yxFNPYeZMGIP778dLLwWilKB2P/kJLroo6IlYTV7iN/Pn47bbsOeeQd1KnLnTPHrxRWy+eTCDpDyZUPs7Z0/K9Mu+FRMES8ugSrmYuKXbbTz4YHBJY3208eOrdKTOhUsSTJiA1VarsoKBKplu0KEOApMJ1tuUs1QZpcgRw5DRWg3xJs8r5O09+/Bi5/3St3Pkl/lu69Jq6zWsco0kkyqP70PsppRpoIlCQefknLP8rjv2b994t3xXJSRqpnAlExtlPuxi/b2W+yBxxowdd6zgi4gLb7opxoypLKxB5arfe5POv8vOE0hRMC4hIFqLM8/E5MlVapJ4LY3GAHeuMxE/AiZioopRdsAB+NSncPDBOPJIHHNMyNsUZ6hex7//O7bZJvCUY833ZeY6Djq3y2yOMeh/sbRUd2fyoYAzcjLFHRElWpbo6wvIshDsxIir1fDlL2OnnUIVWfns4sU47DDMnx/Eukjw6HnEfCUROvU69tkndEKPFRd+9KMBrJ5aDRdeiLfeGuA17rJLlbQ5aE2jaBhU5djaUPtMtIj3eP113HRTVUdX8KiPfAS1Gi6+uEIGBCSRAGwMXAnxUcoZFgWuumoZ6jNm+Uls+brrsPvu+Mxn8MUv4r//G2edhQceCGgMERoNHHtsSJGVeHW9HmKVUsBHQimxSKSgZLJ8AtpICEfKW153XSV5p08PTx1dvcsvDyseS/LeeOOA3mdEVVWyHwO6EgAAGKRJREFUWIcgOv15jt7eymV59lncd1/YJ7JDRo7EllvCOfT1DahK7X0A1iI4I2BvdHY76+ZXKplZMznv2JEi1qysVwUD8DRkSGuF2ewUKS9Vf8shMN3MaeWN5byVtkf5kWRQop34jJZ3PMyeUEPqyNYoaepyRK4fW/inc5866+iNv1l3XdCcUlKSlR646kMu3AfVIIuJ+/FEbb11VTwgFi0RSKEzz3YQeX9Qrfn32rkxtNCJXK+1Fk4+GYceGjx3MfeazWWUZ+hkZ8qpEwu3VsNHPoIbbgjivijw+9/jD3/AFlugqwutFt55B6+8UmVCEWHGjIrvOJRb0ynmBvU9GHSZnKInnwxlDmNfnsiq8h7rrotx44JcEBMsTkKkXZ1wAn7/+xBQlfkXjsfRR1c+SnT/Y+WfqO0OOww//CG6uwNK22zizDPRbOIzn8GkSZg/H5ddhnPOqdwj8TM++ckBedGdNvJQgJs80R/+gCzDu+/i6adx/vlYsqRqeagUdt0V9TqWLAnmOVDxUuJLlFD0AsXkv/NOvPwyJk0aoHrjgZblnjUrlJWWzbB4MX70I6y3Xkga6OnBn/8cbiiGeVEE5uiiRbjnnsqMELijsxhR53jkMefMwWmnYcIEFAU23DAwoWMljHvvxX/+J770pZDle955eOSRqjKX1hg/HjNnhrXubOGEpeWRH3gAxuDdd/HnP+PSS/Huu5UyJsJuuwV53dVVebRilWcZ/vQnvP32gKC9SHYp1LP55lWUO0h2z64r7cq5zcwZZ4nXUOTYDiUxaQVVq+os+kKDIqTLlFCGPXmCHpGNym27broTZETLrWZKLqT7bQAZDZa41khbP/O5Mz46btbmE7fKOHPKG9bs2UlBmf8n0JhI5+jMWU9TrL8+xo/HW28NKIokIHs0EgcF2WJcaJALH78rkoLkeMvXCQfgU5/CXXfhkkuCXRkPnkg9uXNnDEPOXnd3qJ8F4JOfxM03V2zC3l7stRf22w9bbYV2G1dcgeefr0KmWuPQQwdwEzvPRieSHr96kIgZ1AtJdNKppwasP8aiRc14j9Gj8dOfYr/9Qkgg0mBEVIlL3m5j882x6664/fZQA1YUz5ln4vDDMXp0KHLQWWFxUG36KVNwxBE4++wwTqkc+fOf47LLQvasxDMiRp8k2G477LXXAB3f6W912s6dCyqLuM8+VZGfTtYdEPJ7sww33ID584NYF6u8XsfYsSF6IWPo68Obb1bXGIOrrsL//E8wHaJ2jG6H8NCEex5LGtxyC7bZBgccgLFj8eCDuP76wPIUwsnGG2PzzeE9rr02iMK4gUeNCklqkf9WFAGsi685c/Af/4E0xUor4d//HVdeWZEsm01cdhnmzAnSVhZO9rCEZw4/PORDddbNj9tjyRLst1/A66WfQVQtQs068cRg6ff1hfvEXLBmE0cdFWC9GPCIQOWoUbjlFmy22UCcffsJszJOWTHDalKlIyKtufRDCE2zgjjYNOAnxZ9QQ+D7FpywZ+6mHpUZMMDEark57QqUcNpPuQGsZ61MQ2e9vj8rzTcf+8bd4+71CddRA1DCGtYg/D/wGlS6r9MN7+7GJpvgttuqiydOxOTJVXX1aHG/F6Z4b0y98xsj2S7y/+r1UP773nvx5ptVTR6R0e+tchwNK6EAi3Dcbz/Mno3rr68aD7VauP56XHFFJaREHgHYYw/sumuVvLNMs3RQQ9RB1wyat6iiYsguUp5EM73zTjVdQpiJKkHIecJqAHDyybj77gEdOBcswNln4+STK8M23mpQE6IkwYkn4skn8cgj6OsLoIdIHyxtTypAhCi5tdfGBRcMaLA5lJMUn7dzESMO3gkrCzHslFMwcSKsxcUXVwwiAdnmzg1eS6z4tmABNtoIixdXgZMrrgg1ZzrVuXyvVPvo6cGll2LrrSuvMc/x/PP43vcqvKjzS08/PRBjrrwyzIMMYNQoPP98wPrFoM5zvPIKNtssIGayOldeiS9+MXzL6afjzjuxYEH4asngk3mOu1TEurXYaiscccSAYjXCnoqdj+TjsUmWrJTUXu7pwfnnY9KksM+7uyt1Egmg4rXEKkadrsbChaE+dmfzFvPRVXbaauxHTWLIe1au7VmRzghDFQvRK8hm9wOkPFV7jIcSpUwK3jM8qcro9rScxE0iKmFrlBRcNlzW4nZL2xGoOVU+u+Dpb//tf86YcparOwWVKFNymSD5sMv0KB060ZjOTmC77ILbb6/CdLNmBb+1sz5lZCB0svUHRSYHVRmNAku2Zmx8s/rq+PGPA3c7wiaDlEQ0SUQ2SWsCseOYcf75eP11PPhgEJdSv7uzmLXc8OMfx09+MgAJHUQ3FgAqNh4bNGmdVU3ivHVyyzprDnfWfZVRSQxTAFCgYnyKNZdlWGcdHHwwfvazANEIUvzzn+Oww7DmmpV1FqvORiRHLL40xbXX4stfDknqna5DzGAS+bLDDvj5zzFhwgDjNMZmB+2TWOkw8lsithbFlrgUI0bgzDNx0EEBSrr//rCpRA3MnImVVhqsKSdMwDbb4NZbwziJMHcu7r8fO+wwgEIWmXzS9XC99XDGGTj66ACXC4t0kAWQJFhlFZx7LrbbDgD+8hc89FCVNCDxpJ6esEaSjEaEddfFBhvgiSdCTFUpPPww/vIXzJgRmmP88Y/4xCdCzkdsVdhZ1lE8sO22w+WXh9BUZ/VmWYJYUjAWOpZnl2vGjsXFF2OPPaq2XJ35EJJPF9PdY638OAZhUkbaQmWCW0ZqEgcHr5XSdc9QIKKE/zGvfIVyY2j4+zuwAinRLd4FCsvyj8YTkyerbI2Sft/OkCQebd9WHpTh8r9cuvv4PbbPdiYiiw+9WB+En8S0ZjE8Y/7OttsGPqIYSrNmVdiIhC7lfyVKGevEdjrO8Vax409sVimRw5h6J+b57rvj0ENx+eVoNsNGl+tjxVq5f9RGsbW0uO0rrYS77sIvfoHZs/H441WzhTiq7bfHYYdhzz2rhOxBaIzIX3GiRb7HuOggaEIevLNnqZw3Obext4MU8ZBZjTmxaRrI+CI4JI1TzrYI329/G9dcg8WLg/qRWfrVr0K3qe7u4JhLyE6YhVHeSfnWyy7D3XfjsssCY3XJkip2N2oUZs3Cpz+Nj388WJ3R7I3yFxgAssdmqjEbI3L+BC1Zay2svTYmT8YWW+ATn8CoUWGJr722knqSjLP33oEZ1VnaTJZemoMLaqE1rrsOO+00oEG53CRyjZIEX/oSZszAr36FG24IWFMsopllmDQJe+yBb3wjFGZxDrNnhxCr6NSuLuy5Z6WqY4K+tdh3X/zlL1Vp7jTFnDmYMSOckTFjcN99OO00zJ6N55+vWhrEdIdp0/CpT+FrXwtYfCTAyHGTeHWrha6uqn+e0DfXWQdrrol/+zfsu2+IGYhXKoCbQO1itUhf2c62wzKG2OxXbILBYSFegV0e/m96FT6fccO01xe/6jQrJg+vSDF4qNwmLj3VKCnSKWOnXb/zzaua1aHBYE9OpNxSY5At21Qny287e1hQohwKzakHgwtWGTkHrRVQFlYnikDs2srUB3JBOeo/75lAxMTKE5G3UIYAP3zS2XtpJ/+nvbOLseu66vh/rb33OXfGSZxUUeOWCBQJiTce2tdEPINEK5CQCBJBKhIfgSC1hFqFCoqlQCmFKjJQKeIhBYmokQCRItIiIiUIVJWqCU5sx0maxg6JP8b2tDOemXvP2XuvxcMZH9/ej3M/bE9sZ/1kW9adO+ecvfY5/7322muvMxxWbqMNTQh14uft99sluPZowyHy9lyNyz/+B1N2RIwkVjZ60V7n+EEaZz8lrK/j3XextrYbarjnHhw4gLvvvrKlaOLyYHv84eWH4XNNs9vMJY2ROHU7dx4//kg6UJvEMrL7dHjS0Np/OJ7WRMyqCmtrOHNmN63wvvtw1124447d5jfu8Jz7EuZp7/B90l7D8BxuuL1A1xsk2uWc7syudq3i9Gm8+y42NwFg/37cey8+9KEr2/HHr2f+m7Dd/DUcGmqs0dxp585hfR1bW2DGBz+IAwd2S06O90s7nxvpx+Ec3/GrAia8p2XmQtrIM2LK/sOPuhOffUTyLjz8448c+uhjwZcQEBMEUGQIGI4YQEL0i7vzSYWJWQGBsiIrec6qThSO+9AV0Fa9sxpWmdp4FbUFjHcvXEUBkDI5AKpKi+/9n/iED9eUH/98Yj44cCUEMe1RnCklHdHekc+nHaodSJrgaTPPGA4Ktdc5ns8+z/EntmumxE/8lfFTdHxhROLHs/7H+7EtPbazc2U3Y7vtZaayL9TeiZsD5kxVG1e6kUOND2DtSYerObWFWUaattD9M54D2m3nJgje7Aht37TV8f2OLLKrvNM6jmbKfnmeyE5rrVdSrypTmZ+5/9kH7v0pn0P0EYqApiI8Kq5KlCLCi2ZbCsBNtUpKlDO0lObKeJsHmxsXB1VV3z64M3/Ae2JfBOkRNesCSqS023lE7B1ckoSsMSYfyl7wWdTxDbTUu6iCLHeK4cTn8dFouGBLK21Et9RNPp7hM66t40J54zeqe3ScuEKwN6aeWRpz6Uu65q3wMBqHOkchlDkMuFpNvU++/MjX9z93zx0f9uKhgEOkGDQE9UqLyzognBmOhEDwcO0W98iV/EA+9u2f/u7pE7xaRqn2Vb4ihAIMHzgUVJZcFlwECo58cL7nVxw7T/7O8s6f/9Ff+NiP/ZybVSJtYnWBaZ51h8c954/mdNvHvzO/sz/ySqDhauYjs+OO1zpPs8wSrlO3Aec39Uwff+Sn07J92l1O4zOqRe+ThaZc0yw25w027ZPxDRmttz7xyEtPTTo2PQx30PA+j2mNndiV08418bwdt9/M58WU/fIMi7ESetvVYBU+ufqNs699/o0/+YuPPN6Yz6tTgpKwLJkHyXAZyoLkcoBHRkUxwEHxm0d+6bW1Y6SMjR0JcpHj7dnt9BWosVsbR3fzQkEOABMUOWVXhp+4/Sd/9sMsbsbTO1GFO27i+Sd984cy5ppC0rxPXRtDH3HiRmbxE93VkQzuhew2TzPnadei35zqkaQrS53jjRpeOp7n4N2j9bW6/mm9PM/d1W46Gx7XO+Zkc6r2bM9MRo25ULRq0f6dc4jq+OnNvhHnmrGi5YAGqyiENKrc1lv9+9ef/KfvPc3EyUVVLTRkCFiRsVwAS0XAAJFozBQLDqLyxaN/9syZr5VSash9L8GXPSp2XFYHOAULU2bKDtlp8hpVY5QaklbUi1SCynlSzlcpqcDU5ZqOlZxrGMnr8PUmVpUZKTMy/FLj9vVGuLyNqE1q7Kg7trTdrrkpugMvI30xks/TMWhdk6F3uU6c80TzLBhOLI86rWbqyHLl/HaeGc5qi/lM65erZKFrtmhMF3WuPLsdrnveu0jrYXvlkvviq396/wceOHDnjwyo6knPN0EUxTLv/ZDc1FAIcFAHhoh8/a1/PXzkSxGcZOCTUgg1Kp9QUFBEgBQkoF3PnUiBkpxwrpEJKsRZSJTd9PzPjiXKiXO6aZ9Pe24XXSGcOUnvCBONH7bNZxj+8vhD2CafLCHN8z9d3aZYwr+bMzgzsYuHd9tikcXhq1GT+Xu/w9nvvuB2wB4ZDDqiIgsZdtqFNSulw9k+bW7rckZbNPC1aEPMZx8a4xQ9DRHJqV/ZYt5Hx86/cujkoXpQ9VCK7m7zyJR5iYgMO0deoQkKRUZ9fP3E7x15ZEsvhZycFHmFWGLoE3wvUlRmZQITERjNaKAeWuc6RAeBIpfqCjhBLZBFB//x8gATEqdo4T/dTnfH90eSBWf6LG0EufGb2uBD+/9ml9DwKuvE9JuRPVzztGjm3KLD4IueZZ6vjST5dOT8dNRDX9pJ7PZVZ7Z3ZsXN0ceIJwxg4yG4RftrJs0ccXifWruBY55E0nGnfp574GoaYsp+2UDKqiqcXebssnrkWsjx0689+cyprxGp87vZw05dh5IOlZT/YV8DmWqA2IOEdGd7+7de+sTZzXOqqsRwkWticC5IpHbgy4fRy0fczWlvatR7sEBUKSEzO6b3XT8OP8wTVazZYdT9ps2rn/PeIKYYsca0pbnr8aaXqzTgEr8+/CvjmVHXr0Ob8MtyV7vcnXY1DTFlnxlEoT/47qfXN87VAEUBXPbCeabdRvuEMqEARwzqCNSfOvrJ42dfrn0yCxuGce3HezNBNylh7fzJg69+FqkGMaAV8iyzTRhqBSqIVYg9Coff/PI/v/4PtSQnZn/DMEzZ9xwPlxyefvMr//j2M+qqLLQqIdNist58yghlxvPbz3/hW3+Y4IlSZ1THMAzDlP360Oe+E7h69dDRT53cWaOclrMZManKyUvnHn7+odqjGvR3CvVCZmHDMEzZ95qSWFHGcOnMxsU/evHR2imgaWFfW4l4kOOv/s8vnttYr6tLskr74+qymfGGYRim7FeBKlKoU0Llqme/941/OfXUD+pL5WJ2UwCpip898ruvrL2SuT8A9qmvOCZTdsMwTNn3HsniKRTiXOVTuHTwOwc3q52s1UKyDuCrp7/6xPEvi2wnoIdQadQqFk0tbcMwDFP2PfXZHbSKUgTHGlU2+5ce/uYvk4YaQMwKpLibuZjzQFWT1AAGEIVCAFC1XR/ZOPLoNx8JXFakJFAVJwzHkq4269F8fsMwTNkXxmnhSJUGAkKmKNvHN148fOLxAorgVNUHH7WCgl0vU3RcaNRSQQIQdnJ/K2z/2n8+VGmVNIqKQndfE06ALaAahmHK/h747JRAXkGQRKJM/p2t9SdOHD524ZiqsuYMkBSqUSAehQrgcxSASXMOUvzGdx56/fwbMVdZMpq6KATQ9Be+GoZhmLJfV4REQKSOiUTBLnjC25tvHTr6mX6MNZOL8E6EvMssGDAD5AunyKhc/MsTn/vGiedSr4KCQQ6OwABdlnVTd8MwTNn3HKdBNAKJuMxEUfvBO2L/b+/8x1fe+KugXPuscNyUZUQvq1JOiC656t9PPfvnJ/7GhzrWSoSmLJUSlJqQDFmY3DAMU/b3QtkFuSmn64RJNUOUQOJy/NLxx49cPB4oE1Qzg5kVrKrOJz84tf5/v/O/v82D7W3VVRRNrTeBqErzhkJqqnwZhmGYsu8xolHZsYQstSMECaqsKtHp6Y23P3fi0cF2hhKRACmRqggpzleXfuVbD25vXfi+VL1MgyBt+cfmXwKBYNUFDMMwZX8PyEzs1CliJgWzE+UE4iAQT/998oW/feeJTd0i5izeg9j7TVx67MXfP7r20qCub3NlZnY5XSnkqcRgAgGq5rQbhmHKvvcQyGVEzp6JgAhlARSx1tDjnVh94eXPv3Xx9ZyyY6RBlTQ+9dKTT536u4wszDln5QRlAE1AhgiAKkQBXsL+V15+A1Vt/lo3GYZhyn4tFH/F6UCD47V09jMvflpdTpVSWbzw5n8dPPsoaiJiJingoE5Mew3DMGW/8XHqBiRJ0/5q3wvnn/vrE4d33NaZzdMHX/316kLKSRMJaGUHlUd2ltxoGIYp+41PruK+wpdSbus2gx878sevnzv2iSMPHtt4c1/iytUlrWTtF+oivJnZMIy9xJsJloMcVHSHK+fYD9yg3Pn4t3+mv7G1wr7vxTGi9r2WBAAVtASiGc0wDPPZb2giiyo8nIMTzsnl8xe+nwUbUu+n4OASHLMMqPISCJVZzDAMU/YbnVJCibLSXKcoK9qLZW815JD368q69lPOq6KRYkkuaRT0zGKGYZiy3/A+O8VKBoXnFVrJlVZUcQSr1NwPBE9Fn8ixj8gFvPLALGYYxp5hcfYlccQCkCBS5YgBZMpQJgAKQfKAZmVwZiG5ZiOogghyuQRwk8xuw7NhGOazG4ZhmLIbhmEYpuyGYRiGKbthGIZhym4YhmGYshuGYZiyG4ZhGKbsxvWGrrwVu3lth8JezGQYhim7YRiGKbthGIZhym4YhmGYshuGYRim7IZhGIYpu2EYhim7YRiGYcpu7AFNGjugCqgAqgQ1sxiGYcpuGIZhym4YhmGYshuGYRim7IZhGIYpu2EYhmHKbhiGYcpuGIZhmLLfIIiAlROpKBwgDFDBetOXMlcSyp7UEYPAKiqU2pLthmEYAPyt2jByRCQlS2anCSQq1Fd1fJOLoGfNLqkDa7NZCSTOZl+GYbwvlL2QPEgYiFNWklAgkI9JQXRzu+2aOENYyQmDmDyBVaBsfrthGLe8smdHzLwKT6i3UUWGMhhO6eZ2bh2YVBVaSwJlFXHCDDKf3TCMW1/ZVT3RYAeVk9ugg6DISVlUbnLXNlJ0RF6dqpL33nkwzGc3DON9oexVX+7iuy74NUXti+SpAJwier25ndsAR4SEqIxQOIHWsV5xq+azG4Zx6yv7vlX/8fseHOQqaKipL8ScqfAS5eaWQGFhkMvkc9ih/v13P7ASVgGxJVTDMFr+H/TP91WEWoXyAAAAAElFTkSuQmCC;" parent="1" vertex="1">
          <mxGeometry x="20" y="30" width="209.72" height="87" as="geometry" />
        </mxCell>
        <mxCell id="fqFbejuKPqkzXvjR6cZn-5" value="" style="endArrow=classic;html=1;rounded=0;" parent="1" source="fqFbejuKPqkzXvjR6cZn-3" target="fqFbejuKPqkzXvjR6cZn-4" edge="1">
          <mxGeometry width="50" height="50" relative="1" as="geometry">
            <mxPoint x="390" y="300" as="sourcePoint" />
            <mxPoint x="440" y="250" as="targetPoint" />
          </mxGeometry>
        </mxCell>
        <mxCell id="fqFbejuKPqkzXvjR6cZn-6" value="RAW" style="shape=cylinder3;whiteSpace=wrap;html=1;boundedLbl=1;backgroundOutline=1;size=15;" parent="1" vertex="1">
          <mxGeometry x="120.64999999999999" y="460" width="90" height="100" as="geometry" />
        </mxCell>
        <mxCell id="fqFbejuKPqkzXvjR6cZn-7" value="&amp;nbsp; &amp;nbsp;BRONZE" style="shape=cylinder3;whiteSpace=wrap;html=1;boundedLbl=1;backgroundOutline=1;size=15;" parent="1" vertex="1">
          <mxGeometry x="290" y="460" width="90" height="100" as="geometry" />
        </mxCell>
        <mxCell id="fqFbejuKPqkzXvjR6cZn-8" value="" style="endArrow=classic;html=1;rounded=0;" parent="1" source="fqFbejuKPqkzXvjR6cZn-9" target="fqFbejuKPqkzXvjR6cZn-6" edge="1">
          <mxGeometry width="50" height="50" relative="1" as="geometry">
            <mxPoint x="390" y="420" as="sourcePoint" />
            <mxPoint x="440" y="370" as="targetPoint" />
          </mxGeometry>
        </mxCell>
        <mxCell id="fqFbejuKPqkzXvjR6cZn-11" value="" style="shape=image;verticalLabelPosition=bottom;labelBackgroundColor=default;verticalAlign=top;aspect=fixed;imageAspect=0;image=data:image/png,iVBORw0KGgoAAAANSUhEUgAAAjMAAARxCAMAAADjzPatAAAAM1BMVEX////HLEjHLEjHLEjHLEjHLEjHLEjHLEjHLEjHLEjHLEjHLEjHLEjHLEjHLEjHLEjHLEjJoTlQAAAAEHRSTlMAECAwQFBgcICQoLDA0ODwVOCoyAAAHx5JREFUeNrt3eGim7iuhmEgCRBCwPd/tefHzJndaTurS0GyJfn9bqA0eZYtyzYZBvJp7vd13fe9/Jhj35/rfB/5dMi/Mz3W/Shf5dyfy50PigzDMAy35fU1lx+yPx+MOJ1nnLezCPNeb3xw3U5Iy6t8lnN78PH1OMJ8CgY2ndYw8inp1xzPiU+ymyHmXZSyM9h0IWY9i2KOhYVU9rp3K9o5V6YoxIizoSbrrPQsZtmYoTJGt475dYZCTbY8jmKcc+ZTTlXI7KVC3mxiMi1R1vSa27tUy7nweWcYZErV7Ky7qWQYanpbLp2lfnaqmsB5liY52bqMmnEvrfLk04+5XjpKu7wphSllxPMTDb5wmUvrsH4Klq20D11hyMiLGtBARnzyk6tQkBFXwqCBDKdqIGMf0EAGNJABDa28AhoiyaMU0BBJbmcBDZFkPEoBDZFkLwU0RJKnYzJ0hKl/QZMh0+nbTDnY5aaY4WhE8KzFfza+JledmRIhK1+Uo7xDmClcfGJmEi+euMLCmklcB/NlOcmrhAk3LH3kXgKFksZFjkhmKGk8ZCmhsvONNc94xjJDl4Z1tjzsVjLMsOBmmGHBzTDDgptEH2Y4gMUww1maUJlL0Lz47mgBS8Or0xrlXuKGkqZNtsBmOFPepgIukcMeQossoc0wO7WIySng/bnc/8q87qZLeXa460f/ssHx/Pn14dNieAiQS9zVo31B+/X7982Pi9WK/qQMjt2c+eqX1R9GtzS5JVc5k2pt8YeC9G4z1vBLGmFXTd/5QUCTX889+BqrRm+++N6vLZn8tiVNmpgNvW//AIrFwQuuIVTMo8Gf+l1/fqJJE3ClLWqSGPzAO02acE1g4Vc2qqOhSROtnBHXoPpoaNLUyr3V96WPhiZNpaisYT66aaSOhvtOgbozH963V0dDk6ZONHr5n14z0kbDuyLClMCfn/3XRkOTJkgJfOWvWxsNFysrZG5cRSijoUkTYtl08WtSRsO1f/u8mn9Lymho0gRYal9eq+iioUljnrPdoskIDZdxreNiO1kVDU0a9+0ZlYWKKhpeFeG8PaNUPqiioUnj24zW2lYTDbf+fZtROx2niYYmjWszeu0QTTTc+jfM5TawZj2uh4a9yk7MaKKhSdOJmWFUu5jLXqVfM6fu49zU7j3RpOlknNFEw15lL2b00NCk6caMHhoOlHvtz+hvCKq9qY29yvQ9vX+i9R59mjROzVjMAFpouPXv04zJmlYJDU0ak1w+P3OaPJbSS4249W8Sp9uBSj/AQJPGIpdXtkbnDnTQcKDcIpfvHVi9MVMHDU0ag1y/32R1klJlk5sD5S6rTas2iM7JCPYqXS5rb67RcKDcX4PG8E9ZBQ17lQ4X24YrWpX9Sg6Uq+fwvKJVQcOBcn8LJ8vTtxpo2Kv0t3AyXdHeXJOmCHbZb1VY2LFX6bAINi00FdCwV6kcnV9Tml2jYa/SX0FTynnz/IT8jJzDgsYWzfX9SvYqdXN2gIa9Sn8dGusu/WU0NGm81Zh/r7gN0VzeemKvUjN6P2JqiObyfiV7lS4nJ99o2Kt0OTn5RsNepcvJyXQX4ep+JWWwz8nJtE9/FQ33KhXzKF2gYa9SM0cUNOxVuslagqC5WK6zV6mXqfSBhnuVitl00Sxe0XBkTy93XTNuj9OwV6mYPQ6aS2Mi9yr9DjRu0VAG+x1ovKLhyJ7jgcYrGo7sOR5oLA/uXdmvpAx2PNAYormyyc1epV5evaDhyJ5aptIJGo7s6WWNhebzjVWO7Hn4Fppc///8ZARH9tTy0DdjedrzczSUwY7X217RcGRPrww+O0HDkT29LCUYGsrgnLOTJZqPT0awV+l7drKsOT9Fw5E9B3+40U57cmRPL69O0FAG++7suUTDkT0Ha5FmaJ6UwSkX3KZoPjuDxZE99yWN5Qm5zdsD9VfSvG3QeDvtyc0VzZLm7AMNZbBiHiUcmo8mVI7sKWYNh+ajCZUje+2rynBoKIMD1MHF2RFhymDNb8CoDnZ2rpwjexEWT87QUAZHWDwZovngKAd7laqZ46H5YHDkyJ5qnl2g4eZKiBX36elcOWWwg+5qtMsI3FyJ0abxhIYyGDTi2p2XTSujOTpAw5G9GL09T2i4uRIFjaNrT9xciYLGz2UEymDt3Es8NMKT8BzZa15UxruMQBkMGikabq6ARoyGI3tx0Hi59sTNleb1QbwbLJTBoBkG4TuYOLIHmkG4XcbNFdCI0VAGG+SVHA1lcOMvwMnxf8kzc2QvEhonN1gog0EzDIPoBgt7laD5K4KNeW6uNP6rjYiGmyuNv4CAaCiDQSN+Zm6uxELj4QYLZbDRF1DioZkpg9tmzoyGI3ugkT4zN1dAI35mbq6ARvrMlMFWWazQvJpD5wK3VcyO07Q/V04ZDBrpM1MGg0b8zBzZA430mbm5AhrxM3NzxSx2pz1b35WjDA6IpvG5ci5wg0b8zJTBoJE+M2UwaMTPzJE9SzRnTjTcXDGM2cG9tnfluMAdEk3bI8KUwaARPzNlMGikz0wZDBrxM1MGm8bsLcIt0XBkzzZzRjTcXAmKpuURYS5wg0b6zJTBoBE/Mxe4QSN9Zspg0IifmTLYOls+NBzZC4vm1eqZubkSF02zc+Vc4AaN9Jkpg0EjfmYucING/MyUwfZ5JUNDGWyfiHflvnxmyuDIaNqcK+fmCmjEz8wFbtCIn5kyGDTSZ+YCN2jEz8zNlSpoDis0dhPFf/9uDGVwleS6jEAZDBrxM1MGg0b6zFzgBo34mSmDQSN+Zsrg6GjsvsEHN1eSomlwRJgL3JXyyHOunDK4VhLdYKEMBo34mSmDQSN9ZsrgBGjsnnnlAndSNLWPCHNzBTRiNFzgrpclCxreY1QvWa49UQaDRvzMlMGg+TI7ZXBSNHWPCFMGg0aMhjIYNFI0XOAGjRgNF7irJsW1J8rgqrG7K2f4E2EH7zHKiabqEWFuroBGioYyGDRiNJTBoJGioQwGjRgNZXDlTAGvPf2MhjK4chJce+I9RqARo+HmCmikaHiPEWjEaHiPEWjEaCiD86AxPLM7Uwa3TfgbLJTBoJGioQwGjRgNZTBoxGh4jxFopGh4j1EqNEsVNJTBLbLGOyL8w7FmDkU0SezLCJy+Ao0UDcc8c6ExPIP1PzT0aEAjRcOLIpKhMVwL/z8aTnm2yh5vk/tv6CdfXqOYnSu3bO8vvCciJxrL98Xcz1IOzORDY1mkTjv9mZRoGAhA4+jWE2kdq7tybzaF8sbqiDA9FNB4OhhBsqKhDgaNuA6mpEmce7hLT6R5jE57cgoTNOJwVRY0js5FkKxouMGWOs9wu5WkeTY2nogLNCy4QcMeArFHwx5C6pgcp+EKG2iYnYg5GtZOoGHtRP4di9OedPaSx+A4DUdpQMPpYGKPhlMR2fOgSUOkmWnSkOZoKINB4+plEcRH1M9g0Q3OH+1Nbs55gob1Nvk1L7adiDDa+5VsO4FGfN2JTxQ0DDTk1+iejGCg6SK6+5UMNNEyf9JWuzHQ9Jv78VmHZGag6VXM/nFXbWWg6VbMx53YjYGmv8XP61r3XnPFzUATQsx2ecdHc8XNQOM+46qxS3hn16mfrKfOzrJiHcz2tu+GzKH2dentcXNvxfNi6a34Jz4eHNhLn9uuOy3olTScDHZa+m7qpYRaScMVBJ+LpdOg/Hyz3O6n9FUyo9al4VKlu9J3t1rmLiy3U2baDL+rneV2P4WMkhm12Ykq2H8hozUnLFTB+Tsy2nXEmyo4fUdG24zWSU9eNO0gy1lnvfKkF5xlff2utcYddcpgjl4FmJbU+iJKR8offG3upyW9XtqbFk0n05KeGZ0N7pNvzv20pNizfzE59TEtKZqZmJwyN/Fs9gY3Jqeo05L8EJSSmYnJKWjt+8EBXa0zCBuTU8RB5qNCVMvMxOSUvvZVP+ukMtCw51Qx06dnn9TMqAw07DnVy+cXAPTOVGoMNByIqFb7Xujd65lRORPB5bg6te+lswiKZ7c1jgZzWs/rAtvGjMbPgvELCN4HGeU7Iger7QB5XP6aNM0srLaTdvHszIwKZla+VtNBRuNMper9RYXlNu+8cj7IaJvROHvFN+t7kFG/J314eyCit1wy+ooWCpqkPRk7MwqbTnRofA8y+lPB9V4wHRqD3I7i14zCVSc6NOrR/HkKfTMKLRq2nLQHGeXfEFVfplzvAHCGRjfLWZybuT450dVz2MYzNaOwcuKL9tfGs22hvSmCc66wDc2sFMFpi18rMzeKYC/FbylBzAwnRbCLeWkvccxcLtTpBCvkfpZAZq6vtnlV8OU8S4lkZnL4TJ1lepdYZq4foln41v01ZWzNXC5oOEJzqfjdSglnZmHhlLApY2vm8qlg3hR8YQVylohmBnac8s5LVmYud5O46e92XrIy8/T4UMxLrs1cLoLZpXTXx7M2c7kIZrHtro9nPg1cfSje3yn/Oz1LbDNXO8E0aKRZSwluZsdM3SX2XsKbuVyNwUC0xD5KfDMrZhIusW3NXF44cYLm+9lKyWDm5vKpcpYy75LDzICZWqXMWTCDGVEpU0oaM1fXfjSCnZYymKGUcWTmhZmcpYyhmRUz6boy3s2wSWneak9nhg2nP5Qyr5LOzB0zlpneBTOYiVH9YoZGHmaofjFDvFW/mKH3ixmqX8wQP71fzMTMUgpmMCPJVjCDmWgLJsywYMIMCybMkP99np7IYCbEGruU/GYemEm4xvZ95oofv/W4xuY8cJQFkzsymGGN7cQMd1USk+FOHG2ZJGYecPFLhjv+jvPwSQYzdPJ8fDuX31nEy+sdk3H6bjTEOLheUNcM72DM1/y1NnP1b+QNmdKbGd4pfbGT9yrdmbn6juPOtyhdNn+tzVx9qBUyvZnht3hSk/H5m189t/Qm92T4bUG2mFx8PZd/GQYy3Zm5+kwnZHozc3m3aYeMUd6bUzOXS+ANMjbZxuHwaeay5RUyJlkGnR+uNDBzeKyx/Mf6ruR5H9yamS4/061HMtbHZd5//faeTzPX//OQMShl/v53fJq5XM7skFHPPLg2c2j9SUBGrZT532zv0szl7kyHyyZjMu8fjle7NLM4HPr6JrP9+MvTLs1c3mzq7se1jcks//rHPJoZLz/RARnNUuanK6kezVz/BF6Q0cvxc6/Lo5mX8lgKGYVGnm8zo8MKy3MepmR+07VwaEbhz6YnMrbbkr8bsR2auT41vSFjU/16NaMwNT0ho9379W1GYWp6QMam+vVqRuGexQgZ7d6vazNToZxxQea/J3h3Zp6UMy7IzEMcMyflzHcXC4a3Jc+vPkNvZjR6miNkbBZMTs3slDPtyby//qtzZuam8DgrZEzJeDOzeSuvvGa3I/PHc7G+zIwac3EPZAzflffnVacvM2uNPxPIfLjGdmlmPOv8pyFz6dNzZUblB/Dyr7TtzlidtyGaGY0XDuyQMSbjyozKh7FA5uM19jd/IsKTGY1hJv1PY9zsyHx3VndkRqWayd4EttuX/DYZR2ZUFk3ZpyY7MoIWhR8za2FqardjsA0BzegMM2/I2DdC3ZjR6VPlnprMNpnmIaIZpeVA6obe5oOMGzM6f0Kp72k/nZDxYubR5n9PL++TD82HmVGlnZf6GIQVmVP+hlMfZpSG3cTHIKwaMx+Q8WFGqx9+g0wFMj7MKLUd8jZnrBozH5FxYWZtVcyFiSsyHsxozUxn2ubM5oqMBzNaf0RpK+DVhsxxG6KaUftEsm5PGq2y3+MQ1YzaGaKshzpv3sg0N6PUzStpb/YbrbIvkGluRq28S/oaaaNV9hUyrc3ozdVJT0Hs/sg0NqM38CZdaG8OybQ1o1fMJH0ZxOyRTFszL73PIeUwc3dJpqkZxV5Vyn6ezZLpMpmWZjQH3oz9PJsl03n9o2pnRvOvKOUwY7JkOhXOizQzM50MM1/m6ZVMMzOqA2/GYWZ2S6aZGdW5OuEwc/NLppUZ1V5VwmFmPP2SaWRGt72ZcJh5OybTxowumYQ/b2CyZaC28d/CjO4nknCnyaT+1Tst3cCM8ieSb6fp5ptMAzNLYZipX/9q3smobmZz/GHkrX9VB+PaZrTJ5LsHZ9H/1e1GVDajviBI94MYs3sydc2M6mTSvXDG4vyD9odU04z+5v6ZrZ1ncf7hPcY1M+l/HunW2a8AZCqaMRh1091PWfTJHPq9iGpmLGq7bAWwQTPvNHgnTy0zFivIbAWwQTPPgkwlM6PFOcV0HWCDD8nkQnIVM7fDgEy6m5MGrwyZh6hmFgsx6d4DYXCZaR2CmhlfJmSytWYMipltCGrmbjIv5ZuZ9IsZsyWCtRmrF65nm5n0i5n3GNPMzerHY7LNTPrFzDEOIc0YvTww36kZ/WLmvA0RzdzNfqEqXTdPv5ixfCW7mZnR7Kdj8nXzlljjsJWZ+bQjk22fSX+byXa/38bMfTcUk+0ExKjejTC+WGphZtosxaQ7ArxF+4D0zYzraUom2zJb/ZDIe4xmxlhMundHT9qf12n+K1bKZubDWEy645zqDQn7BYKmmdFeDHsGDrqdemZG81nJtiOeY89gG+KYmZ4VxFSYq4Mvs/coY+O2PF6lSrJdztb+2N5jyPnUMtneTvSIOQxHMpNtZ1J9mV2pDRHIzJt7Bl+n1tHFOGbSXU3R3s2u9vrSMGayLZnUd7PrDcNhzKT7ucl32GE4ipl0r0DT/uBvA2balHdhG8DzgJlG5V3UBvA2YCY5Ge1rX3XbECtk4s9MlY+hBTCzD8xMrY/MBDPzHpmZfC0QVshEn5mqb8OtkAk+M9X/hFbIxJ6ZGuyprJCJPTM1aJC7NrMnJKM8M7XoQ3g2k/KX1nVnpiZ3SlfIBJ6Z2twpXSETeGZqc0DErZl5YGb6UxqdqV8hE3ZmavWCDJ9mzntKMrpn85q9IMOlmXRnf00+7GanXZ8OyWTs5A2D9qnxdhcEd39ktqRkdD/r94CZf7ImFaN7n6nl2768mTnnrGR0b9rOA2b+znHLSkb3HRBNG56+zLzGtGRU3wHRdpWwU8oE3DRoOhqPNPIC9jTa3hB01NLbx8RkVFszbS9i3E7mpXCbBm1fqjK+vYg57qnJqLZm2r4h4+WFzGtMTUb1J72ejDKp+3gGf5tNl9n3wwmZfUpORvXUTMNl9t1LY+ZchuzR/ONst1Qw/oUlBhmrfsaOmA4GGdW9yVa72aOfPl7y5ZJ+Abw0EuOmjZe8J2NQALd5EftK4zduAdykATwfbsR0UPuqF8CPrsX0MS0pF8D1Z6a7HzFnJ9OSbgFcfWa6OzpbtY3dkLnHnZk8iemlkBmGQfUIRN0TwJMjMe97R2I0j0BU/fFWP03fUo65JzGqRyDufYrpYaPgX1E8A1zv0Mzo6Db2uY6dkVE8A1xtzeRom6CU7sSoXgN6dChmm7oTo3kJ7oUYNpo8zkyOtgk6FaO50fToTMzepxjNdfarMzH3odNsgWamB2I8ZIpzNs/VxlK/YjTX2Tti+ojifvaEmD6it59tedTohhg/mfXOARiWXJ42rx+di9F8p9W9CzHz0H302nlPxNDOc9GacXVABjG67TyTWd7TVuTZ4XEH23bejphOonY9xeBCP8cdkrfzVsSwayBcT2g/2eJITHkgxWCYUW7NeDruUKreo+hn1+CVWQxmLHYNVFsz7sRg5oeofTlLajGYMRhm9PYm7+9SMNPDroHWR3rfS8GM56htTm7JxWBGfZjR6QA7FoMZ9WFmzS4GM9rDjEIH2NNxB8xUGGbu6cVg5u8vSmuY2fOLwcxfUfumpvxiMPPXd+WiAB5jiMGM6jBzZaPJ1QEZzFQbZuYexGBGc5h5dyEGM5rDzL0LMZhRHGY+PGkVTQxmFIeZj9bZLg/IYKbSMLN2IgYzasPMB+vsmGIwozbMLL2IwYzWMCPdz36EFYMZrWFGdk/M+QEZzHzZG2mxnx1bTPdm1vofY3QxvZvROp63dSSmdzNaw8x323m3BGI6N6M1zHzz1XnTVgpmGGa+387LIqZvM1rDzNqVmL7NzNWGmUxi+jaj1Iqd+xLTtRmlYeZPuwaujlSdb8y4H2Z8HcLbxhUzF/KoMMw4EzPpLBX7NbObT+7+xGDmUpRe0rmHEoOZS3kZDzOzRzGYuZLJdphxdQjvx9eGY+bzbJbDjFsxmLmybWA4zDgWg5n2u5OTczGvyeI/3qcZpd3JX49auToa/rvfo8VM422Dn/+KXR3C+/0vGGOm7bbBFk4MZlpvG0zhxGCm8bbBFk8MZj7NTXuYCSMGM237ef8MM66OVO13+yZDh2Ym1WEmlBjMNO3nbRHFYObDnGrDjCsxx1zrD6Y/M7PWMBNQDGY+i87v9U3jGlAMZj6Kzvm8l6dDeIfgXdaYabbQLjHFYKbhQjuoGMy0W2hHFYOZdgvtqGIw02yhHVYMZpottMOKwUyzHe3mOT/+pSjM9LnQPtfPf48OM8KMvYvBjDhL72IwI87RuxjMtNlqiiwGM31VwBpiMNNTBawjBjP9VMBaYjDTSwWsJwYzfVTAmmIw00UFrCoGMx1UwNuk/DFgJnkFrC4GM8krYAMxmEldAZuIwUziCthIDGYkFfCJGMzIMiMGM8K8EYMZWSbEYEaYJ2Iwk7E585oqfBKY+WYeAcTsdb4JzKRpzuy1vgfMfLM5gxjM5GrO7DW/A8wkaM7sdb8BzIRvzuy1P3/MVPuYkojBTPDmzH4P+geU38wNMZjJ0Jw5Wn3umPlOHJ6cOeZmnwZmQu4bNBSDmZBTU1MxmPnWvsGJGMwE3jdoLgYz38kLMZgRTk2IwUzQqcmJGMyEmZrO1c0HgpkQU9Op/DoQzGSfmlyJwUyAqcmZGMy4n5rcicGM86nJoRjMuJ6aXIrBjOepyacYzPidmrbJ62eCGZ9Tk18xmPE5NXkWgxmPU5NvMZjxNzV5F4MZb1OTfzGY+ToPxGBGmLqHx/cgHyRmvsqJGMy4nZr2QB8iZr7IEzGYEeZADGZkuSEGM8IsiMGMMPbv0HNz/QQzQZrAMcVg5ovMiMGMMC/EYMZPEziyGMz8d+6IwYyTJnB0MZip3QR2dFUfM9qZbMSMA2bSmpkRg5nWK+0sYjBTa6WdRwxm6qy0M4nBTI2Vdi4xmPmvKO5pb2OyzwYzv43ennaM6yeYuZ4HYjAjzIYYzAhzIAYzskyIwYwwM2IwU7ec2W/DgJnOzFzaONiz/zYRZn6TG2IwI8yCGMwI80IMZqqUM52IwYxaOdONGMwolTPxLxNgpm4505UYzPwuB2IwI8uEGMwIMyMGM8JsiMGMMG/EYEaWbx4FznaZADMX8kAMZvQ/ka7FYObX7IjBjDCIwYwwN8RgRpgFMZjR6+ilvkyAGYOOHmIwIyuBEYOZ/8odMZhR+DwQg5mv8kIMZoQ5EIMZWcZuLxNgRqUERgxmZB8HYjDzrWyIwYwwb8RgRhjEYOaDEhgxmJFk7vcyAWY+NYMYzBDMEMwQzBDMYIZghmCGYIZghmAGM5jBDMEMwQzBDMEMZjCDGYIZghmCGYIZghnMEMwQzBDMEMwQzGAGM5ghmCGYIZghmCGYwQzBDMEMwQzBDMEMZghmCGYIZghmCGYwgxnMEMwQzBDMEMwQzGCGYIZghmCGYIZgBjOYwQzBDMEMwQzBDGYwgxmCGYIZghmCGYIZzBDMEMwQzBDMEMxgBjOYIZghmCGYIZghmMEMwQzBDMEMwQzBDGYIZghmCGYIZghmMIMZzBDMEMwQzBDMEMxghmCGYIZghmCGYAYzmMEMwQzBDMEMwQxmMIMZghmCGYIZghmCGcwQzBDMEMwQzBDMYAYzmCGYIZghmCGYIZjBDMEMwQzBDMEMwQxmCGYIZghmCGYIZjCDGcwQzBDMEMwQzBDMYIZghmCGYIZghmAGM5jBDMEMwQzBDMEMZjCDGYIZghmCGYIZghnMEMwQzBDMEMwQzGAGM5ghmCGYIZghmCGYwQzBDMEMwQzBDMEMZghmCGYIZghmCGYwgxnMEMwQzBDMEMwQzGCGYIZghmCGYIZgBjOYwQzBDMEMwQzBDGYwgxmCGYIZghmCGYIZzBDMEMwQzBDMEMxgBjOYIZghmCGYIZghmMEMwQzBDMEMwQzBDGYIZghmCGYIZghmMIMZzBDMEMwQzBDMEMxghmCGYIZghmCGYAYzmMEMwQzBDMEMwQxmMIMZghmCGYIZghmCGcwQzBDMEMwQzBDMYAYzmCGYIZghmCGYIZjBDMEMwQzBDMEMwQxmCGYIZghmCGYIZjCDGcwQzBDMEMwQzBDMYIZghmCGYIZghmAGM91nwQyR5o0ZIsz4xgypjgYzoMEMsUaDGdBghlijwQxoMEOs0WAGNJgh1mgwAxrMEGs0mAENZog1GsyABjPEGg1mekdzYoYIczsxQ6zRYIZI0WCGSNFghkjRYIZI0WCGSNFghkjRYIZI0WCGSNFghkjRYIZI0WCGSNFghkjRYIZI0WCGSNFghvyEBjNEmhkzRBsNZogUDWaIFA1miBQNZogUDWaIFA1miBQNZogUDWaIFA1miBQNZogUDWaIFA1miBQNZogUDWaIFA1miBQNZsifsmGGXESDGSJFgxkiRYMZIkWDGSJFgxkiRYMZIkWDGSJFgxkiRYMZIkWDGSJFgxkiRYMZIkWDGSJFgxkiRZPGzP8BE5I2Adv1aL4AAAAASUVORK5CYII=;" parent="1" vertex="1">
          <mxGeometry x="120.65" y="500" width="23.27" height="47" as="geometry" />
        </mxCell>
        <mxCell id="fqFbejuKPqkzXvjR6cZn-12" value="" style="shape=image;verticalLabelPosition=bottom;labelBackgroundColor=default;verticalAlign=top;aspect=fixed;imageAspect=0;image=data:image/png,iVBORw0KGgoAAAANSUhEUgAAAjMAAARxCAMAAADjzPatAAAAM1BMVEX////HLEjHLEjHLEjHLEjHLEjHLEjHLEjHLEjHLEjHLEjHLEjHLEjHLEjHLEjHLEjHLEjJoTlQAAAAEHRSTlMAECAwQFBgcICQoLDA0ODwVOCoyAAAHx5JREFUeNrt3eGim7iuhmEgCRBCwPd/tefHzJndaTurS0GyJfn9bqA0eZYtyzYZBvJp7vd13fe9/Jhj35/rfB/5dMi/Mz3W/Shf5dyfy50PigzDMAy35fU1lx+yPx+MOJ1nnLezCPNeb3xw3U5Iy6t8lnN78PH1OMJ8CgY2ndYw8inp1xzPiU+ymyHmXZSyM9h0IWY9i2KOhYVU9rp3K9o5V6YoxIizoSbrrPQsZtmYoTJGt475dYZCTbY8jmKcc+ZTTlXI7KVC3mxiMi1R1vSa27tUy7nweWcYZErV7Ky7qWQYanpbLp2lfnaqmsB5liY52bqMmnEvrfLk04+5XjpKu7wphSllxPMTDb5wmUvrsH4Klq20D11hyMiLGtBARnzyk6tQkBFXwqCBDKdqIGMf0EAGNJABDa28AhoiyaMU0BBJbmcBDZFkPEoBDZFkLwU0RJKnYzJ0hKl/QZMh0+nbTDnY5aaY4WhE8KzFfza+JledmRIhK1+Uo7xDmClcfGJmEi+euMLCmklcB/NlOcmrhAk3LH3kXgKFksZFjkhmKGk8ZCmhsvONNc94xjJDl4Z1tjzsVjLMsOBmmGHBzTDDgptEH2Y4gMUww1maUJlL0Lz47mgBS8Or0xrlXuKGkqZNtsBmOFPepgIukcMeQossoc0wO7WIySng/bnc/8q87qZLeXa460f/ssHx/Pn14dNieAiQS9zVo31B+/X7982Pi9WK/qQMjt2c+eqX1R9GtzS5JVc5k2pt8YeC9G4z1vBLGmFXTd/5QUCTX889+BqrRm+++N6vLZn8tiVNmpgNvW//AIrFwQuuIVTMo8Gf+l1/fqJJE3ClLWqSGPzAO02acE1g4Vc2qqOhSROtnBHXoPpoaNLUyr3V96WPhiZNpaisYT66aaSOhvtOgbozH963V0dDk6ZONHr5n14z0kbDuyLClMCfn/3XRkOTJkgJfOWvWxsNFysrZG5cRSijoUkTYtl08WtSRsO1f/u8mn9Lymho0gRYal9eq+iioUljnrPdoskIDZdxreNiO1kVDU0a9+0ZlYWKKhpeFeG8PaNUPqiioUnj24zW2lYTDbf+fZtROx2niYYmjWszeu0QTTTc+jfM5TawZj2uh4a9yk7MaKKhSdOJmWFUu5jLXqVfM6fu49zU7j3RpOlknNFEw15lL2b00NCk6caMHhoOlHvtz+hvCKq9qY29yvQ9vX+i9R59mjROzVjMAFpouPXv04zJmlYJDU0ak1w+P3OaPJbSS4249W8Sp9uBSj/AQJPGIpdXtkbnDnTQcKDcIpfvHVi9MVMHDU0ag1y/32R1klJlk5sD5S6rTas2iM7JCPYqXS5rb67RcKDcX4PG8E9ZBQ17lQ4X24YrWpX9Sg6Uq+fwvKJVQcOBcn8LJ8vTtxpo2Kv0t3AyXdHeXJOmCHbZb1VY2LFX6bAINi00FdCwV6kcnV9Tml2jYa/SX0FTynnz/IT8jJzDgsYWzfX9SvYqdXN2gIa9Sn8dGusu/WU0NGm81Zh/r7gN0VzeemKvUjN6P2JqiObyfiV7lS4nJ99o2Kt0OTn5RsNepcvJyXQX4ep+JWWwz8nJtE9/FQ33KhXzKF2gYa9SM0cUNOxVuslagqC5WK6zV6mXqfSBhnuVitl00Sxe0XBkTy93XTNuj9OwV6mYPQ6aS2Mi9yr9DjRu0VAG+x1ovKLhyJ7jgcYrGo7sOR5oLA/uXdmvpAx2PNAYormyyc1epV5evaDhyJ5aptIJGo7s6WWNhebzjVWO7Hn4Fppc///8ZARH9tTy0DdjedrzczSUwY7X217RcGRPrww+O0HDkT29LCUYGsrgnLOTJZqPT0awV+l7drKsOT9Fw5E9B3+40U57cmRPL69O0FAG++7suUTDkT0Ha5FmaJ6UwSkX3KZoPjuDxZE99yWN5Qm5zdsD9VfSvG3QeDvtyc0VzZLm7AMNZbBiHiUcmo8mVI7sKWYNh+ajCZUje+2rynBoKIMD1MHF2RFhymDNb8CoDnZ2rpwjexEWT87QUAZHWDwZovngKAd7laqZ46H5YHDkyJ5qnl2g4eZKiBX36elcOWWwg+5qtMsI3FyJ0abxhIYyGDTi2p2XTSujOTpAw5G9GL09T2i4uRIFjaNrT9xciYLGz2UEymDt3Es8NMKT8BzZa15UxruMQBkMGikabq6ARoyGI3tx0Hi59sTNleb1QbwbLJTBoBkG4TuYOLIHmkG4XcbNFdCI0VAGG+SVHA1lcOMvwMnxf8kzc2QvEhonN1gog0EzDIPoBgt7laD5K4KNeW6uNP6rjYiGmyuNv4CAaCiDQSN+Zm6uxELj4QYLZbDRF1DioZkpg9tmzoyGI3ugkT4zN1dAI35mbq6ARvrMlMFWWazQvJpD5wK3VcyO07Q/V04ZDBrpM1MGg0b8zBzZA430mbm5AhrxM3NzxSx2pz1b35WjDA6IpvG5ci5wg0b8zJTBoJE+M2UwaMTPzJE9SzRnTjTcXDGM2cG9tnfluMAdEk3bI8KUwaARPzNlMGikz0wZDBrxM1MGm8bsLcIt0XBkzzZzRjTcXAmKpuURYS5wg0b6zJTBoBE/Mxe4QSN9Zspg0IifmTLYOls+NBzZC4vm1eqZubkSF02zc+Vc4AaN9Jkpg0EjfmYucING/MyUwfZ5JUNDGWyfiHflvnxmyuDIaNqcK+fmCmjEz8wFbtCIn5kyGDTSZ+YCN2jEz8zNlSpoDis0dhPFf/9uDGVwleS6jEAZDBrxM1MGg0b6zFzgBo34mSmDQSN+Zsrg6GjsvsEHN1eSomlwRJgL3JXyyHOunDK4VhLdYKEMBo34mSmDQSN9ZsrgBGjsnnnlAndSNLWPCHNzBTRiNFzgrpclCxreY1QvWa49UQaDRvzMlMGg+TI7ZXBSNHWPCFMGg0aMhjIYNFI0XOAGjRgNF7irJsW1J8rgqrG7K2f4E2EH7zHKiabqEWFuroBGioYyGDRiNJTBoJGioQwGjRgNZXDlTAGvPf2MhjK4chJce+I9RqARo+HmCmikaHiPEWjEaHiPEWjEaCiD86AxPLM7Uwa3TfgbLJTBoJGioQwGjRgNZTBoxGh4jxFopGh4j1EqNEsVNJTBLbLGOyL8w7FmDkU0SezLCJy+Ao0UDcc8c6ExPIP1PzT0aEAjRcOLIpKhMVwL/z8aTnm2yh5vk/tv6CdfXqOYnSu3bO8vvCciJxrL98Xcz1IOzORDY1mkTjv9mZRoGAhA4+jWE2kdq7tybzaF8sbqiDA9FNB4OhhBsqKhDgaNuA6mpEmce7hLT6R5jE57cgoTNOJwVRY0js5FkKxouMGWOs9wu5WkeTY2nogLNCy4QcMeArFHwx5C6pgcp+EKG2iYnYg5GtZOoGHtRP4di9OedPaSx+A4DUdpQMPpYGKPhlMR2fOgSUOkmWnSkOZoKINB4+plEcRH1M9g0Q3OH+1Nbs55gob1Nvk1L7adiDDa+5VsO4FGfN2JTxQ0DDTk1+iejGCg6SK6+5UMNNEyf9JWuzHQ9Jv78VmHZGag6VXM/nFXbWWg6VbMx53YjYGmv8XP61r3XnPFzUATQsx2ecdHc8XNQOM+46qxS3hn16mfrKfOzrJiHcz2tu+GzKH2dentcXNvxfNi6a34Jz4eHNhLn9uuOy3olTScDHZa+m7qpYRaScMVBJ+LpdOg/Hyz3O6n9FUyo9al4VKlu9J3t1rmLiy3U2baDL+rneV2P4WMkhm12Ykq2H8hozUnLFTB+Tsy2nXEmyo4fUdG24zWSU9eNO0gy1lnvfKkF5xlff2utcYddcpgjl4FmJbU+iJKR8offG3upyW9XtqbFk0n05KeGZ0N7pNvzv20pNizfzE59TEtKZqZmJwyN/Fs9gY3Jqeo05L8EJSSmYnJKWjt+8EBXa0zCBuTU8RB5qNCVMvMxOSUvvZVP+ukMtCw51Qx06dnn9TMqAw07DnVy+cXAPTOVGoMNByIqFb7Xujd65lRORPB5bg6te+lswiKZ7c1jgZzWs/rAtvGjMbPgvELCN4HGeU7Iger7QB5XP6aNM0srLaTdvHszIwKZla+VtNBRuNMper9RYXlNu+8cj7IaJvROHvFN+t7kFG/J314eyCit1wy+ooWCpqkPRk7MwqbTnRofA8y+lPB9V4wHRqD3I7i14zCVSc6NOrR/HkKfTMKLRq2nLQHGeXfEFVfplzvAHCGRjfLWZybuT450dVz2MYzNaOwcuKL9tfGs22hvSmCc66wDc2sFMFpi18rMzeKYC/FbylBzAwnRbCLeWkvccxcLtTpBCvkfpZAZq6vtnlV8OU8S4lkZnL4TJ1lepdYZq4foln41v01ZWzNXC5oOEJzqfjdSglnZmHhlLApY2vm8qlg3hR8YQVylohmBnac8s5LVmYud5O46e92XrIy8/T4UMxLrs1cLoLZpXTXx7M2c7kIZrHtro9nPg1cfSje3yn/Oz1LbDNXO8E0aKRZSwluZsdM3SX2XsKbuVyNwUC0xD5KfDMrZhIusW3NXF44cYLm+9lKyWDm5vKpcpYy75LDzICZWqXMWTCDGVEpU0oaM1fXfjSCnZYymKGUcWTmhZmcpYyhmRUz6boy3s2wSWneak9nhg2nP5Qyr5LOzB0zlpneBTOYiVH9YoZGHmaofjFDvFW/mKH3ixmqX8wQP71fzMTMUgpmMCPJVjCDmWgLJsywYMIMCybMkP99np7IYCbEGruU/GYemEm4xvZ95oofv/W4xuY8cJQFkzsymGGN7cQMd1USk+FOHG2ZJGYecPFLhjv+jvPwSQYzdPJ8fDuX31nEy+sdk3H6bjTEOLheUNcM72DM1/y1NnP1b+QNmdKbGd4pfbGT9yrdmbn6juPOtyhdNn+tzVx9qBUyvZnht3hSk/H5m189t/Qm92T4bUG2mFx8PZd/GQYy3Zm5+kwnZHozc3m3aYeMUd6bUzOXS+ANMjbZxuHwaeay5RUyJlkGnR+uNDBzeKyx/Mf6ruR5H9yamS4/061HMtbHZd5//faeTzPX//OQMShl/v53fJq5XM7skFHPPLg2c2j9SUBGrZT532zv0szl7kyHyyZjMu8fjle7NLM4HPr6JrP9+MvTLs1c3mzq7se1jcks//rHPJoZLz/RARnNUuanK6kezVz/BF6Q0cvxc6/Lo5mX8lgKGYVGnm8zo8MKy3MepmR+07VwaEbhz6YnMrbbkr8bsR2auT41vSFjU/16NaMwNT0ho9379W1GYWp6QMam+vVqRuGexQgZ7d6vazNToZxxQea/J3h3Zp6UMy7IzEMcMyflzHcXC4a3Jc+vPkNvZjR6miNkbBZMTs3slDPtyby//qtzZuam8DgrZEzJeDOzeSuvvGa3I/PHc7G+zIwac3EPZAzflffnVacvM2uNPxPIfLjGdmlmPOv8pyFz6dNzZUblB/Dyr7TtzlidtyGaGY0XDuyQMSbjyozKh7FA5uM19jd/IsKTGY1hJv1PY9zsyHx3VndkRqWayd4EttuX/DYZR2ZUFk3ZpyY7MoIWhR8za2FqardjsA0BzegMM2/I2DdC3ZjR6VPlnprMNpnmIaIZpeVA6obe5oOMGzM6f0Kp72k/nZDxYubR5n9PL++TD82HmVGlnZf6GIQVmVP+hlMfZpSG3cTHIKwaMx+Q8WFGqx9+g0wFMj7MKLUd8jZnrBozH5FxYWZtVcyFiSsyHsxozUxn2ubM5oqMBzNaf0RpK+DVhsxxG6KaUftEsm5PGq2y3+MQ1YzaGaKshzpv3sg0N6PUzStpb/YbrbIvkGluRq28S/oaaaNV9hUyrc3ozdVJT0Hs/sg0NqM38CZdaG8OybQ1o1fMJH0ZxOyRTFszL73PIeUwc3dJpqkZxV5Vyn6ezZLpMpmWZjQH3oz9PJsl03n9o2pnRvOvKOUwY7JkOhXOizQzM50MM1/m6ZVMMzOqA2/GYWZ2S6aZGdW5OuEwc/NLppUZ1V5VwmFmPP2SaWRGt72ZcJh5OybTxowumYQ/b2CyZaC28d/CjO4nknCnyaT+1Tst3cCM8ieSb6fp5ptMAzNLYZipX/9q3smobmZz/GHkrX9VB+PaZrTJ5LsHZ9H/1e1GVDajviBI94MYs3sydc2M6mTSvXDG4vyD9odU04z+5v6ZrZ1ncf7hPcY1M+l/HunW2a8AZCqaMRh1091PWfTJHPq9iGpmLGq7bAWwQTPvNHgnTy0zFivIbAWwQTPPgkwlM6PFOcV0HWCDD8nkQnIVM7fDgEy6m5MGrwyZh6hmFgsx6d4DYXCZaR2CmhlfJmSytWYMipltCGrmbjIv5ZuZ9IsZsyWCtRmrF65nm5n0i5n3GNPMzerHY7LNTPrFzDEOIc0YvTww36kZ/WLmvA0RzdzNfqEqXTdPv5ixfCW7mZnR7Kdj8nXzlljjsJWZ+bQjk22fSX+byXa/38bMfTcUk+0ExKjejTC+WGphZtosxaQ7ArxF+4D0zYzraUom2zJb/ZDIe4xmxlhMundHT9qf12n+K1bKZubDWEy645zqDQn7BYKmmdFeDHsGDrqdemZG81nJtiOeY89gG+KYmZ4VxFSYq4Mvs/coY+O2PF6lSrJdztb+2N5jyPnUMtneTvSIOQxHMpNtZ1J9mV2pDRHIzJt7Bl+n1tHFOGbSXU3R3s2u9vrSMGayLZnUd7PrDcNhzKT7ucl32GE4ipl0r0DT/uBvA2balHdhG8DzgJlG5V3UBvA2YCY5Ge1rX3XbECtk4s9MlY+hBTCzD8xMrY/MBDPzHpmZfC0QVshEn5mqb8OtkAk+M9X/hFbIxJ6ZGuyprJCJPTM1aJC7NrMnJKM8M7XoQ3g2k/KX1nVnpiZ3SlfIBJ6Z2twpXSETeGZqc0DErZl5YGb6UxqdqV8hE3ZmavWCDJ9mzntKMrpn85q9IMOlmXRnf00+7GanXZ8OyWTs5A2D9qnxdhcEd39ktqRkdD/r94CZf7ImFaN7n6nl2768mTnnrGR0b9rOA2b+znHLSkb3HRBNG56+zLzGtGRU3wHRdpWwU8oE3DRoOhqPNPIC9jTa3hB01NLbx8RkVFszbS9i3E7mpXCbBm1fqjK+vYg57qnJqLZm2r4h4+WFzGtMTUb1J72ejDKp+3gGf5tNl9n3wwmZfUpORvXUTMNl9t1LY+ZchuzR/ONst1Qw/oUlBhmrfsaOmA4GGdW9yVa72aOfPl7y5ZJ+Abw0EuOmjZe8J2NQALd5EftK4zduAdykATwfbsR0UPuqF8CPrsX0MS0pF8D1Z6a7HzFnJ9OSbgFcfWa6OzpbtY3dkLnHnZk8iemlkBmGQfUIRN0TwJMjMe97R2I0j0BU/fFWP03fUo65JzGqRyDufYrpYaPgX1E8A1zv0Mzo6Db2uY6dkVE8A1xtzeRom6CU7sSoXgN6dChmm7oTo3kJ7oUYNpo8zkyOtgk6FaO50fToTMzepxjNdfarMzH3odNsgWamB2I8ZIpzNs/VxlK/YjTX2Tti+ojifvaEmD6it59tedTohhg/mfXOARiWXJ42rx+di9F8p9W9CzHz0H302nlPxNDOc9GacXVABjG67TyTWd7TVuTZ4XEH23bejphOonY9xeBCP8cdkrfzVsSwayBcT2g/2eJITHkgxWCYUW7NeDruUKreo+hn1+CVWQxmLHYNVFsz7sRg5oeofTlLajGYMRhm9PYm7+9SMNPDroHWR3rfS8GM56htTm7JxWBGfZjR6QA7FoMZ9WFmzS4GM9rDjEIH2NNxB8xUGGbu6cVg5u8vSmuY2fOLwcxfUfumpvxiMPPXd+WiAB5jiMGM6jBzZaPJ1QEZzFQbZuYexGBGc5h5dyEGM5rDzL0LMZhRHGY+PGkVTQxmFIeZj9bZLg/IYKbSMLN2IgYzasPMB+vsmGIwozbMLL2IwYzWMCPdz36EFYMZrWFGdk/M+QEZzHzZG2mxnx1bTPdm1vofY3QxvZvROp63dSSmdzNaw8x323m3BGI6N6M1zHzz1XnTVgpmGGa+387LIqZvM1rDzNqVmL7NzNWGmUxi+jaj1Iqd+xLTtRmlYeZPuwaujlSdb8y4H2Z8HcLbxhUzF/KoMMw4EzPpLBX7NbObT+7+xGDmUpRe0rmHEoOZS3kZDzOzRzGYuZLJdphxdQjvx9eGY+bzbJbDjFsxmLmybWA4zDgWg5n2u5OTczGvyeI/3qcZpd3JX49auToa/rvfo8VM422Dn/+KXR3C+/0vGGOm7bbBFk4MZlpvG0zhxGCm8bbBFk8MZj7NTXuYCSMGM237ef8MM66OVO13+yZDh2Ym1WEmlBjMNO3nbRHFYObDnGrDjCsxx1zrD6Y/M7PWMBNQDGY+i87v9U3jGlAMZj6Kzvm8l6dDeIfgXdaYabbQLjHFYKbhQjuoGMy0W2hHFYOZdgvtqGIw02yhHVYMZpottMOKwUyzHe3mOT/+pSjM9LnQPtfPf48OM8KMvYvBjDhL72IwI87RuxjMtNlqiiwGM31VwBpiMNNTBawjBjP9VMBaYjDTSwWsJwYzfVTAmmIw00UFrCoGMx1UwNuk/DFgJnkFrC4GM8krYAMxmEldAZuIwUziCthIDGYkFfCJGMzIMiMGM8K8EYMZWSbEYEaYJ2Iwk7E585oqfBKY+WYeAcTsdb4JzKRpzuy1vgfMfLM5gxjM5GrO7DW/A8wkaM7sdb8BzIRvzuy1P3/MVPuYkojBTPDmzH4P+geU38wNMZjJ0Jw5Wn3umPlOHJ6cOeZmnwZmQu4bNBSDmZBTU1MxmPnWvsGJGMwE3jdoLgYz38kLMZgRTk2IwUzQqcmJGMyEmZrO1c0HgpkQU9Op/DoQzGSfmlyJwUyAqcmZGMy4n5rcicGM86nJoRjMuJ6aXIrBjOepyacYzPidmrbJ62eCGZ9Tk18xmPE5NXkWgxmPU5NvMZjxNzV5F4MZb1OTfzGY+ToPxGBGmLqHx/cgHyRmvsqJGMy4nZr2QB8iZr7IEzGYEeZADGZkuSEGM8IsiMGMMPbv0HNz/QQzQZrAMcVg5ovMiMGMMC/EYMZPEziyGMz8d+6IwYyTJnB0MZip3QR2dFUfM9qZbMSMA2bSmpkRg5nWK+0sYjBTa6WdRwxm6qy0M4nBTI2Vdi4xmPmvKO5pb2OyzwYzv43ennaM6yeYuZ4HYjAjzIYYzAhzIAYzskyIwYwwM2IwU7ec2W/DgJnOzFzaONiz/zYRZn6TG2IwI8yCGMwI80IMZqqUM52IwYxaOdONGMwolTPxLxNgpm4505UYzPwuB2IwI8uEGMwIMyMGM8JsiMGMMG/EYEaWbx4FznaZADMX8kAMZvQ/ka7FYObX7IjBjDCIwYwwN8RgRpgFMZjR6+ilvkyAGYOOHmIwIyuBEYOZ/8odMZhR+DwQg5mv8kIMZoQ5EIMZWcZuLxNgRqUERgxmZB8HYjDzrWyIwYwwb8RgRhjEYOaDEhgxmJFk7vcyAWY+NYMYzBDMEMwQzBDMYIZghmCGYIZghmAGM5jBDMEMwQzBDMEMZjCDGYIZghmCGYIZghnMEMwQzBDMEMwQzGAGM5ghmCGYIZghmCGYwQzBDMEMwQzBDMEMZghmCGYIZghmCGYwgxnMEMwQzBDMEMwQzGCGYIZghmCGYIZgBjOYwQzBDMEMwQzBDGYwgxmCGYIZghmCGYIZzBDMEMwQzBDMEMxgBjOYIZghmCGYIZghmMEMwQzBDMEMwQzBDGYIZghmCGYIZghmMIMZzBDMEMwQzBDMEMxghmCGYIZghmCGYAYzmMEMwQzBDMEMwQxmMIMZghmCGYIZghmCGcwQzBDMEMwQzBDMYAYzmCGYIZghmCGYIZjBDMEMwQzBDMEMwQxmCGYIZghmCGYIZjCDGcwQzBDMEMwQzBDMYIZghmCGYIZghmAGM5jBDMEMwQzBDMEMZjCDGYIZghmCGYIZghnMEMwQzBDMEMwQzGAGM5ghmCGYIZghmCGYwQzBDMEMwQzBDMEMZghmCGYIZghmCGYwgxnMEMwQzBDMEMwQzGCGYIZghmCGYIZgBjOYwQzBDMEMwQzBDGYwgxmCGYIZghmCGYIZzBDMEMwQzBDMEMxgBjOYIZghmCGYIZghmMEMwQzBDMEMwQzBDGYIZghmCGYIZghmMIMZzBDMEMwQzBDMEMxghmCGYIZghmCGYAYzmMEMwQzBDMEMwQxmMIMZghmCGYIZghmCGcwQzBDMEMwQzBDMYAYzmCGYIZghmCGYIZjBDMEMwQzBDMEMwQxmCGYIZghmCGYIZjCDGcwQzBDMEMwQzBDMYIZghmCGYIZghmAGM91nwQyR5o0ZIsz4xgypjgYzoMEMsUaDGdBghlijwQxoMEOs0WAGNJgh1mgwAxrMEGs0mAENZog1GsyABjPEGg1mekdzYoYIczsxQ6zRYIZI0WCGSNFghkjRYIZI0WCGSNFghkjRYIZI0WCGSNFghkjRYIZI0WCGSNFghkjRYIZI0WCGSNFghvyEBjNEmhkzRBsNZogUDWaIFA1miBQNZogUDWaIFA1miBQNZogUDWaIFA1miBQNZogUDWaIFA1miBQNZogUDWaIFA1miBQNZsifsmGGXESDGSJFgxkiRYMZIkWDGSJFgxkiRYMZIkWDGSJFgxkiRYMZIkWDGSJFgxkiRYMZIkWDGSJFgxkiRZPGzP8BE5I2Adv1aL4AAAAASUVORK5CYII=;" parent="1" vertex="1">
          <mxGeometry x="290" y="500" width="23.27" height="47" as="geometry" />
        </mxCell>
        <mxCell id="fqFbejuKPqkzXvjR6cZn-13" value="" style="endArrow=classic;html=1;rounded=0;" parent="1" source="fqFbejuKPqkzXvjR6cZn-3" target="fqFbejuKPqkzXvjR6cZn-9" edge="1">
          <mxGeometry width="50" height="50" relative="1" as="geometry">
            <mxPoint x="166" y="290" as="sourcePoint" />
            <mxPoint x="166" y="460" as="targetPoint" />
          </mxGeometry>
        </mxCell>
        <mxCell id="fqFbejuKPqkzXvjR6cZn-9" value="Ingest DBC&lt;div&gt;Transform to CSV&lt;/div&gt;" style="rounded=1;whiteSpace=wrap;html=1;fillColor=#f8cecc;strokeColor=#b85450;" parent="1" vertex="1">
          <mxGeometry x="88.48" y="340" width="154.35" height="60" as="geometry" />
        </mxCell>
      </root>
    </mxGraphModel>
  </diagram>
</mxfile>
